<?xml version="1.0" encoding="iso-8859-1"?>
<!-- Generator: Adobe Illustrator 19.0.0, SVG Export Plug-In . SVG Version: 6.00 Build 0)  -->
<svg version="1.1" id="Capa_1" xmlns="http://www.w3.org/2000/svg" xmlns:xlink="http://www.w3.org/1999/xlink" x="0px" y="0px"
	 viewBox="0 0 512.003 512.003" style="enable-background:new 0 0 512.003 512.003;" xml:space="preserve">
<g>
	<path d="M115.797,395.575c3.485,3.775,8.545,5.372,13.535,4.269c40.126-8.869,82.457-13.364,125.839-13.364c0.197,0,0.4,0,0.597,0
		c43.589,0.042,86.12,4.619,126.412,13.604c1.049,0.234,2.102,0.349,3.142,0.349c3.906,0,7.643-1.615,10.4-4.591
		c3.576-3.86,4.789-9.191,3.245-14.26c-9.509-31.201-27.992-58.088-53.451-77.754c-26.034-20.111-57.031-30.757-89.639-30.788
		c-0.048,0-0.095,0-0.143,0c-32.556,0-63.521,10.586-89.556,30.618c-25.496,19.618-44.03,46.47-53.598,77.653
		C111.026,386.375,112.228,391.708,115.797,395.575z M255.862,288.039c28.441,0.027,55.514,9.085,78.485,26.177
		c-24.973-6.356-51.586-9.694-78.47-9.72h-0.314c-26.811,0-53.352,3.295-78.267,9.594c22.976-17.039,50.03-26.052,78.438-26.052
		C255.775,288.039,255.821,288.039,255.862,288.039z M152.917,337.335c31.223-11.668,66.655-17.839,102.645-17.839h0.3
		c36.058,0.035,71.56,6.264,102.824,18.002c11.449,14.005,20.283,30.281,25.703,47.71c-41.044-9.068-84.305-13.687-128.606-13.729
		c-0.205,0-0.406,0-0.61,0c-44.088,0-87.15,4.536-128.021,13.485C132.598,367.562,141.453,351.313,152.917,337.335z"/>
	<path d="M15.108,248.714c1.833-61.604,26.857-119.543,70.459-163.146c43.603-43.603,101.543-68.626,163.146-70.459
		c61.338-1.829,120.401,19.43,166.328,59.852c3.109,2.737,7.848,2.436,10.585-0.675c2.737-3.109,2.435-7.848-0.675-10.585
		c-48.79-42.943-111.535-65.52-176.684-63.585c-65.44,1.948-126.989,28.529-173.306,74.847
		C28.644,121.279,2.063,182.827,0.115,248.268C-1.824,313.415,20.757,376.162,63.7,424.952c1.482,1.685,3.552,2.545,5.633,2.545
		c1.76,0,3.527-0.616,4.952-1.87c3.109-2.737,3.412-7.476,0.675-10.585C34.538,369.116,13.283,310.046,15.108,248.714z"/>
	<path d="M448.302,87.05c-2.736-3.109-7.476-3.411-10.585-0.675c-3.109,2.737-3.412,7.476-0.675,10.585
		c40.421,45.926,61.677,104.995,59.852,166.328c-1.833,61.603-26.856,119.543-70.459,163.146
		c-43.603,43.603-101.542,68.626-163.146,70.459c-61.336,1.835-120.402-19.43-166.328-59.851c-3.108-2.736-7.848-2.435-10.585,0.675
		c-2.737,3.109-2.435,7.848,0.675,10.585c46.854,41.239,106.58,63.7,168.942,63.7c2.576,0,5.158-0.039,7.742-0.116
		c65.441-1.948,126.989-28.529,173.306-74.846c46.318-46.317,72.899-107.866,74.847-173.306
		C513.826,198.588,491.245,135.84,448.302,87.05z"/>
	<path d="M191.119,212.807c-4.514,9.8-12.613,16.8-22.222,19.207c-9.608,2.407-20.051,0.05-28.651-6.466
		c-3.302-2.501-8.006-1.853-10.507,1.449s-1.853,8.006,1.449,10.507c9.033,6.844,19.606,10.436,30.171,10.436
		c3.752,0,7.504-0.454,11.184-1.375c14.04-3.517,25.777-13.534,32.202-27.482c1.733-3.763,0.088-8.217-3.674-9.95
		C197.305,207.398,192.852,209.045,191.119,212.807z"/>
	<path d="M371.699,225.548c-8.6,6.516-19.042,8.874-28.651,6.466c-9.609-2.407-17.709-9.407-22.223-19.207
		c-1.733-3.762-6.188-5.408-9.95-3.674c-3.762,1.732-5.407,6.187-3.674,9.95c6.424,13.949,18.162,23.966,32.202,27.482
		c3.681,0.922,7.431,1.375,11.184,1.375c10.563,0,21.138-3.592,30.17-10.436c3.301-2.501,3.95-7.206,1.449-10.507
		C379.704,223.694,374.999,223.046,371.699,225.548z"/>
	<path d="M213.182,138.514c-2.913-2.932-7.656-2.946-10.598-0.043c-0.231,0.228-23.726,22.989-76.945,38.194
		c-3.982,1.138-6.289,5.289-5.151,9.272c0.941,3.294,3.944,5.441,7.208,5.441c0.682,0,1.376-0.094,2.064-0.291
		c57.329-16.379,82.375-40.955,83.414-41.993C216.096,146.172,216.095,141.445,213.182,138.514z"/>
	<path d="M391.457,185.937c1.138-3.983-1.168-8.134-5.151-9.272c-53.219-15.205-76.714-37.966-76.928-38.177
		c-2.929-2.929-7.678-2.929-10.606,0c-2.929,2.929-2.929,7.678,0,10.606c1.038,1.038,26.084,25.614,83.413,41.993
		c0.689,0.197,1.382,0.291,2.064,0.291C387.512,191.378,390.516,189.23,391.457,185.937z"/>
</g>
<g>
</g>
<g>
</g>
<g>
</g>
<g>
</g>
<g>
</g>
<g>
</g>
<g>
</g>
<g>
</g>
<g>
</g>
<g>
</g>
<g>
</g>
<g>
</g>
<g>
</g>
<g>
</g>
<g>
</g>
</svg>
