<?xml version="1.0" encoding="iso-8859-1"?>
<!-- Generator: Adobe Illustrator 19.0.0, SVG Export Plug-In . SVG Version: 6.00 Build 0)  -->
<svg version="1.1" id="Capa_1" xmlns="http://www.w3.org/2000/svg" xmlns:xlink="http://www.w3.org/1999/xlink" x="0px" y="0px"
	 viewBox="0 0 512.003 512.003" style="enable-background:new 0 0 512.003 512.003;" xml:space="preserve">
<g>
	<path d="M15.108,248.714c1.833-61.604,26.857-119.543,70.459-163.146c43.603-43.603,101.543-68.626,163.146-70.459
		c61.333-1.829,120.402,19.43,166.328,59.852c3.109,2.737,7.849,2.436,10.585-0.675c2.737-3.109,2.435-7.848-0.675-10.585
		C376.161,20.757,313.411-1.819,248.268,0.115c-65.44,1.948-126.989,28.529-173.306,74.847
		C28.644,121.279,2.063,182.827,0.115,248.268C-1.824,313.415,20.757,376.162,63.7,424.952c1.482,1.685,3.552,2.545,5.633,2.545
		c1.76,0,3.527-0.616,4.952-1.87c3.109-2.737,3.412-7.476,0.675-10.585C34.538,369.116,13.283,310.046,15.108,248.714z"/>
	<path d="M448.302,87.05c-2.736-3.109-7.476-3.411-10.585-0.675c-3.109,2.737-3.412,7.476-0.675,10.585
		c40.421,45.926,61.677,104.995,59.852,166.328c-1.833,61.603-26.856,119.543-70.459,163.146
		c-43.603,43.603-101.542,68.626-163.146,70.459c-61.338,1.835-120.402-19.43-166.328-59.851c-3.108-2.736-7.848-2.435-10.585,0.675
		c-2.737,3.109-2.435,7.848,0.675,10.585c46.854,41.239,106.58,63.7,168.942,63.7c2.576,0,5.158-0.039,7.742-0.116
		c65.441-1.948,126.989-28.529,173.306-74.846c46.318-46.317,72.899-107.866,74.847-173.306
		C513.826,198.588,491.245,135.84,448.302,87.05z"/>
	<path d="M171.822,271.518c15.187,0,27.542-12.355,27.542-27.542V231.95c0-4.142-3.358-7.5-7.5-7.5s-7.5,3.358-7.5,7.5v12.026
		c0,6.916-5.626,12.542-12.542,12.542s-12.542-5.626-12.542-12.542v-16.034c0-6.916,5.626-12.542,12.542-12.542
		c4.142,0,7.5-3.358,7.5-7.5s-3.358-7.5-7.5-7.5c-15.187,0-27.542,12.355-27.542,27.542v16.034
		C144.279,259.163,156.635,271.518,171.822,271.518z"/>
	<path d="M367.723,231.95c0-4.142-3.358-7.5-7.5-7.5s-7.5,3.358-7.5,7.5v12.026c0,6.916-5.626,12.542-12.542,12.542
		s-12.543-5.626-12.543-12.542v-16.034c0-6.916,5.627-12.542,12.543-12.542c4.142,0,7.5-3.358,7.5-7.5s-3.358-7.5-7.5-7.5
		c-15.187,0-27.543,12.355-27.543,27.542v16.034c0,15.187,12.356,27.542,27.543,27.542s27.542-12.355,27.542-27.542V231.95z"/>
	<path d="M199.176,133.981c-0.991-4.022-5.053-6.479-9.076-5.49c-48.69,11.987-81.906,40.499-83.296,41.707
		c-3.127,2.717-3.459,7.454-0.743,10.581c1.483,1.707,3.568,2.581,5.665,2.581c1.744,0,3.496-0.605,4.916-1.838
		c0.313-0.272,31.834-27.335,77.044-38.464C197.708,142.066,200.166,138.003,199.176,133.981z"/>
	<path d="M176.786,403.746c1.626,0,3.272-0.129,4.92-0.393c23.871-3.813,48.857-5.747,74.266-5.747
		c25.409,0,50.396,1.934,74.266,5.747c11.76,1.876,23.271-3.076,30.044-12.932c6.804-9.901,7.302-22.488,1.3-32.849
		c-21.776-37.59-62.244-60.941-105.61-60.941s-83.834,23.351-105.61,60.941c-6.002,10.36-5.504,22.948,1.3,32.849
		C157.485,398.896,166.811,403.747,176.786,403.746z M347.92,381.927c-3.514,5.113-9.238,7.585-15.315,6.614
		c-24.65-3.938-50.433-5.935-76.632-5.935c-26.199,0-51.982,1.997-76.632,5.935c-6.072,0.971-11.801-1.501-15.315-6.614
		c-3.545-5.16-3.801-11.453-0.683-16.835c1.578-2.724,3.278-5.354,5.072-7.903c26.673-8.821,56.911-13.488,87.558-13.488
		c30.651,0,60.883,4.668,87.56,13.49c1.794,2.549,3.493,5.178,5.071,7.902C351.721,370.474,351.465,376.767,347.92,381.927z
		 M324.149,336.255c-21.696-4.962-44.837-7.555-68.177-7.555c-23.338,0-46.481,2.594-68.177,7.555
		c18.934-15.638,42.997-24.624,68.177-24.624C281.153,311.632,305.215,320.617,324.149,336.255z"/>
	<path d="M400.276,183.359c2.097,0,4.182-0.874,5.665-2.581c2.717-3.126,2.384-7.864-0.743-10.581
		c-1.39-1.208-34.606-29.72-83.296-41.707c-4.021-0.987-8.085,1.468-9.076,5.49c-0.99,4.022,1.468,8.085,5.49,9.076
		c45.04,11.087,76.735,38.196,77.05,38.469C396.785,182.756,398.534,183.359,400.276,183.359z"/>
</g>
<g>
</g>
<g>
</g>
<g>
</g>
<g>
</g>
<g>
</g>
<g>
</g>
<g>
</g>
<g>
</g>
<g>
</g>
<g>
</g>
<g>
</g>
<g>
</g>
<g>
</g>
<g>
</g>
<g>
</g>
</svg>
