<?xml version="1.0" encoding="iso-8859-1"?>
<!-- Generator: Adobe Illustrator 19.0.0, SVG Export Plug-In . SVG Version: 6.00 Build 0)  -->
<svg version="1.1" id="Capa_1" xmlns="http://www.w3.org/2000/svg" xmlns:xlink="http://www.w3.org/1999/xlink" x="0px" y="0px"
	 viewBox="0 0 511.996 511.996" style="enable-background:new 0 0 511.996 511.996;" xml:space="preserve">
<g>
	<path d="M171.819,231.431c4.142,0,7.5-3.358,7.5-7.5s-3.358-7.5-7.5-7.5c-15.187,0-27.542,12.355-27.542,27.542v16.034
		c0,15.187,12.355,27.542,27.542,27.542c15.187,0,27.542-12.355,27.542-27.542v-12.025c0-4.142-3.358-7.5-7.5-7.5
		s-7.5,3.358-7.5,7.5v12.025c0,6.916-5.626,12.542-12.542,12.542c-6.916,0-12.542-5.626-12.542-12.542v-16.034
		C159.277,237.058,164.904,231.431,171.819,231.431z"/>
	<path d="M15.109,248.711c1.833-61.602,26.856-119.541,70.458-163.143C129.169,41.966,187.108,16.944,248.71,15.11
		c61.333-1.83,120.4,19.43,166.325,59.85c3.109,2.737,7.849,2.436,10.585-0.675c2.737-3.109,2.435-7.848-0.675-10.585
		C376.156,20.759,313.409-1.818,248.264,0.117C182.824,2.064,121.277,28.645,74.96,74.962S2.063,182.826,0.115,248.265
		c-1.939,65.146,20.642,127.892,63.584,176.681c1.482,1.685,3.552,2.545,5.633,2.545c1.76,0,3.527-0.616,4.952-1.87
		c3.109-2.737,3.412-7.476,0.675-10.585C34.539,369.111,13.283,310.043,15.109,248.711z"/>
	<path d="M309.973,260.668c6.76-8.409,16.317-13.232,26.222-13.232s19.462,4.823,26.222,13.232
		c2.595,3.228,7.315,3.742,10.544,1.147c3.229-2.595,3.742-7.316,1.147-10.544c-9.621-11.97-23.44-18.835-37.913-18.835
		c-14.473,0-28.292,6.865-37.914,18.835c-2.595,3.229-2.082,7.949,1.147,10.544c1.385,1.113,3.045,1.655,4.694,1.655
		C306.317,263.47,308.491,262.512,309.973,260.668z"/>
	<path d="M384.291,223.387c2.751,0,5.4-1.52,6.714-4.147c1.853-3.705,0.351-8.21-3.354-10.062
		c-1.374-0.687-34.218-16.826-83.523-16.826c-4.142,0-7.5,3.358-7.5,7.5s3.358,7.5,7.5,7.5c45.559,0,76.519,15.095,76.815,15.242
		C382.02,223.132,383.164,223.387,384.291,223.387z"/>
	<path d="M199.126,157.848c-1.091-3.996-5.218-6.35-9.211-5.259c-44.084,12.042-74.125,40.651-75.381,41.863
		c-2.982,2.875-3.069,7.623-0.194,10.604c1.472,1.527,3.435,2.295,5.4,2.295c1.873,0,3.749-0.698,5.204-2.101
		c0.28-0.27,28.499-27.15,68.923-38.192C197.863,165.968,200.217,161.844,199.126,157.848z"/>
	<path d="M274.5,358.75c13.645-4.694,29.111-10.015,29.111-23.64c0-13.624-15.466-18.943-29.112-23.636
		c-5.381-1.851-10.945-3.764-14.823-5.898c-3.63-1.998-8.189-0.675-10.187,2.954c-1.997,3.629-0.674,8.189,2.955,10.187
		c5.01,2.758,11.195,4.885,17.177,6.942c5.194,1.786,18.99,6.531,18.99,9.451c0,2.923-13.797,7.669-18.991,9.456
		c-13.645,4.694-29.111,10.015-29.111,23.64c0,13.636,15.464,18.964,29.107,23.665c5.684,1.958,18.994,6.545,18.994,9.483
		c0,2.939-13.311,7.525-18.994,9.483c-6.001,2.068-12.207,4.207-17.227,6.983c-3.625,2.004-4.938,6.568-2.933,10.193
		c1.369,2.475,3.929,3.872,6.57,3.872c1.228,0,2.473-0.302,3.623-0.938c3.879-2.146,9.458-4.068,14.854-5.927
		c13.644-4.701,29.107-10.03,29.107-23.666s-15.464-18.964-29.107-23.665c-5.684-1.958-18.994-6.545-18.994-9.483
		C255.509,365.282,269.306,360.536,274.5,358.75z"/>
	<path d="M498.918,336.976c28.66-86.233,9.393-181.737-50.623-249.925c-2.736-3.11-7.476-3.411-10.585-0.675
		c-3.109,2.737-3.412,7.476-0.675,10.585c55.144,62.653,73.743,149.809,49.511,229.44c-0.439-0.269-0.88-0.537-1.328-0.793
		c-13.818-7.9-29.586-9.461-44.396-4.401c-1.736,0.593-3.604-0.019-4.651-1.523c-8.945-12.843-22.581-20.911-38.396-22.719
		c-20.53-2.34-41.331,7.983-51.759,25.704c-25.526,43.374,16.294,104.097,35.458,128.191v0c2.074,2.607,4.601,4.712,7.404,6.259
		c-40.882,27.018-89.512,41.061-138.962,39.798c-56.39-1.431-110.711-22.697-152.957-59.88c-3.108-2.736-7.848-2.435-10.585,0.675
		c-2.737,3.109-2.435,7.848,0.675,10.585c44.881,39.503,102.587,62.095,162.487,63.615c2.164,0.055,4.322,0.082,6.483,0.082
		c57.306,0,113.21-19.272,158.116-54.622c32.357-9.67,92.879-33.868,97.603-80.418C513.21,362.465,508.286,347.892,498.918,336.976z
		 M496.816,375.439c-4.259,41.961-72.602,63.736-93.446,69.41c-3.751,1.022-7.737-0.285-10.157-3.326v0
		c-13.448-16.907-55.663-74.895-34.27-111.246c6.764-11.495,19.635-18.646,32.948-18.646c1.39,0,2.787,0.078,4.18,0.237
		c11.473,1.311,21.343,7.131,27.791,16.389c4.914,7.053,13.679,9.923,21.811,7.144c10.677-3.649,22.077-2.501,32.101,3.229
		C490.651,345.992,498.303,360.784,496.816,375.439z"/>
</g>
<g>
</g>
<g>
</g>
<g>
</g>
<g>
</g>
<g>
</g>
<g>
</g>
<g>
</g>
<g>
</g>
<g>
</g>
<g>
</g>
<g>
</g>
<g>
</g>
<g>
</g>
<g>
</g>
<g>
</g>
</svg>
