<?xml version="1.0" encoding="iso-8859-1"?>
<!-- Generator: Adobe Illustrator 19.0.0, SVG Export Plug-In . SVG Version: 6.00 Build 0)  -->
<svg version="1.1" id="Capa_1" xmlns="http://www.w3.org/2000/svg" xmlns:xlink="http://www.w3.org/1999/xlink" x="0px" y="0px"
	 viewBox="0 0 512.003 512.003" style="enable-background:new 0 0 512.003 512.003;" xml:space="preserve">
<g>
	<path d="M191.864,224.449c-4.142,0-7.5,3.358-7.5,7.5v12.026c0,6.916-5.626,12.542-12.542,12.542s-12.542-5.626-12.542-12.542
		v-16.034c0-6.916,5.626-12.542,12.542-12.542c4.142,0,7.5-3.358,7.5-7.5s-3.358-7.5-7.5-7.5c-15.187,0-27.542,12.355-27.542,27.542
		v16.034c0,15.187,12.355,27.542,27.542,27.542s27.542-12.355,27.542-27.542v-12.026
		C199.364,227.807,196.006,224.449,191.864,224.449z"/>
	<path d="M360.223,224.449c-4.142,0-7.5,3.358-7.5,7.5v12.026c0,6.916-5.626,12.542-12.542,12.542s-12.543-5.626-12.543-12.542
		v-16.034c0-6.916,5.627-12.542,12.543-12.542c4.142,0,7.5-3.358,7.5-7.5s-3.358-7.5-7.5-7.5c-15.187,0-27.543,12.355-27.543,27.542
		v16.034c0,15.187,12.356,27.542,27.543,27.542s27.542-12.355,27.542-27.542v-12.026
		C367.723,227.807,364.365,224.449,360.223,224.449z"/>
	<path d="M448.302,87.05c-2.736-3.109-7.476-3.411-10.585-0.675c-3.109,2.737-3.412,7.476-0.675,10.585
		c24.457,27.788,41.884,60.392,51.441,95.393h-62.529c-1.209-2.144-2.663-4.159-4.362-5.984c-4.936-5.301-11.573-8.717-18.676-9.729
		c-7.221-4.323-41.486-23.676-89.501-32.273c-4.075-0.728-7.975,1.984-8.705,6.061c-0.73,4.077,1.984,7.975,6.061,8.705
		c23.019,4.121,42.867,10.969,57.639,17.186h-62.555c-8.728,0-17.144,3.664-23.092,10.051c-3.076,3.304-5.371,7.218-6.791,11.428
		c-5.996-3.511-12.89-5.445-19.999-5.445c-7.118,0-14.007,1.935-19.999,5.445c-1.42-4.211-3.714-8.125-6.791-11.428
		c-5.947-6.388-14.364-10.051-23.091-10.051h-62.597c14.752-6.21,34.595-13.052,57.681-17.186c4.077-0.73,6.791-4.627,6.061-8.705
		c-0.73-4.078-4.631-6.789-8.705-6.061c-48.016,8.597-82.281,27.95-89.502,32.273c-7.103,1.011-13.741,4.428-18.677,9.729
		c-1.699,1.825-3.153,3.84-4.362,5.983H23.482c10.916-40.059,32.11-76.81,62.085-106.785
		c43.603-43.603,101.543-68.626,163.146-70.459c61.335-1.83,120.402,19.43,166.328,59.852c3.109,2.737,7.848,2.436,10.585-0.675
		c2.737-3.109,2.435-7.848-0.675-10.585C376.162,20.757,313.413-1.815,248.268,0.115c-65.44,1.948-126.989,28.529-173.306,74.847
		C28.644,121.279,2.063,182.826,0.115,248.267C-1.824,313.414,20.757,376.162,63.7,424.951c1.482,1.685,3.552,2.545,5.633,2.545
		c1.76,0,3.527-0.616,4.952-1.87c3.109-2.737,3.412-7.476,0.675-10.585c-40.421-45.925-61.677-104.995-59.851-166.328
		c0.417-14.02,2.049-27.846,4.814-41.361h61.985c-0.016,0.919,0,1.841,0.066,2.765l2.985,41.799
		c2.069,28.957,26.43,51.641,55.461,51.641h46.16c24.845,0,45.694-19.413,47.464-44.195l3.085-43.192
		c4.65-5.55,11.553-8.818,18.843-8.818c7.279,0,14.193,3.268,18.843,8.814l3.085,43.195c1.77,24.782,22.619,44.195,47.464,44.195
		h46.16c29.031,0,53.393-22.684,55.461-51.641l2.986-41.799c0.066-0.923,0.082-1.845,0.066-2.765h62.037
		c3.735,18.214,5.385,36.966,4.82,55.935c-1.833,61.603-26.856,119.543-70.459,163.146
		c-43.603,43.603-101.542,68.626-163.146,70.459c-61.329,1.826-120.402-19.43-166.328-59.851c-3.108-2.736-7.848-2.435-10.585,0.675
		c-2.737,3.109-2.435,7.848,0.675,10.585c46.854,41.239,106.58,63.7,168.942,63.7c2.576,0,5.158-0.039,7.742-0.116
		c65.441-1.948,126.989-28.529,173.306-74.846c46.318-46.317,72.899-107.866,74.847-173.306
		C513.826,198.588,491.245,135.84,448.302,87.05z M219.083,258.294c-1.212,16.97-15.489,30.264-32.502,30.264h-46.16
		c-21.199,0-38.988-16.564-40.499-37.709l-2.985-41.799c-0.331-4.633,1.23-9.058,4.396-12.458c3.166-3.4,7.468-5.272,12.113-5.272
		h92.646c4.646,0,8.947,1.873,12.113,5.272c3.166,3.4,4.727,7.824,4.396,12.458L219.083,258.294z M415.009,209.049l-2.986,41.799
		c-1.51,21.146-19.299,37.709-40.499,37.709h-46.16c-17.014,0-31.291-13.293-32.502-30.264l-3.518-49.245
		c-0.331-4.633,1.23-9.058,4.396-12.458c3.166-3.4,7.468-5.272,12.114-5.272H398.5c4.646,0,8.947,1.873,12.113,5.272
		C413.779,199.991,415.34,204.415,415.009,209.049z"/>
	<path d="M231.921,415.796h8.017c6.191,0,11.828-2.407,16.034-6.33c4.206,3.923,9.843,6.33,16.034,6.33h8.017
		c12.977,0,23.534-10.558,23.534-23.534v-16.215c21.426-7.203,40.353-19.201,54.243-34.943c2.74-3.106,2.444-7.845-0.662-10.586
		c-3.106-2.74-7.845-2.445-10.586,0.662c-20.76,23.529-54.612,37.576-90.552,37.576s-69.791-14.047-90.553-37.577
		c-2.74-3.105-7.479-3.401-10.586-0.662c-3.105,2.741-3.402,7.48-0.661,10.586c13.878,15.728,32.784,27.718,54.186,34.922v16.235
		C208.387,405.239,218.944,415.796,231.921,415.796z M239.938,400.796h-8.017c-4.706,0-8.534-3.829-8.534-8.534v-12.066
		c8.148,1.805,16.549,2.95,25.085,3.374v8.692C248.472,396.968,244.644,400.796,239.938,400.796z M288.558,392.262
		c0,4.706-3.829,8.534-8.534,8.534h-8.017c-4.706,0-8.534-3.829-8.534-8.534v-8.69c8.536-0.42,16.937-1.562,25.085-3.364V392.262z"
		/>
</g>
<g>
</g>
<g>
</g>
<g>
</g>
<g>
</g>
<g>
</g>
<g>
</g>
<g>
</g>
<g>
</g>
<g>
</g>
<g>
</g>
<g>
</g>
<g>
</g>
<g>
</g>
<g>
</g>
<g>
</g>
</svg>
