<?xml version="1.0" encoding="iso-8859-1"?>
<!-- Generator: Adobe Illustrator 19.0.0, SVG Export Plug-In . SVG Version: 6.00 Build 0)  -->
<svg version="1.1" id="Capa_1" xmlns="http://www.w3.org/2000/svg" xmlns:xlink="http://www.w3.org/1999/xlink" x="0px" y="0px"
	 viewBox="0 0 512.003 512.003" style="enable-background:new 0 0 512.003 512.003;" xml:space="preserve">
<g>
	<path d="M15.108,248.714c1.833-61.604,26.857-119.543,70.459-163.146c43.603-43.603,101.543-68.626,163.146-70.459
		c61.332-1.83,120.402,19.43,166.328,59.852c3.109,2.737,7.849,2.436,10.585-0.675c2.737-3.109,2.435-7.848-0.675-10.585
		C376.162,20.757,313.409-1.815,248.268,0.115c-65.44,1.948-126.989,28.529-173.306,74.847
		C28.644,121.279,2.063,182.826,0.115,248.267C-1.824,313.414,20.757,376.162,63.7,424.951c1.482,1.685,3.552,2.545,5.633,2.545
		c1.76,0,3.527-0.616,4.952-1.87c3.109-2.737,3.412-7.476,0.675-10.585C34.538,369.116,13.283,310.046,15.108,248.714z"/>
	<path d="M448.302,87.05c-2.736-3.109-7.476-3.411-10.585-0.675c-3.109,2.737-3.412,7.476-0.675,10.585
		c40.421,45.926,61.677,104.995,59.852,166.328c-1.833,61.603-26.856,119.543-70.459,163.146
		c-43.603,43.603-101.542,68.626-163.146,70.459c-61.334,1.826-120.402-19.43-166.328-59.851c-3.108-2.736-7.848-2.435-10.585,0.675
		c-2.737,3.109-2.435,7.848,0.675,10.585c46.854,41.239,106.58,63.7,168.942,63.7c2.576,0,5.158-0.039,7.742-0.116
		c65.441-1.948,126.989-28.529,173.306-74.846c46.318-46.317,72.899-107.866,74.847-173.306
		C513.826,198.588,491.245,135.84,448.302,87.05z"/>
	<path d="M318.023,212.626c6.76-8.41,16.317-13.233,26.223-13.233s19.463,4.823,26.223,13.233c1.482,1.843,3.656,2.802,5.851,2.802
		c1.648,0,3.309-0.542,4.694-1.655c3.229-2.595,3.742-7.316,1.147-10.544c-9.622-11.97-23.44-18.835-37.914-18.835
		s-28.292,6.865-37.914,18.835c-2.595,3.229-2.082,7.949,1.147,10.544C310.707,216.367,315.429,215.854,318.023,212.626z"/>
	<path d="M135.769,215.428c2.194,0,4.369-0.958,5.851-2.802c6.76-8.41,16.317-13.233,26.223-13.233s19.463,4.823,26.222,13.233
		c2.594,3.228,7.314,3.742,10.544,1.147c3.229-2.595,3.742-7.315,1.147-10.544c-9.621-11.97-23.44-18.835-37.914-18.835
		c-14.473,0-28.292,6.865-37.914,18.835c-2.595,3.229-2.082,7.949,1.147,10.544C132.461,214.886,134.12,215.428,135.769,215.428z"/>
	<path d="M88.217,328.184c0,30.659,24.943,55.603,55.603,55.603h224.478c30.659,0,55.603-24.943,55.603-55.603
		s-24.943-55.602-55.603-55.602H143.82C113.161,272.582,88.217,297.525,88.217,328.184z M368.297,368.786H143.82
		c-19.825,0-36.367-14.287-39.897-33.103h24.38v8.533c0,4.142,3.358,7.5,7.5,7.5s7.5-3.358,7.5-7.5v-8.533h25.084v8.533
		c0,4.142,3.358,7.5,7.5,7.5s7.5-3.358,7.5-7.5v-8.533h25.085v8.533c0,4.142,3.358,7.5,7.5,7.5s7.5-3.358,7.5-7.5v-8.533h25.085
		v8.533c0,4.142,3.358,7.5,7.5,7.5c4.142,0,7.5-3.358,7.5-7.5v-8.533h25.085v8.533c0,4.142,3.358,7.5,7.5,7.5s7.5-3.358,7.5-7.5
		v-8.533h25.085v8.533c0,4.142,3.358,7.5,7.5,7.5s7.5-3.358,7.5-7.5v-8.533h25.086v8.533c0,4.142,3.358,7.5,7.5,7.5
		s7.5-3.358,7.5-7.5v-8.533h24.38C404.664,354.5,388.123,368.786,368.297,368.786z M143.82,287.582h224.478
		c19.825,0,36.367,14.286,39.897,33.102h-24.38v-8.535c0-4.142-3.358-7.5-7.5-7.5s-7.5,3.358-7.5,7.5v8.535h-25.086v-8.535
		c0-4.142-3.358-7.5-7.5-7.5s-7.5,3.358-7.5,7.5v8.535h-25.085v-8.535c0-4.142-3.358-7.5-7.5-7.5s-7.5,3.358-7.5,7.5v8.535h-25.085
		v-8.535c0-4.142-3.358-7.5-7.5-7.5c-4.142,0-7.5,3.358-7.5,7.5v8.535h-25.085v-8.535c0-4.142-3.358-7.5-7.5-7.5s-7.5,3.358-7.5,7.5
		v8.535h-25.085v-8.535c0-4.142-3.358-7.5-7.5-7.5s-7.5,3.358-7.5,7.5v8.535h-25.084v-8.535c0-4.142-3.358-7.5-7.5-7.5
		s-7.5,3.358-7.5,7.5v8.535h-24.38C107.453,301.868,123.995,287.582,143.82,287.582z"/>
</g>
<g>
</g>
<g>
</g>
<g>
</g>
<g>
</g>
<g>
</g>
<g>
</g>
<g>
</g>
<g>
</g>
<g>
</g>
<g>
</g>
<g>
</g>
<g>
</g>
<g>
</g>
<g>
</g>
<g>
</g>
</svg>
