<?xml version="1.0" encoding="iso-8859-1"?>
<!-- Generator: Adobe Illustrator 19.0.0, SVG Export Plug-In . SVG Version: 6.00 Build 0)  -->
<svg version="1.1" id="Capa_1" xmlns="http://www.w3.org/2000/svg" xmlns:xlink="http://www.w3.org/1999/xlink" x="0px" y="0px"
	 viewBox="0 0 512.003 512.003" style="enable-background:new 0 0 512.003 512.003;" xml:space="preserve">
<g>
	<path d="M15.108,248.714c1.833-61.604,26.857-119.543,70.459-163.146c43.603-43.603,101.543-68.626,163.146-70.459
		c61.333-1.832,120.402,19.43,166.328,59.852c3.109,2.737,7.849,2.436,10.585-0.675c2.737-3.109,2.435-7.848-0.675-10.585
		C376.161,20.757,313.411-1.817,248.268,0.115c-65.44,1.948-126.989,28.529-173.306,74.847
		C28.644,121.279,2.063,182.827,0.115,248.267C-1.824,313.414,20.757,376.162,63.7,424.952c1.482,1.685,3.552,2.545,5.633,2.545
		c1.76,0,3.527-0.616,4.952-1.87c3.109-2.737,3.412-7.476,0.675-10.585C34.538,369.116,13.283,310.046,15.108,248.714z"/>
	<path d="M448.302,87.05c-2.736-3.109-7.476-3.412-10.585-0.675s-3.412,7.476-0.675,10.585
		c40.421,45.926,61.677,104.995,59.852,166.328c-1.833,61.603-26.856,119.543-70.459,163.146
		c-43.603,43.603-101.542,68.626-163.146,70.459c-61.338,1.83-120.402-19.43-166.328-59.851c-3.108-2.736-7.848-2.435-10.585,0.675
		c-2.737,3.109-2.435,7.848,0.675,10.585c46.854,41.239,106.58,63.7,168.942,63.7c2.576,0,5.158-0.039,7.742-0.116
		c65.441-1.948,126.989-28.529,173.306-74.846c46.318-46.317,72.899-107.866,74.847-173.306
		C513.826,198.588,491.245,135.84,448.302,87.05z"/>
	<path d="M111.672,167.327c1.276,0,2.569-0.326,3.752-1.012c0.282-0.164,28.695-16.426,69.609-23.14
		c4.088-0.671,6.857-4.528,6.187-8.615c-0.671-4.088-4.529-6.854-8.616-6.187c-43.597,7.155-73.449,24.239-74.698,24.962
		c-3.584,2.076-4.807,6.665-2.73,10.249C106.566,165.985,109.084,167.327,111.672,167.327z"/>
	<path d="M396.526,166.318c1.182,0.684,2.472,1.008,3.746,1.008c2.588,0,5.106-1.341,6.497-3.742
		c2.076-3.584,0.854-8.173-2.73-10.249c-1.25-0.724-31.101-17.808-74.698-24.962c-4.091-0.668-7.945,2.099-8.616,6.186
		c-0.671,4.088,2.099,7.945,6.186,8.616C367.653,149.861,396.242,166.155,396.526,166.318z"/>
	<path d="M218.805,383.192c11.666-4.926,24.171-7.423,37.167-7.423c12.992,0,25.497,2.499,37.168,7.426
		c0.953,0.402,1.941,0.593,2.914,0.593c2.924,0,5.704-1.721,6.913-4.584c1.611-3.816-0.176-8.216-3.992-9.827
		c-13.528-5.712-27.996-8.608-43.003-8.608c-15.012,0-29.48,2.895-43.002,8.605c-3.816,1.611-5.603,6.011-3.992,9.827
		C210.589,383.016,214.986,384.803,218.805,383.192z"/>
	<path d="M159.768,319.649c35.08,0,63.62-28.54,63.62-63.619c0-35.08-28.54-63.62-63.62-63.62s-63.62,28.54-63.62,63.62
		C96.148,291.109,124.688,319.649,159.768,319.649z M159.768,207.41c26.809,0,48.62,21.811,48.62,48.62
		c0,26.809-21.811,48.619-48.62,48.619s-48.62-21.811-48.62-48.619C111.148,229.221,132.959,207.41,159.768,207.41z"/>
	<path d="M352.177,319.649c35.08,0,63.62-28.54,63.62-63.619c0-35.08-28.54-63.62-63.62-63.62c-35.08,0-63.619,28.54-63.619,63.62
		C288.558,291.109,317.097,319.649,352.177,319.649z M352.177,207.41c26.809,0,48.62,21.811,48.62,48.62
		c0,26.809-21.811,48.619-48.62,48.619c-26.809,0-48.619-21.811-48.619-48.619C303.558,229.221,325.368,207.41,352.177,207.41z"/>
	<path d="M159.768,267.538c4.142,0,7.5-3.358,7.5-7.5v-8.017c0-4.142-3.358-7.5-7.5-7.5s-7.5,3.358-7.5,7.5v8.017
		C152.268,264.18,155.626,267.538,159.768,267.538z"/>
	<path d="M352.177,267.538c4.142,0,7.5-3.358,7.5-7.5v-8.017c0-4.142-3.358-7.5-7.5-7.5s-7.5,3.358-7.5,7.5v8.017
		C344.677,264.18,348.035,267.538,352.177,267.538z"/>
</g>
<g>
</g>
<g>
</g>
<g>
</g>
<g>
</g>
<g>
</g>
<g>
</g>
<g>
</g>
<g>
</g>
<g>
</g>
<g>
</g>
<g>
</g>
<g>
</g>
<g>
</g>
<g>
</g>
<g>
</g>
</svg>
