<?xml version="1.0" encoding="iso-8859-1"?>
<!-- Generator: Adobe Illustrator 19.0.0, SVG Export Plug-In . SVG Version: 6.00 Build 0)  -->
<svg version="1.1" id="Capa_1" xmlns="http://www.w3.org/2000/svg" xmlns:xlink="http://www.w3.org/1999/xlink" x="0px" y="0px"
	 viewBox="0 0 512.003 512.003" style="enable-background:new 0 0 512.003 512.003;" xml:space="preserve">
<g>
	<path d="M171.822,191.348c4.142,0,7.5-3.358,7.5-7.5s-3.358-7.5-7.5-7.5c-15.187,0-27.542,12.355-27.542,27.542v16.034
		c0,15.187,12.355,27.542,27.542,27.542s27.542-12.355,27.542-27.542v-12.026c0-4.142-3.358-7.5-7.5-7.5s-7.5,3.358-7.5,7.5v12.026
		c0,6.916-5.626,12.542-12.542,12.542s-12.542-5.626-12.542-12.542v-16.034C159.279,196.975,164.906,191.348,171.822,191.348z"/>
	<path d="M340.18,191.348c4.142,0,7.5-3.358,7.5-7.5s-3.358-7.5-7.5-7.5c-15.187,0-27.543,12.355-27.543,27.542v16.034
		c0,15.187,12.356,27.542,27.543,27.542s27.542-12.355,27.542-27.542v-12.026c0-4.142-3.358-7.5-7.5-7.5s-7.5,3.358-7.5,7.5v12.026
		c0,6.916-5.626,12.542-12.542,12.542s-12.543-5.626-12.543-12.542v-16.034C327.637,196.975,333.264,191.348,340.18,191.348z"/>
	<path d="M15.108,248.714c1.833-61.604,26.857-119.543,70.459-163.146c43.603-43.603,101.543-68.626,163.146-70.459
		c61.335-1.824,120.402,19.43,166.328,59.852c3.109,2.736,7.848,2.435,10.585-0.675s2.435-7.849-0.675-10.585
		C376.162,20.758,313.418-1.827,248.268,0.116c-65.44,1.947-126.989,28.528-173.306,74.846
		C28.644,121.279,2.063,182.827,0.115,248.268C-1.824,313.415,20.757,376.163,63.7,424.952c1.482,1.685,3.552,2.545,5.633,2.545
		c1.76,0,3.527-0.616,4.952-1.87c3.109-2.737,3.412-7.476,0.675-10.585C34.538,369.117,13.283,310.047,15.108,248.714z"/>
	<path d="M448.302,87.051c-2.736-3.109-7.476-3.412-10.585-0.675c-3.109,2.736-3.412,7.476-0.675,10.585
		c40.421,45.925,61.677,104.995,59.852,166.327c-1.833,61.604-26.856,119.543-70.459,163.146s-101.542,68.625-163.146,70.459
		c-61.329,1.824-120.402-19.43-166.328-59.852c-3.108-2.736-7.848-2.435-10.585,0.675c-2.737,3.109-2.435,7.849,0.675,10.585
		c46.854,41.239,106.58,63.7,168.942,63.7c2.577,0,5.158-0.038,7.742-0.115c65.441-1.948,126.989-28.528,173.306-74.846
		c46.318-46.317,72.899-107.866,74.847-173.306C513.826,198.588,491.245,135.84,448.302,87.051z"/>
	<path d="M208.387,336.172v24.051c0,26.239,21.347,47.585,47.585,47.585c26.239,0,47.585-21.347,47.585-47.585v-24.051
		c0-26.239-21.347-47.585-47.585-47.585C229.734,288.587,208.387,309.934,208.387,336.172z M288.558,336.172v24.051
		c0,17.968-14.618,32.585-32.585,32.585c-17.967,0-32.585-14.618-32.585-32.585v-24.051c0-17.968,14.618-32.585,32.585-32.585
		C273.94,303.587,288.558,318.205,288.558,336.172z"/>
</g>
<g>
</g>
<g>
</g>
<g>
</g>
<g>
</g>
<g>
</g>
<g>
</g>
<g>
</g>
<g>
</g>
<g>
</g>
<g>
</g>
<g>
</g>
<g>
</g>
<g>
</g>
<g>
</g>
<g>
</g>
</svg>
