<?xml version="1.0" encoding="iso-8859-1"?>
<!-- Generator: Adobe Illustrator 19.0.0, SVG Export Plug-In . SVG Version: 6.00 Build 0)  -->
<svg version="1.1" id="Capa_1" xmlns="http://www.w3.org/2000/svg" xmlns:xlink="http://www.w3.org/1999/xlink" x="0px" y="0px"
	 viewBox="0 0 512.004 512.004" style="enable-background:new 0 0 512.004 512.004;" xml:space="preserve">
<g>
	<path d="M504.684,6.462c-5.77-3.558-13.14-2.981-18.341,1.434c-27.75,23.556-59.971,45.428-84.892,57.691
		c-1.753-1.219-3.511-2.419-5.278-3.58c-6.474-4.251-14.757-4.924-22.16-1.796c-4.621,1.953-9.406,3.885-14.224,5.741
		c-2.053,0.791-4.409,0.657-6.639-0.375c-30.646-14.197-63.373-21.395-97.272-21.395s-66.626,7.198-97.271,21.395
		c-2.229,1.032-4.586,1.167-6.639,0.375c-4.818-1.856-9.604-3.788-14.226-5.742c-7.401-3.127-15.685-2.455-22.159,1.797
		c-1.747,1.147-3.476,2.315-5.189,3.501C85.494,53.231,53.352,31.402,25.66,7.896C20.458,3.48,13.089,2.904,7.319,6.462
		c-5.778,3.564-8.47,10.152-6.858,16.785c6.001,24.7,22.435,68.448,44.679,107.686c-0.554,0.804-1.118,1.598-1.664,2.409
		c-5.192,7.716-5.256,17.766-0.162,25.603c1.276,1.963,2.578,3.928,3.907,5.893c1.791,2.648,2,5.976,0.559,8.902
		c-16.933,34.38-25.079,72.979-23.559,111.623c2.041,51.86,22.22,102.324,56.82,142.098c1.483,1.705,3.567,2.578,5.662,2.578
		c1.746,0,3.5-0.606,4.919-1.841c3.125-2.719,3.455-7.456,0.736-10.581c-32.367-37.206-51.242-84.384-53.149-132.843
		c-1.422-36.156,6.194-72.259,22.027-104.406c3.793-7.703,3.184-16.873-1.591-23.933c-1.277-1.888-2.529-3.776-3.755-5.663
		c-1.782-2.742-1.771-6.381,0.029-9.055c18.06-26.839,40.904-49.439,67.898-67.172c2.248-1.476,5.345-1.674,8.085-0.517
		c4.768,2.015,9.704,4.008,14.671,5.922c5.875,2.264,12.388,1.994,18.337-0.762c28.655-13.274,59.26-20.005,90.966-20.005
		s62.312,6.731,90.967,20.005c5.949,2.756,12.461,3.026,18.337,0.762c4.967-1.914,9.903-3.907,14.67-5.921
		c2.74-1.158,5.838-0.959,8.086,0.517c9.214,6.053,18.258,12.968,26.881,20.553c3.11,2.736,7.849,2.431,10.585-0.678
		c2.736-3.11,2.432-7.849-0.678-10.585c-3.236-2.847-6.532-5.6-9.872-8.262c24.842-13.182,55.015-34.017,81.196-56.241
		c0.183-0.155,0.387-0.331,0.759-0.102c0.23,0.142,0.225,0.199,0.157,0.477c-5.478,22.548-20.085,61.747-40.012,98.182
		c-2.846-3.593-5.817-7.161-8.914-10.685c-2.734-3.111-7.473-3.418-10.584-0.683c-3.111,2.734-3.417,7.473-0.683,10.584
		c7.084,8.062,13.498,16.343,19.063,24.612c1.799,2.673,1.811,6.312,0.029,9.054c-1.227,1.888-2.479,3.777-3.758,5.667
		c-4.773,7.057-5.382,16.224-1.59,23.923c14.731,29.909,22.201,62.094,22.201,95.661c0,58.47-22.924,113.289-64.549,154.36
		c-41.617,41.063-96.758,63.274-155.27,62.459c-50.542-0.677-99.765-19.616-138.601-53.326c-3.13-2.715-7.865-2.38-10.581,0.748
		c-2.715,3.128-2.38,7.865,0.748,10.581c41.508,36.03,94.152,56.271,148.233,56.997c1.073,0.014,2.137,0.021,3.208,0.021
		c61.357,0,119.065-23.652,162.798-66.803c44.504-43.911,69.014-102.523,69.014-165.037c0-35.885-7.989-70.299-23.745-102.289
		c-1.439-2.922-1.23-6.246,0.559-8.892c1.33-1.966,2.633-3.932,3.91-5.896c5.094-7.838,5.031-17.888-0.162-25.603
		c-0.499-0.741-1.013-1.482-1.524-2.223c22.298-39.286,38.776-83.133,44.786-107.872C513.154,16.615,510.462,10.026,504.684,6.462z
		 M54.914,117.642C35.056,81.276,20.502,42.203,15.037,19.706c-0.068-0.278-0.073-0.335,0.157-0.477
		c0.372-0.228,0.577-0.052,0.759,0.102C42.07,41.501,72.159,62.289,96.966,75.476C81.34,87.856,67.27,101.948,54.914,117.642z"/>
	<path d="M171.751,243.461c4.142,0,7.5-3.358,7.5-7.5s-3.358-7.5-7.5-7.5c-15.18,0-27.53,12.35-27.53,27.53v16.024
		c0,15.18,12.35,27.53,27.53,27.53s27.53-12.35,27.53-27.53v-12.018c0-4.142-3.358-7.5-7.5-7.5s-7.5,3.358-7.5,7.5v12.018
		c0,6.909-5.621,12.53-12.53,12.53s-12.53-5.621-12.53-12.53v-16.024C159.221,249.082,164.842,243.461,171.751,243.461z"/>
	<path d="M340.006,243.461c4.142,0,7.5-3.358,7.5-7.5s-3.358-7.5-7.5-7.5c-15.18,0-27.53,12.35-27.53,27.53v16.024
		c0,15.18,12.35,27.53,27.53,27.53s27.53-12.35,27.53-27.53v-12.018c0-4.142-3.358-7.5-7.5-7.5s-7.5,3.358-7.5,7.5v12.018
		c0,6.909-5.621,12.53-12.53,12.53s-12.53-5.621-12.53-12.53v-16.024C327.475,249.082,333.097,243.461,340.006,243.461z"/>
	<path d="M207.772,227.496c2.872,0,5.612-1.659,6.856-4.451c1.685-3.784-0.017-8.218-3.801-9.902l-72.109-32.106
		c-3.785-1.686-8.218,0.017-9.902,3.801c-1.685,3.784,0.017,8.218,3.801,9.902l72.109,32.106
		C205.718,227.287,206.753,227.496,207.772,227.496z"/>
	<path d="M382.883,184.838c-1.685-3.783-6.117-5.487-9.902-3.801l-72.109,32.106c-3.784,1.685-5.485,6.118-3.801,9.902
		c1.244,2.792,3.984,4.451,6.856,4.451c1.019,0,2.055-0.209,3.046-0.65l72.109-32.106
		C382.866,193.056,384.568,188.622,382.883,184.838z"/>
	<path d="M133.452,367.606c10.885,9.06,22.783,16.886,35.373,23.309c1.206,4.113,4.274,7.454,8.496,8.982
		c1.565,0.567,3.167,0.842,4.746,0.842c2.041,0,4.04-0.467,5.868-1.349c21.608,8.18,44.383,12.327,67.768,12.327
		c23.461,0,46.306-4.173,67.975-12.405c1.867,0.93,3.917,1.427,6.013,1.427c1.579,0,3.182-0.275,4.746-0.841
		c4.294-1.555,7.394-4.986,8.555-9.197c12.438-6.385,24.193-14.133,34.961-23.094c5.457-4.542,7.113-11.737,4.121-17.903
		c-3.28-6.761-11.044-10.321-18.883-8.653c-34.465,7.324-70.629,11.038-107.487,11.038c-36.861,0-73.025-3.714-107.488-11.039
		c-7.84-1.664-15.603,1.894-18.883,8.655C126.339,355.87,127.995,363.064,133.452,367.606z M183.257,383.501V362.3
		c5.331,0.715,10.687,1.359,16.072,1.914L183.257,383.501z M328.5,383.501l-16.102-19.322c5.395-0.559,10.762-1.207,16.102-1.927
		V383.501z M366.307,355.721c1.157-0.245,1.806,0.063,2.095,0.316c-0.015,0.013-0.03,0.026-0.046,0.039
		c-7.774,6.47-16.104,12.255-24.856,17.289v-13.359C351.172,358.743,358.78,357.321,366.307,355.721z M294.18,365.747l18.094,21.712
		c-18.142,6.138-37.122,9.256-56.572,9.256c-19.348,0-38.236-3.087-56.296-9.163l18.152-21.782
		c12.61,0.869,25.336,1.316,38.144,1.316C268.622,367.087,281.46,366.632,294.18,365.747z M145.096,355.721
		c7.642,1.624,15.369,3.065,23.161,4.344v13.513c-8.883-5.082-17.332-10.944-25.209-17.501c-0.016-0.014-0.031-0.026-0.046-0.039
		C143.291,355.784,143.939,355.476,145.096,355.721z"/>
</g>
<g>
</g>
<g>
</g>
<g>
</g>
<g>
</g>
<g>
</g>
<g>
</g>
<g>
</g>
<g>
</g>
<g>
</g>
<g>
</g>
<g>
</g>
<g>
</g>
<g>
</g>
<g>
</g>
<g>
</g>
</svg>
