<?xml version="1.0" encoding="iso-8859-1"?>
<!-- Generator: Adobe Illustrator 19.0.0, SVG Export Plug-In . SVG Version: 6.00 Build 0)  -->
<svg version="1.1" id="Capa_1" xmlns="http://www.w3.org/2000/svg" xmlns:xlink="http://www.w3.org/1999/xlink" x="0px" y="0px"
	 viewBox="0 0 511.984 511.984" style="enable-background:new 0 0 511.984 511.984;" xml:space="preserve">
<g>
	<path d="M440.359,331.597h-6.851c28.661-18.24,41.126-54.989,27.82-87.519c-7.241-17.709-20.945-31.536-38.588-38.934
		c-9.791-4.105-20.145-5.949-30.449-5.547c1.033-10.266-0.457-20.596-4.439-30.332c-6.434-15.731-18.605-28.013-34.271-34.584
		c-9.381-3.934-19.343-5.52-29.205-4.792c0.073-6.494-0.762-13.081-2.513-19.663c-9.165-34.449-38.531-57.355-61.552-70.505
		c-6.43-3.673-14.266-3.417-20.449,0.669c-6.151,4.064-9.444,11.13-8.593,18.44c1.954,16.781-4.012,27.894-18.236,33.973
		c-0.048,0.021-0.096,0.042-0.144,0.063l-36.201,16.376c-13.681,5.637-24.362,16.252-30.086,29.904
		c-5.743,13.695-5.809,28.806-0.186,42.545c2.115,5.174,5.013,9.994,8.54,14.288l-41.944,17.205
		c-15.726,6.43-28.005,18.601-34.576,34.271c-6.571,15.668-6.647,32.959-0.216,48.685c3.289,8.041,8.116,15.221,14.198,21.213
		l-47.915,19.561c-36.55,14.954-54.122,56.858-39.17,93.413c11.063,27.044,37.093,44.52,66.315,44.52h368.71
		c39.494,0,71.625-32.131,71.625-71.625S479.853,331.597,440.359,331.597z M440.359,459.847H122.391l64.304-26.247
		c3.835-1.565,5.675-5.943,4.109-9.778c-1.565-3.835-5.944-5.675-9.778-4.109l-87.958,35.902c-6.873,2.809-14.08,4.233-21.42,4.233
		c-23.105,0-43.686-13.816-52.432-35.198C7.396,395.749,21.287,362.62,50.177,350.8l104.635-42.716
		c5.221,13.153,18.064,22.482,33.054,22.482c19.605,0,35.555-15.95,35.555-35.555v-14.924l75.49-30.813
		c3.835-1.565,5.675-5.943,4.109-9.778c-1.565-3.835-5.944-5.674-9.778-4.109l-72.667,29.661
		c-5.43-12.7-18.046-21.622-32.708-21.622c-19.605,0-35.555,15.95-35.555,35.555v13.923l-44.319,18.093
		c-7.055-5.26-12.524-12.306-15.89-20.533c-4.915-12.018-4.856-25.231,0.165-37.205c5.021-11.975,14.404-21.274,26.428-26.19
		l68.009-27.896c3.833-1.572,5.665-5.953,4.093-9.785s-5.953-5.665-9.785-4.093l-11.271,4.623
		c-4.054-3.901-7.296-8.649-9.443-13.901c-4.106-10.033-4.058-21.066,0.135-31.066c4.193-10,12.029-17.77,22.065-21.875
		c0.084-0.035,0.168-0.07,0.251-0.108l36.252-16.4c20.223-8.675,29.87-26.24,27.166-49.468c-0.283-2.425,1.278-3.739,1.962-4.191
		c0.7-0.462,2.563-1.403,4.74-0.159c20.538,11.731,46.664,31.896,54.496,61.336c1.664,6.253,2.299,12.708,1.877,18.812
		c-1.463,0.48-2.919,0.996-4.358,1.586l-91.811,37.66c-3.833,1.572-5.665,5.953-4.093,9.785c1.572,3.832,5.953,5.664,9.785,4.093
		l91.807-37.659c12.019-4.922,25.231-4.868,37.204,0.154c11.972,5.021,21.272,14.408,26.189,26.43
		c3.539,8.651,4.506,17.911,2.857,26.992c-3.005,0.796-5.98,1.773-8.905,2.969l-42.614,17.394c-3.835,1.565-5.675,5.943-4.109,9.778
		c1.565,3.834,5.941,5.674,9.778,4.109l42.618-17.396c14.005-5.728,29.399-5.661,43.347,0.187
		c13.946,5.848,24.78,16.778,30.504,30.778c11.821,28.9-2.07,62.029-30.961,73.849l-58.958,24.065
		c-2.779-1.001-5.867-1.196-8.946-0.429c-29.741,7.404-60.949,11.158-92.757,11.158c-31.81,0-63.017-3.754-92.757-11.158h0
		c-6.815-1.697-13.694,1.281-17.11,7.413c-3.499,6.279-2.384,13.876,2.773,18.905c29.881,29.133,67.915,45.178,107.095,45.178
		s77.213-16.044,107.095-45.178c3.803-3.708,5.4-8.813,4.577-13.757l32.353-13.206h40.511c31.223,0,56.625,25.402,56.625,56.625
		S471.582,459.847,440.359,459.847z M167.312,295.011V278.98c0-11.334,9.221-20.555,20.555-20.555s20.555,9.221,20.555,20.555
		v16.031c0,11.334-9.221,20.555-20.555,20.555S167.312,306.345,167.312,295.011z M352.446,362.819
		c-27.064,26.387-61.379,40.918-96.624,40.918s-69.56-14.532-96.623-40.918c-0.285-0.277-0.267-0.416-0.251-0.539
		c0.034-0.263,0.199-0.485,0.24-0.518c0.004,0,0.011-0.001,0.021-0.001c0.038,0,0.116,0.006,0.232,0.036
		c30.924,7.699,63.351,11.602,96.381,11.602c33.029,0,65.456-3.904,96.381-11.603c0.147-0.037,0.232-0.037,0.215-0.047
		c0.079,0.045,0.245,0.268,0.278,0.531C352.713,362.403,352.731,362.542,352.446,362.819z"/>
	<path d="M340.164,330.566c19.604,0,35.554-15.95,35.554-35.555V278.98c0-19.605-15.95-35.555-35.555-35.555
		c-19.604,0-35.554,15.95-35.554,35.555v16.031C304.609,314.616,320.559,330.566,340.164,330.566z M319.609,278.98
		c0-11.334,9.221-20.555,20.555-20.555c11.333,0,20.554,9.221,20.554,20.555v16.031c0,11.334-9.221,20.555-20.554,20.555h0
		c-11.333,0-20.554-9.221-20.554-20.555V278.98z"/>
	<path d="M340.163,298.503c4.142,0,7.5-3.358,7.5-7.5v-8.016c0-4.142-3.358-7.5-7.5-7.5s-7.5,3.358-7.5,7.5v8.016
		C332.663,295.145,336.021,298.503,340.163,298.503z"/>
	<path d="M195.366,291.003v-8.016c0-4.142-3.358-7.5-7.5-7.5s-7.5,3.358-7.5,7.5v8.016c0,4.142,3.358,7.5,7.5,7.5
		S195.366,295.145,195.366,291.003z"/>
</g>
<g>
</g>
<g>
</g>
<g>
</g>
<g>
</g>
<g>
</g>
<g>
</g>
<g>
</g>
<g>
</g>
<g>
</g>
<g>
</g>
<g>
</g>
<g>
</g>
<g>
</g>
<g>
</g>
<g>
</g>
</svg>
