<?xml version="1.0" encoding="iso-8859-1"?>
<!-- Generator: Adobe Illustrator 19.0.0, SVG Export Plug-In . SVG Version: 6.00 Build 0)  -->
<svg version="1.1" id="Capa_1" xmlns="http://www.w3.org/2000/svg" xmlns:xlink="http://www.w3.org/1999/xlink" x="0px" y="0px"
	 viewBox="0 0 512.003 512.003" style="enable-background:new 0 0 512.003 512.003;" xml:space="preserve">
<g>
	<path d="M181.35,373.318c17.079-18.563,44.986-29.646,74.651-29.646s57.572,11.083,74.651,29.646
		c1.479,1.607,3.497,2.422,5.521,2.422c1.815,0,3.635-0.655,5.076-1.981c3.048-2.804,3.246-7.549,0.441-10.597
		c-19.87-21.596-51.904-34.49-85.69-34.49s-65.82,12.894-85.69,34.49c-2.804,3.048-2.607,7.793,0.441,10.597
		C173.801,376.564,178.545,376.366,181.35,373.318z"/>
	<path d="M15.108,248.714c1.833-61.604,26.857-119.543,70.459-163.146c43.603-43.603,101.543-68.626,163.146-70.459
		c61.333-1.824,120.402,19.43,166.328,59.852c3.109,2.736,7.849,2.435,10.585-0.675c2.737-3.109,2.435-7.849-0.675-10.585
		C376.162,20.758,313.416-1.827,248.268,0.116c-65.44,1.947-126.989,28.528-173.306,74.846
		C28.644,121.279,2.063,182.827,0.115,248.268C-1.824,313.415,20.757,376.163,63.7,424.952c1.482,1.685,3.552,2.545,5.633,2.545
		c1.76,0,3.527-0.616,4.952-1.87c3.109-2.737,3.412-7.476,0.675-10.585C34.538,369.117,13.283,310.047,15.108,248.714z"/>
	<path d="M448.302,87.051c-2.736-3.109-7.476-3.412-10.585-0.675c-3.109,2.736-3.412,7.476-0.675,10.585
		c40.421,45.925,61.677,104.995,59.852,166.327c-1.833,61.604-26.856,119.543-70.459,163.146s-101.542,68.625-163.146,70.459
		c-61.338,1.824-120.402-19.43-166.328-59.852c-3.108-2.736-7.848-2.435-10.585,0.675s-2.435,7.849,0.675,10.585
		c46.854,41.239,106.58,63.7,168.942,63.7c2.577,0,5.158-0.038,7.742-0.115c65.441-1.948,126.989-28.528,173.306-74.846
		c46.318-46.317,72.899-107.866,74.847-173.306C513.826,198.588,491.245,135.84,448.302,87.051z"/>
	<path d="M134.479,261.305c1.464,1.464,3.384,2.197,5.303,2.197c1.919,0,3.839-0.732,5.303-2.197l26.765-26.765l26.765,26.765
		c1.464,1.464,3.384,2.197,5.303,2.197s3.839-0.732,5.303-2.197c2.929-2.929,2.929-7.677,0-10.606l-26.765-26.765l26.765-26.765
		c2.929-2.929,2.929-7.678,0-10.606c-2.928-2.929-7.677-2.93-10.606,0l-26.765,26.765l-26.765-26.765
		c-2.929-2.93-7.678-2.93-10.606,0c-2.929,2.929-2.929,7.677,0,10.606l26.765,26.765l-26.765,26.765
		C131.55,253.627,131.55,258.375,134.479,261.305z"/>
	<path d="M377.58,186.562c-2.929-2.93-7.678-2.93-10.606,0l-26.765,26.765l-26.765-26.765c-2.928-2.929-7.677-2.93-10.606,0
		c-2.929,2.929-2.929,7.677,0,10.606l26.765,26.765l-26.765,26.765c-2.929,2.929-2.929,7.677,0,10.606
		c1.464,1.464,3.384,2.197,5.303,2.197s3.839-0.732,5.303-2.197l26.765-26.765l26.765,26.765c1.464,1.464,3.384,2.197,5.303,2.197
		c1.919,0,3.839-0.732,5.303-2.197c2.929-2.929,2.929-7.677,0-10.606l-26.765-26.765l26.765-26.765
		C380.509,194.239,380.509,189.491,377.58,186.562z"/>
</g>
<g>
</g>
<g>
</g>
<g>
</g>
<g>
</g>
<g>
</g>
<g>
</g>
<g>
</g>
<g>
</g>
<g>
</g>
<g>
</g>
<g>
</g>
<g>
</g>
<g>
</g>
<g>
</g>
<g>
</g>
</svg>
