<?xml version="1.0" encoding="iso-8859-1"?>
<!-- Generator: Adobe Illustrator 19.0.0, SVG Export Plug-In . SVG Version: 6.00 Build 0)  -->
<svg version="1.1" id="Capa_1" xmlns="http://www.w3.org/2000/svg" xmlns:xlink="http://www.w3.org/1999/xlink" x="0px" y="0px"
	 viewBox="0 0 512.003 512.003" style="enable-background:new 0 0 512.003 512.003;" xml:space="preserve">
<g>
	<path d="M15.109,248.714c1.833-61.604,26.857-119.543,70.459-163.146c43.603-43.603,101.543-68.626,163.146-70.459
		c61.332-1.834,120.402,19.43,166.328,59.852c3.109,2.737,7.849,2.436,10.585-0.675c2.737-3.109,2.435-7.848-0.675-10.585
		C376.162,20.758,313.409-1.821,248.268,0.115c-65.44,1.948-126.989,28.529-173.306,74.847
		C28.644,121.279,2.063,182.827,0.115,248.268C-1.824,313.415,20.757,376.162,63.7,424.952c1.482,1.685,3.552,2.545,5.633,2.545
		c1.76,0,3.527-0.616,4.952-1.87c3.109-2.737,3.412-7.476,0.675-10.585C34.538,369.116,13.283,310.047,15.109,248.714z"/>
	<path d="M448.302,87.05c-2.736-3.109-7.476-3.411-10.585-0.675c-3.109,2.737-3.412,7.476-0.675,10.585
		c40.421,45.926,61.677,104.995,59.852,166.328c-1.833,61.603-26.856,119.543-70.459,163.146
		c-43.603,43.603-101.542,68.626-163.146,70.459c-61.334,1.824-120.402-19.43-166.328-59.851c-3.108-2.736-7.848-2.435-10.585,0.675
		c-2.737,3.109-2.435,7.848,0.675,10.585c46.854,41.239,106.58,63.7,168.942,63.7c2.576,0,5.158-0.039,7.742-0.116
		c65.441-1.948,126.989-28.529,173.306-74.846c46.318-46.317,72.899-107.866,74.847-173.306
		C513.826,198.588,491.245,135.841,448.302,87.05z"/>
	<path d="M376.317,223.387c1.795,0,3.596-0.641,5.031-1.94c3.071-2.78,3.306-7.523,0.526-10.594
		c-10.645-11.757-25.836-18.5-41.68-18.5c-15.844,0-31.036,6.743-41.68,18.5c-2.78,3.071-2.544,7.813,0.526,10.594
		c3.071,2.779,7.813,2.544,10.594-0.526c7.806-8.622,18.945-13.567,30.56-13.567c11.615,0,22.753,4.945,30.56,13.567
		C372.234,222.556,374.272,223.387,376.317,223.387z"/>
	<path d="M202.305,220.916c1.48,1.639,3.52,2.472,5.567,2.472c1.792,0,3.591-0.639,5.026-1.935c3.073-2.777,3.313-7.52,0.537-10.593
		c-10.626-11.761-25.793-18.506-41.613-18.506s-30.987,6.745-41.613,18.506c-2.777,3.074-2.537,7.816,0.537,10.593
		c3.074,2.777,7.816,2.536,10.593-0.537c7.788-8.619,18.898-13.563,30.483-13.563S194.517,212.297,202.305,220.916z"/>
	<path d="M256.029,375.768c41.978,0,82.237-15.155,110.454-41.579c4.523-4.236,5.515-10.75,2.468-16.209
		c-3.059-5.479-9.147-8.063-15.148-6.43c-27.325,7.436-62.048,11.531-97.773,11.531c-35.724,0-70.447-4.095-97.772-11.531
		c-6.004-1.636-12.09,0.951-15.148,6.43c-3.047,5.458-2.055,11.973,2.468,16.209C173.794,360.613,214.052,375.768,256.029,375.768z
		 M256.029,338.082c34.238,0,67.709-3.663,95.15-10.365c-25.124,21.077-59.397,33.052-95.15,33.052
		c-35.753,0-70.026-11.975-95.149-33.052C188.321,334.419,221.792,338.082,256.029,338.082z"/>
</g>
<g>
</g>
<g>
</g>
<g>
</g>
<g>
</g>
<g>
</g>
<g>
</g>
<g>
</g>
<g>
</g>
<g>
</g>
<g>
</g>
<g>
</g>
<g>
</g>
<g>
</g>
<g>
</g>
<g>
</g>
</svg>
