<?xml version="1.0" encoding="iso-8859-1"?>
<!-- Generator: Adobe Illustrator 19.0.0, SVG Export Plug-In . SVG Version: 6.00 Build 0)  -->
<svg version="1.1" id="Capa_1" xmlns="http://www.w3.org/2000/svg" xmlns:xlink="http://www.w3.org/1999/xlink" x="0px" y="0px"
	 viewBox="0 0 511.985 511.985" style="enable-background:new 0 0 511.985 511.985;" xml:space="preserve">
<g>
	<path d="M471.883,96.686c-5.156-3.817-11.64-4.93-17.789-3.051c-21.957,6.704-46.094,12.247-71.825,16.502l-25.911-91.256
		c-3.826-13.479-17.973-21.578-31.536-18.057L268.22,15.525c-7.998,2.078-16.453,2.078-24.453,0L187.165,0.824
		c-13.56-3.522-27.709,4.578-31.536,18.057l-25.911,91.259c-25.731-4.256-49.871-9.802-71.826-16.505
		c-6.149-1.877-12.633-0.765-17.789,3.051c-5.165,3.823-8.127,9.712-8.127,16.157c0,6.777,3.32,13.037,8.88,16.744
		c19.316,12.878,40.403,23.868,62.766,32.86c-35.94,38.574-55.607,88.418-55.607,141.56c0,49.35,17.635,97.222,49.657,134.796
		c1.484,1.741,3.591,2.635,5.712,2.635c1.72,0,3.45-0.588,4.861-1.792c3.152-2.687,3.53-7.42,0.844-10.573
		c-29.711-34.863-46.074-79.279-46.074-125.067c0-51.379,19.815-99.435,55.879-135.801c42.655,15.039,89.38,23.014,137.1,23.014
		c79.122,0,155.525-21.888,215.137-61.632c5.56-3.708,8.88-9.967,8.88-16.744C480.01,106.398,477.048,100.509,471.883,96.686z
		 M141.638,123.072l28.42-100.094c1.362-4.798,5.816-7.984,10.613-7.984c0.901,0,1.815,0.113,2.723,0.349l56.602,14.702
		c10.466,2.719,21.53,2.718,31.995,0l56.603-14.702c5.738-1.492,11.717,1.936,13.335,7.635l28.415,100.074
		c0.683,2.404-0.633,4.901-2.934,5.566c-35.643,10.302-73.129,15.525-111.417,15.525c-38.322,0-75.81-5.216-111.421-15.505
		C142.271,127.973,140.956,125.477,141.638,123.072z M462.808,117.106c-57.175,38.12-130.623,59.113-206.816,59.113
		s-149.641-20.993-206.816-59.113c-1.378-0.919-2.201-2.513-2.201-4.264c0-1.641,0.748-3.135,2.052-4.101
		c0.76-0.563,2.353-1.411,4.484-0.761c22.356,6.826,46.872,12.476,72.954,16.822c0.195,8.286,5.656,15.852,13.943,18.246
		c36.964,10.679,75.853,16.094,115.584,16.094c39.698,0,78.586-5.422,115.582-16.115c8.28-2.393,13.737-9.949,13.941-18.226
		c26.084-4.346,50.6-9.994,72.959-16.821c2.128-0.647,3.723,0.198,4.484,0.761c1.304,0.965,2.052,2.46,2.052,4.101
		C465.01,114.593,464.187,116.187,462.808,117.106z"/>
	<path d="M411.868,177.738c-3.312,2.488-3.979,7.189-1.492,10.501c25.249,33.609,38.595,73.641,38.595,115.766
		c0,106.409-86.57,192.979-192.979,192.979c-45.787,0-90.204-16.363-125.067-46.074c-3.153-2.686-7.886-2.309-10.573,0.844
		c-2.687,3.153-2.309,7.886,0.844,10.573c37.576,32.022,85.447,49.657,134.797,49.657c114.68,0,207.979-93.299,207.979-207.979
		c0-45.401-14.386-88.548-41.602-124.776C419.882,175.918,415.18,175.25,411.868,177.738z"/>
	<path d="M179.81,255.372c4.142,0,7.5-3.358,7.5-7.5s-3.358-7.5-7.5-7.5c-15.19,0-27.548,12.358-27.548,27.548v16.039
		c0,15.19,12.358,27.548,27.548,27.548s27.548-12.358,27.548-27.548v-12.029c0-4.142-3.358-7.5-7.5-7.5s-7.5,3.358-7.5,7.5v12.029
		c0,6.919-5.629,12.548-12.548,12.548s-12.548-5.629-12.548-12.548v-16.039C167.262,261.001,172.891,255.372,179.81,255.372z"/>
	<path d="M332.175,255.372c4.142,0,7.5-3.358,7.5-7.5s-3.358-7.5-7.5-7.5c-15.19,0-27.548,12.358-27.548,27.548v16.039
		c0,15.19,12.358,27.548,27.548,27.548s27.548-12.358,27.548-27.548v-12.029c0-4.142-3.358-7.5-7.5-7.5s-7.5,3.358-7.5,7.5v12.029
		c0,6.919-5.629,12.548-12.548,12.548s-12.548-5.629-12.548-12.548v-16.039C319.627,261.001,325.256,255.372,332.175,255.372z"/>
	<path d="M181.292,363.081c-2.805-3.048-7.549-3.246-10.598-0.441s-3.246,7.549-0.441,10.598
		c19.875,21.602,51.917,34.499,85.711,34.499s65.836-12.896,85.711-34.499c2.804-3.048,2.607-7.793-0.441-10.598
		c-3.049-2.804-7.792-2.607-10.598,0.441c-17.084,18.569-44.999,29.655-74.672,29.655S198.376,381.65,181.292,363.081z"/>
</g>
<g>
</g>
<g>
</g>
<g>
</g>
<g>
</g>
<g>
</g>
<g>
</g>
<g>
</g>
<g>
</g>
<g>
</g>
<g>
</g>
<g>
</g>
<g>
</g>
<g>
</g>
<g>
</g>
<g>
</g>
</svg>
