<?xml version="1.0" encoding="iso-8859-1"?>
<!-- Generator: Adobe Illustrator 19.0.0, SVG Export Plug-In . SVG Version: 6.00 Build 0)  -->
<svg version="1.1" id="Capa_1" xmlns="http://www.w3.org/2000/svg" xmlns:xlink="http://www.w3.org/1999/xlink" x="0px" y="0px"
	 viewBox="0 0 512.003 512.003" style="enable-background:new 0 0 512.003 512.003;" xml:space="preserve">
<g>
	<path d="M340.18,231.462c4.142,0,7.5-3.358,7.5-7.5s-3.358-7.5-7.5-7.5c-15.187,0-27.543,12.355-27.543,27.542v16.034
		c0,15.187,12.356,27.543,27.543,27.543s27.542-12.356,27.542-27.543v-12.025c0-4.142-3.358-7.5-7.5-7.5s-7.5,3.358-7.5,7.5v12.025
		c0,6.916-5.626,12.543-12.542,12.543s-12.543-5.627-12.543-12.543v-16.034C327.637,237.088,333.264,231.462,340.18,231.462z"/>
	<path d="M216.404,360.252c0,4.142,3.358,7.5,7.5,7.5c0.648,0,65.192,0.261,100.152,22.851c1.258,0.813,2.669,1.202,4.063,1.202
		c2.46,0,4.871-1.21,6.306-3.431c2.248-3.479,1.25-8.122-2.229-10.37c-38.636-24.965-105.466-25.252-108.292-25.252
		C219.762,352.752,216.404,356.11,216.404,360.252z"/>
	<path d="M454.101,93.875c-2.971-3.621-7.38-5.698-12.097-5.698l-197.476,0.007l100.11-56.312
		c22.936,9.068,44.512,21.672,63.914,37.577c3.203,2.625,7.929,2.157,10.555-1.045c2.626-3.204,2.158-7.929-1.045-10.555
		C369.192,17.786,307.364-2.658,244.008,0.277C180.2,3.235,120.165,29.758,74.962,74.962
		C28.644,121.279,2.063,182.827,0.115,248.268C-1.824,313.415,20.757,376.163,63.7,424.952c1.482,1.685,3.552,2.545,5.633,2.545
		c1.76,0,3.527-0.616,4.952-1.87c3.109-2.737,3.412-7.476,0.675-10.585c-29.08-33.04-48.239-72.883-56.022-115.477l125.342-56.875
		v17.348c0,15.187,12.355,27.543,27.542,27.543s27.542-12.356,27.542-27.543v-12.025c0-4.142-3.358-7.5-7.5-7.5s-7.5,3.358-7.5,7.5
		v12.025c0,6.916-5.626,12.543-12.542,12.543s-12.542-5.627-12.542-12.543v-16.034c0-6.916,5.626-12.542,12.542-12.542
		c3.018,0,5.612-1.786,6.802-4.356l114.078-51.764h24.673c8.243,6.635,38.837,29.489,81.112,39.896
		c0.603,0.148,1.205,0.219,1.799,0.219c3.371,0,6.435-2.289,7.277-5.709c0.99-4.022-1.468-8.085-5.49-9.076
		c-24.423-6.012-44.906-16.73-58.606-25.331h139.672c10.35,29.166,15.063,60.335,13.604,91.92
		c-2.775,60.079-27.745,116.607-70.309,159.172c-43.603,43.603-101.542,68.626-163.146,70.459
		c-61.328,1.822-120.402-19.43-166.328-59.851c-3.108-2.736-7.848-2.435-10.585,0.675s-2.435,7.848,0.675,10.585
		c46.854,41.239,106.58,63.701,168.942,63.7c2.577,0,5.158-0.038,7.742-0.115c65.441-1.947,126.989-28.528,173.306-74.846
		c45.214-45.214,71.738-105.264,74.686-169.086C514.654,204.567,494.19,142.744,454.101,93.875z M244.702,15.261
		c27.69-1.279,55.06,2.186,81.042,10.028L257.477,63.69L136.282,46.787C169.134,27.969,206.185,17.047,244.702,15.261z
		 M85.568,85.568c9.724-9.724,20.185-18.519,31.243-26.352l119.09,16.609l-21.969,12.358L83.009,88.188
		C83.859,87.313,84.703,86.433,85.568,85.568z M28.814,175.343h30.169l-36.401,20.476C24.359,188.893,26.434,182.061,28.814,175.343
		z M151.753,160.343c-4.142,0-7.5,3.358-7.5,7.5s3.358,7.5,7.5,7.5h104.648L16.642,284.135c-1.36-11.669-1.888-23.501-1.533-35.421
		c0.335-11.26,1.453-22.395,3.31-33.344l71.16-40.027h30.108c4.142,0,7.5-3.358,7.5-7.5s-3.358-7.5-7.5-7.5H34.696
		c8.845-20.468,20.561-39.698,34.901-57.154l372.407-0.013c0.191,0,0.396,0.087,0.499,0.212
		c14.296,17.427,25.934,36.608,34.734,56.955H151.753z"/>
</g>
<g>
</g>
<g>
</g>
<g>
</g>
<g>
</g>
<g>
</g>
<g>
</g>
<g>
</g>
<g>
</g>
<g>
</g>
<g>
</g>
<g>
</g>
<g>
</g>
<g>
</g>
<g>
</g>
<g>
</g>
</svg>
