<?xml version="1.0" encoding="iso-8859-1"?>
<!-- Generator: Adobe Illustrator 19.0.0, SVG Export Plug-In . SVG Version: 6.00 Build 0)  -->
<svg version="1.1" id="Capa_1" xmlns="http://www.w3.org/2000/svg" xmlns:xlink="http://www.w3.org/1999/xlink" x="0px" y="0px"
	 viewBox="0 0 512 512" style="enable-background:new 0 0 512 512;" xml:space="preserve">
<g>
	<path d="M179.818,159.291c4.142,0,7.5-3.358,7.5-7.5s-3.358-7.5-7.5-7.5c-15.186,0-27.54,12.354-27.54,27.54v16.032
		c0,15.186,12.354,27.541,27.54,27.541c15.186,0,27.541-12.354,27.541-27.541v-12.024c0-4.142-3.358-7.5-7.5-7.5s-7.5,3.358-7.5,7.5
		v12.024c0,6.915-5.625,12.541-12.541,12.541c-6.915,0-12.54-5.625-12.54-12.541v-16.032
		C167.278,164.916,172.904,159.291,179.818,159.291z"/>
	<path d="M332.182,159.291c4.142,0,7.5-3.358,7.5-7.5s-3.358-7.5-7.5-7.5c-15.186,0-27.54,12.354-27.54,27.54v16.032
		c0,15.186,12.354,27.541,27.54,27.541c15.186,0,27.541-12.354,27.541-27.541v-12.024c0-4.142-3.358-7.5-7.5-7.5s-7.5,3.358-7.5,7.5
		v12.024c0,6.915-5.625,12.541-12.541,12.541c-6.915,0-12.54-5.625-12.54-12.541v-16.032
		C319.642,164.916,325.267,159.291,332.182,159.291z"/>
	<path d="M207.17,85.926c-0.991-4.021-5.054-6.478-9.076-5.49c-48.685,11.985-81.898,40.494-83.288,41.702
		c-3.127,2.717-3.459,7.454-0.743,10.581c1.483,1.707,3.568,2.581,5.665,2.581c1.744,0,3.496-0.605,4.916-1.838
		c0.313-0.272,31.831-27.332,77.036-38.459C205.702,94.012,208.16,89.949,207.17,85.926z"/>
	<path d="M392.271,135.3c2.097,0,4.182-0.874,5.665-2.581c2.717-3.126,2.384-7.864-0.743-10.581
		c-1.39-1.208-34.602-29.716-83.287-41.702c-4.021-0.986-8.085,1.468-9.076,5.49c-0.99,4.022,1.468,8.085,5.49,9.076
		c45.034,11.086,76.726,38.191,77.041,38.464C388.78,134.697,390.529,135.3,392.271,135.3z"/>
	<path d="M31.179,232.659c1.824-57.316,25.172-111.226,65.745-151.799s94.482-63.921,151.799-65.745
		c57.049-1.813,112.078,17.786,154.957,55.19c3.12,2.723,7.858,2.4,10.582-0.722c2.723-3.122,2.4-7.859-0.722-10.582
		C367.795,19.097,309.083-1.806,248.246,0.122C187.104,2.068,129.597,26.974,86.318,70.253S18.132,171.04,16.187,232.182
		c-1.936,60.847,18.974,119.55,58.878,165.295c1.483,1.7,3.563,2.57,5.655,2.57c1.749,0,3.506-0.608,4.927-1.848
		c3.122-2.723,3.444-7.46,0.722-10.582C48.964,344.737,29.364,289.705,31.179,232.659z"/>
	<path d="M436.935,82.396c-2.723-3.122-7.461-3.443-10.582-0.722c-3.122,2.723-3.444,7.461-0.722,10.582
		c37.405,42.879,57.005,97.911,55.19,154.957c-1.824,57.316-25.172,111.226-65.745,151.799
		c-22.854,22.854-50.218,40.423-80.166,51.632c0.272-1.126,0.476-2.277,0.594-3.451c0.689-6.882-1.226-13.755-5.292-19.237
		c2.337-1.391,4.478-3.131,6.335-5.184c5.21-5.758,7.751-13.517,6.973-21.288c-0.062-0.615-0.153-1.221-0.257-1.823l6.251-13.567
		c2.631-5.708,2.88-12.1,0.704-17.997c-2.177-5.896-6.52-10.593-12.229-13.223c-11.785-5.431-25.79-0.26-31.221,11.525
		l-4.773,10.359h-31.067c-4.455,0-8.193-3.48-8.51-7.924l-1.816-25.421c19.655-2.056,34.963-17.101,34.963-35.308
		c0-19.606-17.749-35.557-39.564-35.557c-1.773,0-3.539,0.115-5.287,0.325c-4.445-5.113-10.983-8.341-18.19-8.341
		c-13.291,0-24.104,10.813-24.104,24.104v171.148c-37.024-7.996-71.473-25.246-100.1-50.218c-3.121-2.723-7.858-2.4-10.582,0.722
		c-2.723,3.122-2.4,7.859,0.722,10.582c31.355,27.352,69.258,46.02,109.96,54.236v5.345c0,17.396,14.152,31.549,31.548,31.549
		h58.978c14.617,0,27.155-10.861,28.542-24.727c0.601-6.007-0.786-12.004-3.851-17.077c38.414-11.252,73.526-32.057,102.045-60.578
		c43.279-43.279,68.186-100.786,70.131-161.928C497.75,186.844,476.84,128.141,436.935,82.396z M331.712,368.497
		c2.07,0.954,3.645,2.657,4.434,4.795c0.79,2.138,0.699,4.455-0.255,6.525l-1.834,3.98c-4.296-3.671-9.727-6.132-15.643-6.829
		l1.977-4.292C322.361,368.403,327.438,366.528,331.712,368.497z M280.565,308.105c0,10.331-9.155,18.902-21.032,20.341
		l-2.92-40.884C269.875,287.835,280.565,296.942,280.565,308.105z M312.562,485.78c-0.629,6.292-6.611,11.221-13.617,11.221h-58.978
		c-9.125,0-16.548-7.424-16.548-16.549V288.637c0-5.02,4.084-9.104,9.104-9.104c4.753,0,8.742,3.714,9.081,8.455l5.851,81.915
		c0.875,12.255,11.186,21.855,23.472,21.855h44.049c7.006,0,12.987,4.929,13.617,11.221c0.362,3.614-0.764,7.069-3.17,9.729
		c-2.375,2.625-5.766,4.131-9.303,4.131h-8.016c-4.142,0-7.5,3.358-7.5,7.5s3.358,7.5,7.5,7.5c3.537,0,6.927,1.505,9.302,4.13
		c2.407,2.66,3.533,6.115,3.171,9.73c-0.629,6.292-6.611,11.221-13.617,11.221h-6.873c-4.142,0-7.5,3.358-7.5,7.5s3.358,7.5,7.5,7.5
		c3.537,0,6.927,1.505,9.303,4.13C311.799,478.71,312.925,482.165,312.562,485.78z"/>
</g>
<g>
</g>
<g>
</g>
<g>
</g>
<g>
</g>
<g>
</g>
<g>
</g>
<g>
</g>
<g>
</g>
<g>
</g>
<g>
</g>
<g>
</g>
<g>
</g>
<g>
</g>
<g>
</g>
<g>
</g>
</svg>
