<?xml version="1.0" encoding="iso-8859-1"?>
<!-- Generator: Adobe Illustrator 19.0.0, SVG Export Plug-In . SVG Version: 6.00 Build 0)  -->
<svg version="1.1" id="Capa_1" xmlns="http://www.w3.org/2000/svg" xmlns:xlink="http://www.w3.org/1999/xlink" x="0px" y="0px"
	 viewBox="0 0 512 512" style="enable-background:new 0 0 512 512;" xml:space="preserve">
<g>
	<path d="M88.177,183.855v104.209c0,92.538,75.285,167.823,167.823,167.823s167.823-75.285,167.823-167.823V183.855
		c0-23.238-11.491-45.164-30.315-58.506l44.105-92.622c3.396-7.133,2.906-15.379-1.312-22.06C432.083,3.988,424.849,0,416.948,0
		c-7.166,0-14.011,3.422-18.31,9.155l-32.941,43.922c-4.798-4.112-10.076-7.929-16.3-10.51c-9.51-3.944-19.683-4.25-29.521-4.545
		c-6.313-0.189-12.277-0.369-17.833-1.468c-5.286-1.045-10.715-3.112-16.462-5.301c-9.305-3.542-18.927-7.206-29.581-7.206
		s-20.276,3.663-29.581,7.206c-5.748,2.188-11.177,4.255-16.462,5.301c-5.556,1.099-11.519,1.278-17.832,1.467
		c-9.837,0.295-20.008,0.6-29.518,4.543c-6.323,2.622-11.659,6.529-16.304,10.513L113.362,9.155C109.063,3.422,102.217,0,95.052,0
		c-7.9,0-15.135,3.988-19.353,10.668c-4.218,6.68-4.708,14.927-1.312,22.06l24.719,51.91c-5.367,2.747-10.898,6.144-15.619,10.865
		c-7.346,7.346-11.535,16.651-15.586,25.65c-2.576,5.721-5.008,11.125-8.112,15.761c-3.058,4.567-7.094,8.836-11.367,13.356
		c-6.813,7.206-13.856,14.656-17.879,24.358c-3.944,9.51-4.25,19.683-4.545,29.521c-0.189,6.313-0.369,12.277-1.468,17.833
		c-1.045,5.286-3.112,10.715-5.301,16.463c-3.542,9.305-7.206,18.926-7.206,29.58s3.663,20.275,7.206,29.581
		c2.188,5.748,4.255,11.177,5.301,16.462c1.099,5.556,1.278,11.519,1.467,17.832c0.295,9.836,0.6,20.008,4.543,29.518
		c4.022,9.7,11.065,17.149,17.876,24.354c4.273,4.52,8.309,8.788,11.366,13.355c3.114,4.651,5.558,10.066,8.146,15.798
		c1.542,3.416,3.136,6.948,4.913,10.376c1.334,2.575,3.953,4.051,6.666,4.051c1.162,0,2.341-0.271,3.444-0.842
		c3.678-1.906,5.114-6.432,3.208-10.11c-1.59-3.068-3.032-6.263-4.559-9.646c-2.727-6.04-5.545-12.284-9.353-17.972
		c-3.758-5.613-8.421-10.545-12.931-15.316c-6.149-6.503-11.957-12.646-14.92-19.794c-2.888-6.966-3.14-15.348-3.406-24.222
		c-0.199-6.646-0.405-13.519-1.746-20.293c-1.292-6.527-3.684-12.811-5.997-18.888c-3.201-8.408-6.224-16.349-6.224-24.244
		s3.023-15.836,6.224-24.243c2.313-6.078,4.706-12.362,5.997-18.89c1.34-6.775,1.547-13.647,1.746-20.293
		c0.267-8.875,0.518-17.258,3.408-24.225c2.964-7.15,8.773-13.294,14.923-19.799c4.509-4.77,9.173-9.702,12.931-15.315
		c3.802-5.678,6.61-11.916,9.326-17.949c3.657-8.124,7.112-15.798,12.515-21.2c3.067-3.067,6.886-5.529,11.471-7.909l12.922,27.137
		C99.418,138.765,88.177,160.279,88.177,183.855z M410.638,18.155c1.482-1.976,3.841-3.155,6.31-3.155
		c2.763,0,5.194,1.34,6.669,3.676c1.475,2.337,1.64,5.108,0.452,7.603l-54.193,113.806c-2.739,5.752-7.879,9.833-14.102,11.198
		s-12.6-0.192-17.494-4.271c-8.38-6.983-9.817-19.289-3.272-28.016L410.638,18.155z M88.382,18.676
		C89.857,16.34,92.289,15,95.052,15c2.469,0,4.828,1.18,6.31,3.155l75.63,100.84c6.545,8.727,5.108,21.033-3.272,28.017
		c-4.895,4.079-11.271,5.637-17.494,4.271c-6.223-1.364-11.363-5.446-14.102-11.198L87.93,26.279
		C86.742,23.784,86.907,21.013,88.382,18.676z M128.581,146.534c4.746,9.966,13.651,17.037,24.433,19.401
		c2.56,0.561,5.133,0.837,7.685,0.837c8.196,0,16.157-2.848,22.624-8.237c14.519-12.099,17.009-33.42,5.669-48.54l-33.659-44.879
		c4.428-3.859,8.542-6.838,13.022-8.696c6.965-2.888,15.347-3.14,24.221-3.405c6.646-0.199,13.519-0.405,20.293-1.746
		c6.528-1.292,12.812-3.684,18.888-5.997c8.407-3.201,16.348-6.224,24.244-6.224s15.836,3.023,24.244,6.224
		c6.077,2.313,12.36,4.706,18.888,5.997c6.775,1.34,13.647,1.547,20.294,1.746c8.875,0.267,17.258,0.518,24.225,3.407
		c4.683,1.942,8.982,5.164,13.021,8.687l-33.664,44.885c-0.546,0.728-1.05,1.475-1.533,2.23H219.259c-4.142,0-7.5,3.358-7.5,7.5
		s3.358,7.5,7.5,7.5h96.878c-1.317,11.504,3.03,23.385,12.54,31.31c6.467,5.389,14.426,8.236,22.623,8.236
		c2.551,0,5.126-0.276,7.686-0.837c10.782-2.364,19.687-9.436,24.433-19.401l3.518-7.388c13.644,10.653,21.885,27.213,21.885,44.71
		v104.209c0,84.267-68.556,152.823-152.823,152.823s-152.823-68.556-152.823-152.823V183.855c0-17.76,8.073-34.039,21.879-44.722
		L128.581,146.534z"/>
	<path d="M191.871,295.564c26.236,0,47.581-21.345,47.581-47.581s-21.345-47.581-47.581-47.581s-47.581,21.345-47.581,47.581
		S165.635,295.564,191.871,295.564z M191.871,215.403c17.965,0,32.581,14.616,32.581,32.581s-14.616,32.581-32.581,32.581
		s-32.581-14.616-32.581-32.581S173.906,215.403,191.871,215.403z"/>
	<path d="M320.129,295.564c26.236,0,47.581-21.345,47.581-47.581s-21.345-47.581-47.581-47.581s-47.581,21.345-47.581,47.581
		S293.893,295.564,320.129,295.564z M320.129,215.403c17.965,0,32.581,14.616,32.581,32.581s-14.616,32.581-32.581,32.581
		s-32.581-14.616-32.581-32.581S302.164,215.403,320.129,215.403z"/>
	<path d="M191.871,259.492c4.142,0,7.5-3.358,7.5-7.5v-8.016c0-4.142-3.358-7.5-7.5-7.5s-7.5,3.358-7.5,7.5v8.016
		C184.371,256.134,187.729,259.492,191.871,259.492z"/>
	<path d="M320.129,259.492c4.142,0,7.5-3.358,7.5-7.5v-8.016c0-4.142-3.358-7.5-7.5-7.5s-7.5,3.358-7.5,7.5v8.016
		C312.629,256.134,315.987,259.492,320.129,259.492z"/>
	<path d="M492.77,238.443c-2.188-5.748-4.255-11.177-5.301-16.462c-1.099-5.556-1.278-11.519-1.467-17.832
		c-0.295-9.837-0.6-20.008-4.543-29.517c-4.022-9.7-11.065-17.15-17.877-24.354c-4.272-4.52-8.308-8.788-11.366-13.355
		c-3.104-4.635-5.536-10.04-8.111-15.761c-2.299-5.108-4.677-10.39-7.664-15.335c-2.142-3.544-6.752-4.684-10.298-2.541
		c-3.545,2.142-4.683,6.752-2.541,10.298c2.52,4.17,4.611,8.816,6.825,13.735c2.715,6.032,5.522,12.271,9.324,17.949
		c3.758,5.613,8.421,10.545,12.931,15.315c6.149,6.504,11.957,12.647,14.921,19.795c2.888,6.965,3.14,15.347,3.406,24.221
		c0.199,6.646,0.405,13.519,1.746,20.293c1.292,6.528,3.684,12.812,5.997,18.888c3.201,8.408,6.224,16.349,6.224,24.244
		c0,7.895-3.023,15.835-6.224,24.243c-2.314,6.077-4.707,12.361-5.998,18.889c-1.34,6.775-1.547,13.648-1.746,20.294
		c-0.267,8.875-0.518,17.258-3.408,24.225c-2.964,7.149-8.773,13.293-14.922,19.797c-4.51,4.771-9.173,9.703-12.932,15.316
		c-3.802,5.679-6.61,11.917-9.326,17.949c-3.657,8.124-7.111,15.797-12.514,21.2c-5.402,5.402-13.076,8.856-21.201,12.513
		c-6.032,2.715-12.27,5.523-17.949,9.324c-5.613,3.758-10.546,8.421-15.316,12.932c-6.504,6.148-12.646,11.957-19.794,14.921
		c-6.966,2.888-15.348,3.14-24.222,3.405c-6.646,0.199-13.518,0.405-20.292,1.745c-6.528,1.291-12.812,3.684-18.889,5.997
		C271.836,493.977,263.895,497,256,497s-15.836-3.023-24.244-6.225c-6.077-2.313-12.361-4.706-18.889-5.997
		c-6.775-1.341-13.648-1.547-20.295-1.746c-8.875-0.267-17.258-0.518-24.223-3.406c-7.149-2.965-13.293-8.774-19.797-14.923
		c-4.771-4.51-9.704-9.174-15.317-12.933c-5.688-3.808-11.934-6.627-17.974-9.354c-3.379-1.525-6.57-2.966-9.635-4.554
		c-3.68-1.907-8.204-0.468-10.109,3.21c-1.905,3.678-0.468,8.204,3.21,10.109c3.424,1.773,6.951,3.366,10.363,4.906
		c5.733,2.588,11.149,5.034,15.801,8.147c4.568,3.059,8.837,7.095,13.357,11.368c7.205,6.812,14.655,13.855,24.356,17.879
		c9.51,3.943,19.682,4.249,29.52,4.544c6.313,0.189,12.277,0.368,17.833,1.468c5.286,1.046,10.715,3.112,16.463,5.301
		C235.724,508.337,245.346,512,256,512s20.275-3.663,29.581-7.206c5.748-2.188,11.177-4.255,16.462-5.301
		c5.556-1.099,11.519-1.277,17.832-1.467c9.837-0.295,20.008-0.6,29.518-4.543c9.7-4.022,17.149-11.065,24.354-17.877
		c4.52-4.272,8.788-8.309,13.355-11.366c4.635-3.103,10.039-5.536,15.761-8.11c8.999-4.05,18.304-8.239,25.65-15.585
		s11.535-16.651,15.586-25.649c2.576-5.721,5.008-11.125,8.112-15.761c3.059-4.568,7.095-8.837,11.368-13.356
		c6.812-7.205,13.856-14.655,17.878-24.356c3.944-9.51,4.25-19.683,4.545-29.521c0.189-6.313,0.369-12.277,1.468-17.833
		c1.045-5.286,3.112-10.715,5.301-16.463c3.542-9.305,7.206-18.926,7.206-29.58C499.976,257.37,496.313,247.749,492.77,238.443z"/>
	<path d="M326.117,328.721c-22.614,8.504-46.205,12.815-70.117,12.815s-47.503-4.312-70.117-12.815
		c-7.599-2.859-15.85-0.265-20.529,6.452c-4.671,6.706-4.246,15.328,1.059,21.456c6.283,7.256,13.196,13.74,20.575,19.325
		l-0.747,4.481c-0.798,4.789,1.386,9.479,5.565,11.95c1.855,1.097,3.905,1.639,5.944,1.639c2.553,0,5.09-0.85,7.208-2.521
		l3.286-2.592c15.17,7.209,31.217,10.863,47.756,10.863c16.542,0,32.584-3.658,47.751-10.867l3.291,2.596
		c2.119,1.671,4.655,2.521,7.208,2.521c2.039,0,4.088-0.542,5.944-1.639c4.179-2.471,6.363-7.161,5.565-11.95l-0.748-4.485
		c7.377-5.584,14.295-12.068,20.575-19.322c5.305-6.127,5.73-14.75,1.059-21.455C341.967,328.456,333.716,325.862,326.117,328.721z
		 M309.542,374.37l-25.039-19.751c7.083-0.958,14.116-2.283,21.088-3.953L309.542,374.37z M202.458,374.37l3.951-23.704
		c6.972,1.67,14.005,2.996,21.088,3.953L202.458,374.37z M177.754,346.811c-1.02-1.178-0.613-2.316-0.092-3.063
		c0.527-0.756,1.465-1.542,2.942-0.986c3.732,1.403,7.491,2.687,11.27,3.878l-2.05,12.303
		C185.581,355.239,181.542,351.186,177.754,346.811z M256,384.774c-11.792,0-23.307-2.164-34.362-6.428l27.793-21.923
		c2.187,0.067,4.376,0.113,6.569,0.113s4.382-0.046,6.569-0.113l27.795,21.925C279.31,382.612,267.794,384.774,256,384.774z
		 M334.246,346.81c-3.787,4.374-7.826,8.432-12.069,12.135l-2.051-12.307c3.779-1.19,7.538-2.474,11.27-3.878
		c1.477-0.557,2.415,0.23,2.942,0.986C334.859,344.495,335.266,345.633,334.246,346.81z"/>
	<path d="M225.711,299.937c-2.298,3.446-1.367,8.103,2.08,10.4l10.708,7.139c5.315,3.544,11.408,5.315,17.5,5.315
		s12.185-1.772,17.5-5.315l10.708-7.139c3.447-2.297,4.378-6.954,2.08-10.4s-6.955-4.377-10.4-2.08l-10.708,7.139
		c-5.577,3.717-12.783,3.717-18.359,0l-10.708-7.139C232.666,295.559,228.009,296.49,225.711,299.937z"/>
</g>
<g>
</g>
<g>
</g>
<g>
</g>
<g>
</g>
<g>
</g>
<g>
</g>
<g>
</g>
<g>
</g>
<g>
</g>
<g>
</g>
<g>
</g>
<g>
</g>
<g>
</g>
<g>
</g>
<g>
</g>
</svg>
