<?xml version="1.0" encoding="iso-8859-1"?>
<!-- Generator: Adobe Illustrator 19.0.0, SVG Export Plug-In . SVG Version: 6.00 Build 0)  -->
<svg version="1.1" id="Capa_1" xmlns="http://www.w3.org/2000/svg" xmlns:xlink="http://www.w3.org/1999/xlink" x="0px" y="0px"
	 viewBox="0 0 512.003 512.003" style="enable-background:new 0 0 512.003 512.003;" xml:space="preserve">
<g>
	<path d="M15.108,248.714c1.833-61.604,26.857-119.543,70.459-163.146c43.603-43.603,101.543-68.626,163.146-70.459
		c61.338-1.826,120.401,19.43,166.328,59.852c3.109,2.736,7.848,2.435,10.585-0.675s2.435-7.849-0.675-10.585
		C376.161,20.758,313.408-1.822,248.268,0.115c-65.44,1.947-126.989,28.528-173.306,74.846
		C28.644,121.279,2.063,182.827,0.115,248.268C-1.824,313.414,20.757,376.162,63.7,424.952c1.482,1.685,3.552,2.545,5.633,2.545
		c1.76,0,3.527-0.616,4.952-1.87c3.109-2.737,3.412-7.476,0.675-10.585C34.538,369.116,13.283,310.046,15.108,248.714z"/>
	<path d="M448.302,87.051c-2.736-3.109-7.476-3.412-10.585-0.675c-3.109,2.736-3.412,7.476-0.675,10.585
		c40.421,45.925,61.677,104.995,59.852,166.327c-1.833,61.604-26.856,119.543-70.459,163.146
		c-43.603,43.603-101.542,68.626-163.146,70.459c-61.336,1.822-120.402-19.43-166.328-59.852c-3.108-2.736-7.848-2.435-10.585,0.675
		c-2.737,3.109-2.435,7.849,0.675,10.585c46.854,41.239,106.58,63.7,168.942,63.7c2.577,0,5.158-0.038,7.742-0.115
		c65.441-1.948,126.989-28.529,173.306-74.846c46.318-46.317,72.899-107.866,74.847-173.306
		C513.826,198.588,491.245,135.84,448.302,87.051z"/>
	<path d="M382.396,296.918c-40.301,8.947-82.836,13.484-126.424,13.484c-43.587,0-86.123-4.537-126.424-13.484
		c-4.989-1.107-10.051,0.484-13.539,4.255c-3.573,3.864-4.78,9.196-3.231,14.262c9.539,31.192,28.047,58.062,53.525,77.704
		c26.053,20.086,57.06,30.703,89.668,30.703s63.615-10.617,89.669-30.703c25.478-19.642,43.986-46.512,53.525-77.705
		c1.549-5.066,0.341-10.398-3.231-14.262C392.446,297.4,387.386,295.811,382.396,296.918z M336.482,381.26
		c-23.405,18.044-51.245,27.582-80.51,27.582c-29.265,0-57.104-9.538-80.51-27.582c-22.467-17.321-39.528-41.963-48.108-69.465
		c41.054,9.03,84.318,13.607,128.618,13.607c44.3,0,87.565-4.577,128.619-13.607C376.013,339.291,358.951,363.938,336.482,381.26z"
		/>
	<path d="M166.762,259.617c1.837,0.5,3.7,0.743,5.545,0.743c6.322,0,12.422-2.852,16.484-7.959
		c15.315-19.254,48.71-67.823,28.084-102.87c-8.536-14.504-25.559-22.959-42.359-21.039c-12.929,1.477-24.079,8.077-31.397,18.583
		c-0.423,0.608-1.152,0.847-1.852,0.606c-12.116-4.14-25.01-2.864-36.307,3.594c-14.681,8.393-23.402,25.28-21.702,42.023
		C87.365,233.757,143.023,253.155,166.762,259.617z M112.405,164.298c4.627-2.645,9.643-3.986,14.681-3.986
		c3.131,0,6.271,0.519,9.331,1.564c6.978,2.385,14.797-0.176,19.012-6.228c4.82-6.92,12.204-11.272,20.792-12.253
		c11.007-1.255,22.151,4.266,27.729,13.744c6.663,11.322,5.933,26.717-2.171,45.758c-7.235,16.999-18.596,32.462-24.725,40.167
		c-1.513,1.902-4.004,2.718-6.351,2.08c-9.499-2.586-27.808-8.331-43.697-17.754c-17.799-10.557-27.497-22.536-28.823-35.605
		C97.071,180.842,102.787,169.796,112.405,164.298z"/>
	<path d="M428.801,193.299c1.7-16.743-7.021-33.631-21.702-42.023c-11.297-6.458-24.191-7.734-36.307-3.594
		c-0.703,0.24-1.429,0.001-1.853-0.606c-7.317-10.506-18.467-17.106-31.396-18.583c-16.799-1.919-33.824,6.535-42.36,21.039
		c-20.625,35.047,12.77,83.616,28.085,102.87c4.063,5.108,10.162,7.959,16.484,7.959c1.844,0,3.708-0.243,5.545-0.743
		C369.037,253.155,424.694,233.757,428.801,193.299z M385.055,227.39c-15.889,9.423-34.198,15.168-43.697,17.754
		c-2.345,0.639-4.838-0.178-6.351-2.08c-6.128-7.705-17.49-23.168-24.725-40.167c-8.104-19.041-8.835-34.436-2.172-45.758
		c5.05-8.582,14.663-13.921,24.606-13.921c1.039,0,2.082,0.058,3.123,0.177c8.587,0.981,15.971,5.333,20.791,12.254
		c4.216,6.052,12.036,8.612,19.012,6.227c7.981-2.727,16.509-1.867,24.012,2.422c9.618,5.499,15.334,16.544,14.224,27.486
		C412.551,204.854,402.854,216.833,385.055,227.39z"/>
</g>
<g>
</g>
<g>
</g>
<g>
</g>
<g>
</g>
<g>
</g>
<g>
</g>
<g>
</g>
<g>
</g>
<g>
</g>
<g>
</g>
<g>
</g>
<g>
</g>
<g>
</g>
<g>
</g>
<g>
</g>
</svg>
