<?xml version="1.0" encoding="iso-8859-1"?>
<!-- Generator: Adobe Illustrator 19.0.0, SVG Export Plug-In . SVG Version: 6.00 Build 0)  -->
<svg version="1.1" id="Capa_1" xmlns="http://www.w3.org/2000/svg" xmlns:xlink="http://www.w3.org/1999/xlink" x="0px" y="0px"
	 viewBox="0 0 512.003 512.003" style="enable-background:new 0 0 512.003 512.003;" xml:space="preserve">
<g>
	<path d="M15.108,248.714c1.833-61.604,26.857-119.543,70.459-163.146c43.603-43.603,101.543-68.626,163.146-70.459
		c61.336-1.826,120.402,19.43,166.328,59.852c3.109,2.736,7.848,2.435,10.585-0.675s2.435-7.849-0.675-10.585
		C376.161,20.758,313.407-1.822,248.268,0.115c-65.44,1.947-126.989,28.528-173.306,74.846
		C28.644,121.279,2.063,182.827,0.115,248.268C-1.824,313.414,20.757,376.162,63.7,424.952c1.482,1.685,3.552,2.545,5.633,2.545
		c1.76,0,3.527-0.616,4.952-1.87c3.109-2.737,3.412-7.476,0.675-10.585C34.538,369.116,13.283,310.046,15.108,248.714z"/>
	<path d="M448.302,87.051c-2.736-3.109-7.476-3.412-10.585-0.675c-3.109,2.736-3.412,7.476-0.675,10.585
		c40.421,45.925,61.677,104.995,59.852,166.327c-1.833,61.604-26.856,119.543-70.459,163.146
		c-43.603,43.603-101.542,68.626-163.146,70.459c-61.333,1.822-120.402-19.43-166.328-59.852c-3.108-2.736-7.848-2.435-10.585,0.675
		s-2.435,7.849,0.675,10.585c46.854,41.239,106.58,63.7,168.942,63.7c2.577,0,5.158-0.038,7.742-0.115
		c65.441-1.948,126.989-28.529,173.306-74.846c46.318-46.317,72.899-107.866,74.847-173.306
		C513.826,198.588,491.245,135.84,448.302,87.051z"/>
	<path d="M108.555,285.049c-3.888,4.049-5.329,10.003-3.761,15.539c13.204,46.613,43.419,85.104,83.155,106.137
		c9.435,28.548,36.353,49.214,68.023,49.214s58.588-20.666,68.023-49.214c39.736-21.033,69.951-59.524,83.154-106.137
		c1.568-5.535,0.128-11.489-3.76-15.539c-3.594-3.744-8.695-5.271-13.641-4.085c-42.646,10.221-87.655,15.403-133.776,15.403
		s-91.13-5.183-133.775-15.403C117.248,279.778,112.149,281.305,108.555,285.049z M392.708,295.68
		c0.068,0.179,0.114,0.453,0.01,0.82c-10.882,38.419-34.269,70.753-65.184,90.776c0.041-0.987,0.075-1.976,0.075-2.973v-51.109
		c0-4.142-3.358-7.5-7.5-7.5s-7.5,3.358-7.5,7.5v51.109c0,31.229-25.407,56.636-56.637,56.636s-56.636-25.407-56.636-56.636v-51.109
		c0-4.142-3.358-7.5-7.5-7.5s-7.5,3.358-7.5,7.5v51.109c0,0.997,0.035,1.986,0.075,2.973
		c-30.914-20.021-54.302-52.356-65.185-90.776c-0.104-0.367-0.058-0.641,0.01-0.819c41.311,9.856,84.75,15.104,129.235,15.635
		v64.971c0,4.142,3.358,7.5,7.5,7.5c4.142,0,7.5-3.358,7.5-7.5v-64.971C307.958,310.783,351.395,305.536,392.708,295.68z"/>
	<path d="M129.008,235.333c1.314,2.628,3.962,4.148,6.714,4.148c1.127,0,2.271-0.255,3.348-0.794l64.137-32.068
		c2.541-1.271,4.146-3.868,4.146-6.708s-1.605-5.438-4.146-6.708l-64.137-32.068c-3.705-1.853-8.209-0.351-10.062,3.354
		c-1.853,3.705-0.351,8.209,3.354,10.062l50.72,25.36l-50.72,25.36C128.657,227.123,127.156,231.628,129.008,235.333z"/>
	<path d="M382.936,164.488c-1.852-3.705-6.357-5.208-10.062-3.354l-64.136,32.068c-2.541,1.271-4.146,3.867-4.146,6.708
		s1.605,5.438,4.146,6.708l64.136,32.068c1.077,0.539,2.221,0.794,3.348,0.794c2.751,0,5.4-1.52,6.714-4.148
		c1.853-3.705,0.351-8.209-3.354-10.062l-50.72-25.36l50.72-25.36C383.287,172.698,384.789,168.193,382.936,164.488z"/>
</g>
<g>
</g>
<g>
</g>
<g>
</g>
<g>
</g>
<g>
</g>
<g>
</g>
<g>
</g>
<g>
</g>
<g>
</g>
<g>
</g>
<g>
</g>
<g>
</g>
<g>
</g>
<g>
</g>
<g>
</g>
</svg>
