<?xml version="1.0" encoding="iso-8859-1"?>
<!-- Generator: Adobe Illustrator 19.0.0, SVG Export Plug-In . SVG Version: 6.00 Build 0)  -->
<svg version="1.1" id="Capa_1" xmlns="http://www.w3.org/2000/svg" xmlns:xlink="http://www.w3.org/1999/xlink" x="0px" y="0px"
	 viewBox="0 0 512.007 512.007" style="enable-background:new 0 0 512.007 512.007;" xml:space="preserve">
<g>
	<circle style="fill:#FFE17D;" cx="256.004" cy="256.004" r="248"/>
	<path style="fill:#FFD164;" d="M292.004,468.003c-136.967,0-248-111.034-248-248c0-59.313,20.849-113.742,55.582-156.417
		C43.715,109.059,8.004,178.35,8.004,256.004c0,136.966,111.033,248,248,248c77.654,0,146.945-35.712,192.418-91.584
		C405.746,447.154,351.317,468.003,292.004,468.003z"/>
	<path style="fill:#AA7346;" d="M136.004,234.004c-5.523,0-10-4.477-10-10c0-5.516,4.469-9.992,9.984-10l0,0
		c0.43,0,43.5-0.453,54.875-26.062c2.234-5.039,8.133-7.336,13.203-5.078c5.047,2.242,7.32,8.156,5.078,13.203
		C192.472,233.574,138.301,234.004,136.004,234.004z"/>
	<path style="fill:#AA7346;" d="M376.003,234.004c-2.297,0-56.469-0.43-73.141-37.937c-2.242-5.047,0.031-10.961,5.078-13.203
		c5.055-2.258,10.953,0.039,13.203,5.078c11.375,25.609,54.445,26.062,54.875,26.062c5.516,0.023,9.984,4.5,9.977,10.016
		C385.988,229.535,381.519,234.004,376.003,234.004z"/>
	<path style="fill:#FFF1C4;" d="M160.004,352.003h-128c-4.422,0-8,3.578-8,8c0,4.422,3.578,8,8,8h128V352.003z"/>
	<path style="fill:#FFF1C4;" d="M160.004,291.109L10.199,248.308c-4.211-1.172-8.672,1.242-9.891,5.5
		c-1.211,4.242,1.25,8.672,5.5,9.891l154.195,44.056V291.109z"/>
	<path style="fill:#FFF1C4;" d="M352.003,352.003h128c4.422,0,8,3.578,8,8c0,4.422-3.578,8-8,8h-128V352.003z"/>
	<path style="fill:#FFF1C4;" d="M352.003,291.109l149.805-42.801c4.211-1.172,8.672,1.242,9.891,5.5
		c1.211,4.242-1.25,8.672-5.5,9.891l-154.195,44.056V291.109z"/>
	<path style="fill:#FFFFFF;" d="M144.004,288.004v93.759c0,11.038,7.535,20.64,18.233,23.357
		c61.531,15.629,126.003,15.629,187.534,0c10.698-2.717,18.233-12.32,18.233-23.357v-93.759c0-8.837-7.163-16-16-16h-192
		C151.167,272.004,144.004,279.167,144.004,288.004z"/>
</g>
<g>
</g>
<g>
</g>
<g>
</g>
<g>
</g>
<g>
</g>
<g>
</g>
<g>
</g>
<g>
</g>
<g>
</g>
<g>
</g>
<g>
</g>
<g>
</g>
<g>
</g>
<g>
</g>
<g>
</g>
</svg>
