<?xml version="1.0" encoding="iso-8859-1"?>
<!-- Generator: Adobe Illustrator 19.0.0, SVG Export Plug-In . SVG Version: 6.00 Build 0)  -->
<svg version="1.1" id="Capa_1" xmlns="http://www.w3.org/2000/svg" xmlns:xlink="http://www.w3.org/1999/xlink" x="0px" y="0px"
	 viewBox="0 0 512.003 512.003" style="enable-background:new 0 0 512.003 512.003;" xml:space="preserve">
<g>
	<g>
		<circle style="fill:#FFE17D;" cx="256.001" cy="256.001" r="248.5"/>
		<path style="fill:#FFD164;" d="M292.074,468.429c-137.243,0-248.5-111.258-248.5-248.5c0-59.433,20.891-113.971,55.695-156.733
			C43.285,108.761,7.501,178.191,7.501,256.001c0,137.242,111.257,248.5,248.5,248.5c77.81,0,147.242-35.784,192.806-91.769
			C406.046,447.537,351.507,468.429,292.074,468.429z"/>
		<path style="fill:#7D5046;" d="M171.832,280.05L171.832,280.05c-11.068,0-20.04-8.972-20.04-20.04v-16.032
			c0-11.068,8.972-20.04,20.04-20.04h0c11.068,0,20.04,8.972,20.04,20.04v16.032C191.872,271.077,182.9,280.05,171.832,280.05z"/>
		<path style="fill:#9C6846;" d="M191.872,243.977c0-12.379-11.222-22.135-24.048-19.651v15.643
			c0,13.282,10.767,24.048,24.048,24.048h0V243.977z"/>
	</g>
	<g>
		<path d="M171.822,287.552c15.187,0,27.542-12.356,27.542-27.543v-12.026c0-4.142-3.358-7.5-7.5-7.5s-7.5,3.358-7.5,7.5v12.026
			c0,6.916-5.626,12.543-12.542,12.543s-12.542-5.627-12.542-12.543v-16.034c0-6.916,5.626-12.542,12.542-12.542
			c4.142,0,7.5-3.358,7.5-7.5s-3.358-7.5-7.5-7.5c-15.187,0-27.542,12.355-27.542,27.542v16.034
			C144.279,275.197,156.635,287.552,171.822,287.552z"/>
		<path d="M195.255,366.12c14.422,11.19,36.563,17.608,60.746,17.608c24.183,0,46.324-6.418,60.746-17.609
			c3.272-2.539,3.867-7.25,1.328-10.523c-2.539-3.272-7.25-3.867-10.523-1.328c-11.668,9.054-30.939,14.459-51.55,14.459
			c-20.61,0-39.882-5.405-51.551-14.459c-3.272-2.54-7.984-1.945-10.523,1.328C191.388,358.869,191.983,363.581,195.255,366.12z"/>
		<path d="M15.109,248.714c1.833-61.604,26.857-119.543,70.459-163.146c43.603-43.603,101.543-68.626,163.146-70.459
			c61.332-1.827,120.402,19.43,166.328,59.851c3.109,2.737,7.849,2.435,10.585-0.675c2.737-3.109,2.435-7.848-0.675-10.585
			C376.162,20.758,313.415-1.823,248.268,0.115c-65.44,1.948-126.989,28.529-173.306,74.846
			C28.644,121.279,2.063,182.827,0.115,248.268C-1.824,313.415,20.757,376.162,63.7,424.952c1.482,1.685,3.552,2.545,5.633,2.545
			c1.76,0,3.527-0.616,4.952-1.87c3.109-2.737,3.412-7.476,0.675-10.585C34.538,369.116,13.283,310.047,15.109,248.714z"/>
		<path d="M448.302,87.051c-2.736-3.109-7.476-3.412-10.585-0.675c-3.109,2.737-3.412,7.476-0.675,10.585
			c40.421,45.925,61.677,104.995,59.852,166.327c-1.833,61.603-26.856,119.543-70.459,163.146
			c-43.603,43.603-101.542,68.626-163.146,70.459c-61.334,1.832-120.402-19.43-166.328-59.851
			c-3.108-2.736-7.848-2.435-10.585,0.675c-2.737,3.109-2.435,7.848,0.675,10.585c46.854,41.239,106.58,63.7,168.942,63.7
			c2.576,0,5.158-0.039,7.742-0.116c65.441-1.948,126.989-28.529,173.306-74.846c46.318-46.317,72.899-107.865,74.847-173.306
			C513.826,198.588,491.245,135.84,448.302,87.051z"/>
		<path d="M362.423,260.671c1.482,1.844,3.656,2.802,5.851,2.802c1.648,0,3.309-0.541,4.694-1.655
			c3.229-2.595,3.742-7.316,1.147-10.544c-9.622-11.97-23.44-18.835-37.914-18.835c-14.474,0-28.293,6.865-37.915,18.835
			c-2.595,3.229-2.082,7.949,1.147,10.544s7.949,2.081,10.544-1.147c6.76-8.409,16.318-13.233,26.223-13.233
			C346.106,247.438,355.663,252.262,362.423,260.671z"/>
		<path d="M384.297,223.389c2.751,0,5.4-1.52,6.714-4.148c1.853-3.705,0.351-8.21-3.354-10.062
			c-1.374-0.687-34.219-16.826-83.525-16.826c-4.142,0-7.5,3.358-7.5,7.5s3.358,7.5,7.5,7.5c45.56,0,76.52,15.095,76.817,15.242
			C382.026,223.134,383.17,223.389,384.297,223.389z"/>
		<path d="M207.193,157.975c-0.991-4.022-5.053-6.479-9.076-5.49c-48.69,11.987-81.906,40.498-83.296,41.706
			c-3.125,2.715-3.457,7.446-0.745,10.573c1.482,1.71,3.57,2.585,5.669,2.585c1.74,0,3.489-0.602,4.908-1.83
			c0.315-0.272,32.01-27.381,77.05-38.469C205.725,166.06,208.183,161.997,207.193,157.975z"/>
	</g>
</g>
<g>
</g>
<g>
</g>
<g>
</g>
<g>
</g>
<g>
</g>
<g>
</g>
<g>
</g>
<g>
</g>
<g>
</g>
<g>
</g>
<g>
</g>
<g>
</g>
<g>
</g>
<g>
</g>
<g>
</g>
</svg>
