<?xml version="1.0" encoding="iso-8859-1"?>
<!-- Generator: Adobe Illustrator 19.0.0, SVG Export Plug-In . SVG Version: 6.00 Build 0)  -->
<svg version="1.1" id="Capa_1" xmlns="http://www.w3.org/2000/svg" xmlns:xlink="http://www.w3.org/1999/xlink" x="0px" y="0px"
	 viewBox="0 0 512.003 512.003" style="enable-background:new 0 0 512.003 512.003;" xml:space="preserve">
<g>
	<g>
		<circle style="fill:#FFE17D;" cx="256.001" cy="256.001" r="248.5"/>
		<path style="fill:#FFD164;" d="M292.074,468.428c-137.243,0-248.5-111.258-248.5-248.5c0-59.433,20.891-113.971,55.695-156.733
			C43.284,108.76,7.501,178.191,7.501,256.001c0,137.242,111.257,248.5,248.5,248.5c77.81,0,147.242-35.784,192.806-91.769
			C406.046,447.537,351.507,468.428,292.074,468.428z"/>
	</g>
	<g>
		<path d="M15.108,248.714c1.833-61.604,26.857-119.543,70.459-163.146c43.603-43.603,101.543-68.626,163.146-70.459
			c61.336-1.829,120.402,19.43,166.328,59.852c3.109,2.737,7.848,2.436,10.585-0.675c2.737-3.109,2.435-7.848-0.675-10.585
			c-48.79-42.943-111.537-65.52-176.684-63.585c-65.44,1.948-126.989,28.529-173.306,74.847
			C28.644,121.279,2.063,182.827,0.115,248.268C-1.824,313.415,20.757,376.162,63.7,424.952c1.482,1.685,3.552,2.545,5.633,2.545
			c1.76,0,3.527-0.616,4.952-1.87c3.109-2.737,3.412-7.476,0.675-10.585C34.538,369.116,13.283,310.046,15.108,248.714z"/>
		<path d="M448.302,87.05c-2.736-3.109-7.476-3.411-10.585-0.675c-3.109,2.737-3.412,7.476-0.675,10.585
			c40.421,45.926,61.677,104.995,59.852,166.328c-1.833,61.603-26.856,119.543-70.459,163.146
			c-43.603,43.603-101.542,68.626-163.146,70.459c-61.333,1.835-120.402-19.43-166.328-59.851
			c-3.108-2.736-7.848-2.435-10.585,0.675c-2.737,3.109-2.435,7.848,0.675,10.585c46.854,41.239,106.58,63.7,168.942,63.7
			c2.576,0,5.158-0.039,7.742-0.116c65.441-1.948,126.989-28.529,173.306-74.846c46.318-46.317,72.899-107.866,74.847-173.306
			C513.826,198.588,491.245,135.84,448.302,87.05z"/>
		<path d="M129.008,291.395c1.314,2.628,3.962,4.147,6.714,4.147c1.127,0,2.271-0.255,3.348-0.793l64.137-32.068
			c2.541-1.27,4.146-3.867,4.146-6.708s-1.605-5.438-4.146-6.708l-64.137-32.068c-3.705-1.853-8.209-0.351-10.062,3.354
			s-0.351,8.21,3.354,10.062l50.72,25.36l-50.72,25.36C128.657,283.185,127.156,287.69,129.008,291.395z"/>
		<path d="M382.936,220.55c-1.852-3.705-6.357-5.208-10.062-3.354l-64.136,32.068c-2.541,1.271-4.146,3.867-4.146,6.708
			s1.605,5.438,4.146,6.708l64.136,32.068c1.077,0.539,2.221,0.793,3.348,0.793c2.751,0,5.4-1.52,6.714-4.147
			c1.853-3.705,0.351-8.21-3.354-10.062l-50.72-25.36l50.72-25.36C383.287,228.76,384.789,224.254,382.936,220.55z"/>
		<path d="M198.747,156.722c-1.682-3.786-6.116-5.489-9.899-3.808l-72.153,32.068c-3.785,1.682-5.49,6.114-3.808,9.899
			c1.242,2.795,3.984,4.456,6.857,4.456c1.018,0,2.052-0.208,3.042-0.648l72.153-32.068
			C198.724,164.939,200.429,160.507,198.747,156.722z"/>
		<path d="M392.315,199.338c2.874,0,5.616-1.661,6.858-4.456c1.682-3.785-0.022-8.217-3.808-9.899l-72.154-32.068
			c-3.785-1.682-8.217,0.022-9.899,3.808s0.022,8.217,3.808,9.899l72.154,32.068C390.264,199.129,391.298,199.338,392.315,199.338z"
			/>
		<path d="M160.926,374.15c2.949,3.403,7.223,5.354,11.726,5.354s8.777-1.952,11.726-5.354l29.572-34.122
			c0.042-0.049,0.155-0.179,0.391-0.179c0.236,0,0.349,0.13,0.391,0.179l29.572,34.122c2.949,3.403,7.223,5.354,11.726,5.354
			c4.502,0,8.776-1.952,11.726-5.354l29.572-34.122c0.042-0.049,0.155-0.179,0.391-0.179c0.236,0,0.348,0.13,0.391,0.179
			l29.572,34.122c2.949,3.403,7.223,5.354,11.726,5.354c4.503,0,8.777-1.952,11.726-5.354l14.786-17.061
			c2.713-3.13,2.375-7.867-0.755-10.58c-3.13-2.713-7.867-2.374-10.58,0.755l-14.786,17.061c-0.042,0.049-0.155,0.179-0.391,0.179
			c-0.236,0-0.348-0.13-0.391-0.179l-29.572-34.122c-2.949-3.403-7.223-5.354-11.726-5.354c-4.503,0-8.777,1.952-11.726,5.354
			l-29.572,34.122c-0.042,0.049-0.155,0.179-0.391,0.179c-0.236,0-0.349-0.13-0.391-0.179l-29.572-34.122
			c-2.949-3.403-7.223-5.354-11.726-5.354c-4.502,0-8.776,1.952-11.726,5.354l-29.572,34.122c-0.042,0.049-0.155,0.179-0.391,0.179
			s-0.349-0.13-0.391-0.178l-14.786-17.061c-2.713-3.131-7.449-3.469-10.58-0.756c-3.13,2.713-3.468,7.45-0.756,10.58
			L160.926,374.15z"/>
	</g>
</g>
<g>
</g>
<g>
</g>
<g>
</g>
<g>
</g>
<g>
</g>
<g>
</g>
<g>
</g>
<g>
</g>
<g>
</g>
<g>
</g>
<g>
</g>
<g>
</g>
<g>
</g>
<g>
</g>
<g>
</g>
</svg>
