<?xml version="1.0" encoding="iso-8859-1"?>
<!-- Generator: Adobe Illustrator 19.0.0, SVG Export Plug-In . SVG Version: 6.00 Build 0)  -->
<svg version="1.1" id="Capa_1" xmlns="http://www.w3.org/2000/svg" xmlns:xlink="http://www.w3.org/1999/xlink" x="0px" y="0px"
	 viewBox="0 0 512.044 512.044" style="enable-background:new 0 0 512.044 512.044;" xml:space="preserve">
<g>
	<g>
		<circle style="fill:#FFE17D;" cx="256.043" cy="256.055" r="248.5"/>
		<path style="fill:#FFD164;" d="M292.115,468.483c-137.243,0-248.5-111.258-248.5-248.5c0-59.433,20.891-113.971,55.695-156.733
			C43.326,108.815,7.543,178.245,7.543,256.055c0,137.242,111.257,248.5,248.5,248.5c77.81,0,147.242-35.784,192.806-91.769
			C406.087,447.591,351.549,468.483,292.115,468.483z"/>
		<path style="fill:#9C6846;" d="M255.985,371.939c27.47,0,53.692,2.954,77.748,8.295c3.116,0.692,5.801-2.323,4.84-5.466
			c-11.094-36.28-43.841-62.6-82.588-62.6s-71.494,26.319-82.588,62.6c-0.961,3.143,1.724,6.158,4.84,5.466
			C202.294,374.893,228.515,371.939,255.985,371.939z"/>
		<path style="fill:#A5CDFF;" d="M79.688,424.394c26.563,0,48.097-21.534,48.097-48.097c0-39.647-32.681-90.187-44.165-106.722
			c-1.905-2.743-5.959-2.743-7.864,0C64.273,286.11,31.591,336.65,31.591,376.297C31.591,402.86,53.125,424.394,79.688,424.394z"/>
		<path style="fill:#8CB4EB;" d="M54.265,385.034c0-29.127,17.631-78.122,31.546-112.26c-0.788-1.163-1.532-2.251-2.19-3.198
			c-1.906-2.744-5.959-2.744-7.864,0c-11.484,16.535-44.165,67.075-44.165,106.722c0,24.67,18.645,44.768,42.571,47.54
			C62.154,415.092,54.265,401.026,54.265,385.034z"/>
		<path style="fill:#7D5046;" d="M255.985,336.216c23.956,0,46.609,3.204,66.981,8.835c-15.877-20.056-39.956-32.883-66.98-32.883
			c-27.025,0-51.104,12.826-66.98,32.883C209.377,339.42,232.029,336.216,255.985,336.216z"/>
		<path style="fill:#C4DEFF;" d="M256.043,146.501c105.243,0,197.073,57.175,246.308,142.115
			c1.396-10.664,2.192-21.516,2.192-32.561c0-137.243-111.257-248.5-248.5-248.5s-248.5,111.257-248.5,248.5
			c0,11.045,0.796,21.897,2.192,32.561C58.97,203.676,150.8,146.501,256.043,146.501z"/>
		<path style="fill:#A5CDFF;" d="M43.615,219.983c0-59.433,20.891-113.971,55.695-156.733
			C43.326,108.815,7.543,178.245,7.543,256.055c0,11.044,0.796,21.897,2.192,32.56v0.001c9.93-17.131,21.668-33.063,34.824-47.695
			C43.982,234.011,43.615,227.042,43.615,219.983z"/>
		<path style="fill:#7D5046;" d="M340.212,264.071L340.212,264.071c-11.068,0-20.04-8.972-20.04-20.04v-16.032
			c0-11.068,8.972-20.04,20.04-20.04h0c11.068,0,20.04,8.972,20.04,20.04v16.032C360.253,255.099,351.28,264.071,340.212,264.071z"
			/>
		<path style="fill:#9C6846;" d="M360.253,227.999c0-12.379-11.222-22.135-24.048-19.651l0,15.643
			c0,13.282,10.767,24.048,24.048,24.048h0V227.999z"/>
		<path style="fill:#7D5046;" d="M171.874,264.071L171.874,264.071c-11.068,0-20.04-8.972-20.04-20.04v-16.032
			c0-11.068,8.972-20.04,20.04-20.04h0c11.068,0,20.04,8.972,20.04,20.04v16.032C191.914,255.099,182.942,264.071,171.874,264.071z"
			/>
		<path style="fill:#9C6846;" d="M191.914,227.999c0-12.379-11.222-22.135-24.048-19.651v15.643
			c0,13.282,10.767,24.048,24.048,24.048h0V227.999z"/>
	</g>
	<g>
		<path d="M171.864,271.572c15.187,0,27.542-12.355,27.542-27.542v-12.026c0-4.142-3.358-7.5-7.5-7.5s-7.5,3.358-7.5,7.5v12.026
			c0,6.916-5.626,12.542-12.542,12.542s-12.542-5.626-12.542-12.542v-16.034c0-6.916,5.626-12.542,12.542-12.542
			c4.142,0,7.5-3.358,7.5-7.5s-3.358-7.5-7.5-7.5c-15.187,0-27.542,12.355-27.542,27.542v16.034
			C144.321,259.217,156.677,271.572,171.864,271.572z"/>
		<path d="M367.765,244.03v-12.026c0-4.142-3.358-7.5-7.5-7.5s-7.5,3.358-7.5,7.5v12.026c0,6.916-5.626,12.542-12.542,12.542
			s-12.543-5.626-12.543-12.542v-16.034c0-6.916,5.627-12.542,12.543-12.542c4.142,0,7.5-3.358,7.5-7.5s-3.358-7.5-7.5-7.5
			c-15.187,0-27.543,12.355-27.543,27.542v16.034c0,15.187,12.356,27.542,27.543,27.542S367.765,259.217,367.765,244.03z"/>
		<path d="M448.344,87.104c-2.736-3.109-7.476-3.411-10.585-0.675c-3.109,2.737-3.412,7.476-0.675,10.585
			c40.421,45.926,61.677,104.995,59.852,166.328c-1.833,61.603-26.856,119.543-70.459,163.146
			c-85.713,85.713-222.441,94.339-318.04,20.067c-3.271-2.542-7.983-1.95-10.524,1.321c-2.541,3.271-1.95,7.983,1.321,10.524
			c46.235,35.92,101.524,53.589,156.632,53.589c65.939,0,131.62-25.298,181.217-74.896c46.318-46.317,72.899-107.866,74.847-173.306
			C513.868,198.642,491.287,135.894,448.344,87.104z"/>
		<path d="M197.247,138.568c-2.912-2.932-7.657-2.946-10.598-0.043c-0.231,0.228-23.726,22.989-76.945,38.194
			c-3.982,1.138-6.289,5.289-5.151,9.272c0.941,3.294,3.944,5.441,7.208,5.441c0.682,0,1.376-0.094,2.064-0.291
			c57.329-16.379,82.375-40.955,83.413-41.993C200.161,146.226,200.16,141.499,197.247,138.568z"/>
		<path d="M179.883,387.599c24.263-5.387,49.877-8.118,76.131-8.118s51.869,2.731,76.132,8.118c0.852,0.189,1.707,0.282,2.552,0.282
			c3.184,0,6.228-1.316,8.47-3.741c2.846-3.078,3.849-7.493,2.617-11.522c-12.422-40.621-48.498-67.914-89.771-67.914
			s-77.348,27.292-89.77,67.913c-1.232,4.029-0.23,8.444,2.615,11.522C171.697,387.207,175.818,388.501,179.883,387.599z
			 M256.014,319.703c32.827,0,61.77,20.685,73.625,52.026c-23.605-4.811-48.343-7.249-73.625-7.249
			c-25.282,0-50.02,2.438-73.625,7.249C194.245,340.388,223.187,319.703,256.014,319.703z"/>
		<path d="M135.299,376.34c0-20.432-7.818-45.51-23.238-74.539c-1.943-3.658-6.485-5.048-10.142-3.105
			c-3.658,1.943-5.048,6.484-3.105,10.142c14.056,26.46,21.485,49.802,21.485,67.501c0,22.388-18.214,40.602-40.603,40.602
			s-40.602-18.214-40.602-40.602c0-35.083,28.023-80.545,40.61-99.193c0.79,1.167,1.639,2.439,2.537,3.805
			c2.275,3.461,6.927,4.423,10.387,2.147c3.461-2.275,4.423-6.926,2.147-10.387c-5.288-8.044-8.927-12.908-9.08-13.111
			c-1.417-1.889-3.639-3-6-3s-4.583,1.111-6,3c-1.564,2.085-30.278,40.72-43.287,81.248c-14.847-39.414-19.078-81.873-12.19-123.975
			c8.171-49.95,31.475-95.336,67.391-131.252c43.603-43.603,101.543-68.626,163.146-70.459
			c61.335-1.829,120.402,19.43,166.328,59.852c3.109,2.737,7.848,2.436,10.585-0.675c2.737-3.109,2.435-7.848-0.675-10.585
			C376.204,20.811,313.455-1.765,248.31,0.169c-65.44,1.948-126.989,28.529-173.306,74.847
			c-38.151,38.151-62.905,86.367-71.587,139.437c-8.479,51.827-1.102,104.173,21.329,151.403c-0.419,3.544-0.65,7.048-0.65,10.485
			c0,30.659,24.943,55.602,55.602,55.602S135.299,406.999,135.299,376.34z"/>
		<path d="M400.383,191.432c3.263,0,6.267-2.147,7.208-5.441c1.138-3.983-1.168-8.134-5.151-9.272
			c-53.219-15.205-76.714-37.966-76.928-38.177c-2.929-2.929-7.678-2.929-10.606,0c-2.929,2.929-2.929,7.678,0,10.606
			c1.038,1.038,26.084,25.614,83.414,41.993C399.007,191.338,399.7,191.432,400.383,191.432z"/>
	</g>
</g>
<g>
</g>
<g>
</g>
<g>
</g>
<g>
</g>
<g>
</g>
<g>
</g>
<g>
</g>
<g>
</g>
<g>
</g>
<g>
</g>
<g>
</g>
<g>
</g>
<g>
</g>
<g>
</g>
<g>
</g>
</svg>
