<?xml version="1.0" encoding="iso-8859-1"?>
<!-- Generator: Adobe Illustrator 19.0.0, SVG Export Plug-In . SVG Version: 6.00 Build 0)  -->
<svg version="1.1" id="Capa_1" xmlns="http://www.w3.org/2000/svg" xmlns:xlink="http://www.w3.org/1999/xlink" x="0px" y="0px"
	 viewBox="0 0 512.003 512.003" style="enable-background:new 0 0 512.003 512.003;" xml:space="preserve">
<g>
	<g>
		<circle style="fill:#FFE17D;" cx="256.001" cy="256.001" r="248.5"/>
		<path style="fill:#FFD164;" d="M292.074,468.428c-137.243,0-248.5-111.258-248.5-248.5c0-59.433,20.891-113.971,55.695-156.733
			C43.284,108.76,7.501,178.191,7.501,256.001c0,137.242,111.257,248.5,248.5,248.5c77.81,0,147.242-35.784,192.806-91.769
			C406.046,447.537,351.507,468.428,292.074,468.428z"/>
		<ellipse style="fill:#FFD164;" cx="159.807" cy="256.001" rx="64.129" ry="56.113"/>
		<ellipse style="fill:#FFD164;" cx="352.195" cy="256.001" rx="64.129" ry="56.113"/>
		<g>
			<path style="fill:#6E5A64;" d="M79.646,175.839c-4.427,0-8.016,3.589-8.016,8.016v15.468c0,5.36,2.679,10.366,7.139,13.339
				l40.957,27.305l40.081-64.129H79.646z"/>
			<ellipse style="fill:#5A4650;" cx="159.807" cy="231.952" rx="64.129" ry="56.113"/>
			<path style="fill:#84737B;" d="M159.807,215.92c23.338,0,45.048,3.153,63.489,8.523c-4.204-27.43-30.989-48.604-63.489-48.604
				s-59.285,21.173-63.489,48.604C114.76,219.073,136.471,215.92,159.807,215.92z"/>
		</g>
		<g>
			<path style="fill:#6E5A64;" d="M424.34,175.839c4.427,0,8.016,3.589,8.016,8.016v15.468c0,5.36-2.679,10.366-7.139,13.339
				l-40.957,27.305l-40.081-64.129H424.34z"/>
			<ellipse style="fill:#5A4650;" cx="344.178" cy="231.952" rx="64.129" ry="56.113"/>
			<path style="fill:#84737B;" d="M344.178,215.92c-23.338,0-45.048,3.153-63.489,8.523c4.204-27.43,30.989-48.604,63.489-48.604
				s59.285,21.173,63.489,48.604C389.226,219.073,367.515,215.92,344.178,215.92z"/>
		</g>
	</g>
	<g>
		<path d="M346.136,331.698c-20.755,28.207-54.45,45.047-90.135,45.047c-35.684,0-69.38-16.84-90.135-45.047
			c-2.456-3.337-7.15-4.051-10.486-1.596c-3.336,2.455-4.051,7.15-1.596,10.486c23.571,32.033,61.783,51.158,102.217,51.158
			c40.435,0,78.646-19.125,102.217-51.158c2.455-3.336,1.74-8.031-1.596-10.486S348.59,328.361,346.136,331.698z"/>
		<path d="M15.108,248.714c1.833-61.604,26.857-119.543,70.459-163.146c43.603-43.603,101.543-68.626,163.146-70.459
			c61.333-1.83,120.402,19.43,166.328,59.852c3.109,2.737,7.849,2.436,10.585-0.675c2.737-3.109,2.435-7.848-0.675-10.585
			C376.161,20.757,313.411-1.815,248.268,0.115c-65.44,1.948-126.989,28.529-173.306,74.847
			C28.644,121.279,2.063,182.826,0.115,248.267C-1.824,313.414,20.757,376.162,63.7,424.951c1.482,1.685,3.552,2.545,5.633,2.545
			c1.76,0,3.527-0.616,4.952-1.87c3.109-2.737,3.412-7.476,0.675-10.585C34.538,369.116,13.283,310.046,15.108,248.714z"/>
		<path d="M448.302,87.05c-2.736-3.109-7.476-3.411-10.585-0.675c-3.109,2.737-3.412,7.476-0.675,10.585
			c40.421,45.926,61.677,104.995,59.852,166.328c-1.833,61.603-26.856,119.543-70.459,163.146
			c-43.603,43.603-101.542,68.626-163.146,70.459c-61.338,1.826-120.402-19.43-166.328-59.851
			c-3.108-2.736-7.848-2.435-10.585,0.675c-2.737,3.109-2.435,7.848,0.675,10.585c46.854,41.239,106.58,63.7,168.942,63.7
			c2.576,0,5.158-0.039,7.742-0.116c65.441-1.948,126.989-28.529,173.306-74.846c46.318-46.317,72.899-107.866,74.847-173.306
			C513.826,198.588,491.245,135.84,448.302,87.05z"/>
		<path d="M447.865,199.288v-15.47c0-8.556-6.961-15.517-15.517-15.517h-80.171c-30.92,0-57.324,17.489-67.337,41.912
			c-8.186-6.292-18.32-9.843-28.852-9.843c-10.555,0-20.693,3.552-28.878,9.854c-10.01-24.428-36.417-41.922-67.341-41.922h-80.17
			c-8.556,0-15.517,6.961-15.517,15.517v15.47c0,7.887,3.917,15.207,10.479,19.582l13.72,9.146
			c-0.089,1.293-0.148,2.593-0.148,3.905c0,35.08,32.136,63.62,71.636,63.62s71.636-28.54,71.636-63.62
			c0-1.653-0.094-3.286-0.234-4.907c6.114-7.328,15.211-11.644,24.818-11.644c9.579,0,18.678,4.304,24.79,11.607
			c-0.142,1.634-0.237,3.279-0.237,4.944c0,35.08,32.136,63.62,71.636,63.62s71.637-28.54,71.637-63.62
			c0-1.312-0.059-2.612-0.148-3.905l13.719-9.146C443.947,214.495,447.865,207.175,447.865,199.288z M82.88,206.389
			c-2.379-1.586-3.8-4.241-3.8-7.101v-15.47c0-0.285,0.232-0.517,0.517-0.517h34.039c-10.089,7.562-17.796,17.547-21.98,28.938
			L82.88,206.389z M159.768,280.54c-31.229,0-56.636-21.811-56.636-48.62c0-26.809,25.407-48.619,56.636-48.619
			s56.636,21.811,56.636,48.619C216.404,258.73,190.997,280.54,159.768,280.54z M352.177,280.54
			c-31.229,0-56.636-21.811-56.636-48.62c0-26.809,25.407-48.619,56.636-48.619s56.637,21.811,56.637,48.619
			C408.814,258.73,383.406,280.54,352.177,280.54z M432.865,199.288c0,2.86-1.421,5.515-3.8,7.101l-8.776,5.851
			c-4.184-11.391-11.891-21.376-21.98-28.938h34.039c0.285,0,0.517,0.232,0.517,0.517V199.288z"/>
		<path d="M183.819,151.233c4.142,0,7.5-3.358,7.5-7.5s-3.358-7.5-7.5-7.5h-48.103c-4.142,0-7.5,3.358-7.5,7.5s3.358,7.5,7.5,7.5
			H183.819z"/>
		<path d="M376.228,151.233c4.142,0,7.5-3.358,7.5-7.5s-3.358-7.5-7.5-7.5h-48.102c-4.142,0-7.5,3.358-7.5,7.5s3.358,7.5,7.5,7.5
			H376.228z"/>
	</g>
</g>
<g>
</g>
<g>
</g>
<g>
</g>
<g>
</g>
<g>
</g>
<g>
</g>
<g>
</g>
<g>
</g>
<g>
</g>
<g>
</g>
<g>
</g>
<g>
</g>
<g>
</g>
<g>
</g>
<g>
</g>
</svg>
