<?xml version="1.0" encoding="iso-8859-1"?>
<!-- Generator: Adobe Illustrator 19.0.0, SVG Export Plug-In . SVG Version: 6.00 Build 0)  -->
<svg version="1.1" id="Capa_1" xmlns="http://www.w3.org/2000/svg" xmlns:xlink="http://www.w3.org/1999/xlink" x="0px" y="0px"
	 viewBox="0 0 512.02 512.02" style="enable-background:new 0 0 512.02 512.02;" xml:space="preserve">
<g>
	<g>
		<circle style="fill:#FFE17D;" cx="256.001" cy="256.01" r="248.5"/>
		<path style="fill:#FFD164;" d="M292.074,468.437c-137.243,0-248.5-111.258-248.5-248.5c0-59.433,20.891-113.971,55.695-156.733
			C43.284,108.769,7.501,178.2,7.501,256.01c0,137.242,111.257,248.5,248.5,248.5c77.81,0,147.242-35.784,192.806-91.769
			C406.046,447.545,351.507,468.437,292.074,468.437z"/>
		<path style="fill:#7D5046;" d="M340.17,256.01L340.17,256.01c-11.068,0-20.04-8.972-20.04-20.04v-16.032
			c0-11.068,8.972-20.04,20.04-20.04h0c11.068,0,20.04,8.972,20.04,20.04v16.032C360.211,247.037,351.238,256.01,340.17,256.01z"/>
		<path style="fill:#9C6846;" d="M360.211,219.937c0-12.379-11.222-22.135-24.048-19.651v15.643
			c0,13.282,10.767,24.048,24.048,24.048h0V219.937z"/>
		<path style="fill:#7D5046;" d="M171.832,256.01L171.832,256.01c-11.068,0-20.04-8.972-20.04-20.04v-16.032
			c0-11.068,8.972-20.04,20.04-20.04h0c11.068,0,20.04,8.972,20.04,20.04v16.032C191.872,247.037,182.9,256.01,171.832,256.01z"/>
		<path style="fill:#9C6846;" d="M191.872,219.937c0-12.379-11.222-22.135-24.048-19.651v15.643
			c0,13.282,10.767,24.048,24.048,24.048h0V219.937z"/>
		<path style="fill:#C9C6CA;" d="M478.154,396.056l-34.01,34.01l-26.848-26.848c-9.391-9.391-9.391-24.618,0-34.01l0,0
			c9.391-9.391,24.618-9.391,34.01,0L478.154,396.056z"/>
	</g>
	<g>
		<path d="M171.822,207.362c4.142,0,7.5-3.358,7.5-7.5s-3.358-7.5-7.5-7.5c-15.187,0-27.542,12.355-27.542,27.542v16.034
			c0,15.187,12.355,27.542,27.542,27.542s27.542-12.355,27.542-27.542v-12.026c0-4.142-3.358-7.5-7.5-7.5s-7.5,3.358-7.5,7.5v12.026
			c0,6.916-5.626,12.542-12.542,12.542s-12.542-5.626-12.542-12.542v-16.034C159.279,212.988,164.906,207.362,171.822,207.362z"/>
		<path d="M340.18,207.362c4.142,0,7.5-3.358,7.5-7.5s-3.358-7.5-7.5-7.5c-15.187,0-27.543,12.355-27.543,27.542v16.034
			c0,15.187,12.356,27.542,27.543,27.542s27.542-12.355,27.542-27.542v-12.026c0-4.142-3.358-7.5-7.5-7.5s-7.5,3.358-7.5,7.5v12.026
			c0,6.916-5.626,12.542-12.542,12.542s-12.543-5.626-12.543-12.542v-16.034C327.637,212.988,333.264,207.362,340.18,207.362z"/>
		<path d="M15.108,248.722c1.833-61.604,26.857-119.543,70.459-163.146c43.603-43.603,101.543-68.626,163.146-70.459
			c61.336-1.832,120.402,19.43,166.328,59.852c3.109,2.737,7.848,2.436,10.585-0.675c2.737-3.109,2.435-7.848-0.675-10.585
			C376.162,20.766,313.415-1.808,248.268,0.123C182.827,2.071,121.279,28.652,74.962,74.97
			C28.644,121.287,2.063,182.835,0.115,248.276C-1.824,313.423,20.757,376.171,63.7,424.96c1.482,1.685,3.552,2.545,5.633,2.545
			c1.76,0,3.527-0.616,4.952-1.87c3.109-2.737,3.412-7.476,0.675-10.585C34.538,369.125,13.283,310.055,15.108,248.722z"/>
		<path d="M477.425,384.654c26.371-45.279,38.025-96.847,33.721-149.538c-4.516-55.28-26.247-106.478-62.844-148.058
			c-2.736-3.109-7.476-3.412-10.585-0.675s-3.412,7.476-0.675,10.585c34.448,39.138,54.903,87.331,59.154,139.369
			c3.944,48.277-6.332,95.549-29.76,137.327l-9.776-9.776c-5.959-5.959-13.882-9.241-22.31-9.241
			c-5.867,0-11.488,1.594-16.373,4.572l-7.641-7.641c-4.445-4.445-10.355-6.893-16.641-6.893h-33.961v-8.534
			c0-4.142-3.358-7.5-7.5-7.5s-7.5,3.358-7.5,7.5v8.534h-33.103v-8.534c0-4.142-3.358-7.5-7.5-7.5s-7.5,3.358-7.5,7.5v8.534H263.53
			v-8.534c0-4.142-3.358-7.5-7.5-7.5c-4.142,0-7.5,3.358-7.5,7.5v8.534h-33.103v-8.534c0-4.142-3.358-7.5-7.5-7.5
			s-7.5,3.358-7.5,7.5v8.534h-33.102v-8.534c0-4.142-3.358-7.5-7.5-7.5s-7.5,3.358-7.5,7.5v8.534h-40.603
			c-4.142,0-7.5,3.358-7.5,7.5s3.358,7.5,7.5,7.5h16.551v8.534c0,4.142,3.358,7.5,7.5,7.5s7.5-3.358,7.5-7.5v-8.534h33.102v8.534
			c0,4.142,3.358,7.5,7.5,7.5s7.5-3.358,7.5-7.5v-8.534h33.103v8.534c0,4.142,3.358,7.5,7.5,7.5s7.5-3.358,7.5-7.5v-8.534h33.103
			v8.534c0,4.142,3.358,7.5,7.5,7.5s7.5-3.358,7.5-7.5v-8.534h33.102v8.534c0,4.142,3.358,7.5,7.5,7.5s7.5-3.358,7.5-7.5v-8.534
			h33.103v8.534c0,4.142,3.358,7.5,7.5,7.5s7.5-3.358,7.5-7.5v-8.534h9.91c2.279,0,4.423,0.888,6.035,2.5l7.641,7.641
			c-2.977,4.886-4.572,10.506-4.572,16.373c0,8.428,3.282,16.351,9.241,22.31l16.149,16.149c-0.585,0.597-1.167,1.198-1.755,1.785
			c-43.603,43.603-101.542,68.626-163.146,70.459c-61.333,1.83-120.402-19.43-166.328-59.851c-3.108-2.736-7.848-2.435-10.585,0.675
			c-2.737,3.109-2.435,7.848,0.675,10.585c46.854,41.239,106.58,63.7,168.942,63.7c2.576,0,5.158-0.039,7.742-0.116
			c65.441-1.948,126.989-28.529,173.306-74.846c0.587-0.587,1.17-1.189,1.755-1.785l12.927,12.927
			c4.588,4.588,10.615,6.882,16.641,6.882s12.053-2.294,16.641-6.882l11.338-11.338c9.176-9.176,9.176-24.106,0-33.282
			L477.425,384.654z M422.647,374.495c3.227-3.227,7.465-4.84,11.704-4.84s8.477,1.613,11.704,4.84l21.548,21.548l-23.407,23.407
			l-21.548-21.548C416.193,391.449,416.193,380.949,422.647,374.495z M485.736,426.247l-11.338,11.338
			c-3.327,3.327-8.742,3.327-12.069,0l-7.528-7.528l23.407-23.407l7.528,7.528C489.064,417.506,489.064,422.919,485.736,426.247z"/>
	</g>
</g>
<g>
</g>
<g>
</g>
<g>
</g>
<g>
</g>
<g>
</g>
<g>
</g>
<g>
</g>
<g>
</g>
<g>
</g>
<g>
</g>
<g>
</g>
<g>
</g>
<g>
</g>
<g>
</g>
<g>
</g>
</svg>
