<?xml version="1.0" encoding="iso-8859-1"?>
<!-- Generator: Adobe Illustrator 19.0.0, SVG Export Plug-In . SVG Version: 6.00 Build 0)  -->
<svg version="1.1" id="Capa_1" xmlns="http://www.w3.org/2000/svg" xmlns:xlink="http://www.w3.org/1999/xlink" x="0px" y="0px"
	 viewBox="0 0 512.003 512.003" style="enable-background:new 0 0 512.003 512.003;" xml:space="preserve">
<g>
	<g>
		<circle style="fill:#FFE17D;" cx="256.001" cy="256.001" r="248.5"/>
		<path style="fill:#9C6846;" d="M255.944,303.865c-47.897,0-93.618-5.56-135.563-15.611c-5.433-1.302-10.116,4.373-8.44,10.287
			c19.344,68.279,76.442,117.811,144.002,117.811s124.658-49.532,144.002-117.811c1.676-5.915-3.007-11.589-8.44-10.287
			C349.561,298.305,303.841,303.865,255.944,303.865z"/>
		<path style="fill:#7D5046;" d="M256.024,343.032c44.44,0,88.277-4.539,131.413-12.663c5.071-10.038,9.342-20.649,12.509-31.827
			c1.676-5.915-3.006-11.589-8.44-10.288c-41.945,10.051-87.665,15.611-135.562,15.611c-47.898,0-93.618-5.56-135.563-15.611
			c-5.433-1.302-10.116,4.372-8.44,10.288c3.164,11.167,7.43,21.766,12.494,31.796C167.627,338.484,211.523,343.032,256.024,343.032
			z"/>
		<path style="fill:#BEE86E;" d="M320.13,300.423c-20.848,2.225-42.274,3.442-64.186,3.442c-21.872,0-43.26-1.213-64.072-3.43
			v91.869c0,35.417,28.712,64.129,64.129,64.129c35.417,0,64.129-28.712,64.129-64.129V300.423z"/>
		<path style="fill:#FFD164;" d="M292.074,468.428c-137.243,0-248.5-111.258-248.5-248.5c0-59.433,20.891-113.971,55.695-156.733
			C43.284,108.76,7.501,178.191,7.501,256.001c0,137.242,111.257,248.5,248.5,248.5c77.81,0,147.242-35.784,192.806-91.769
			C406.046,447.537,351.507,468.428,292.074,468.428z"/>
		<path style="fill:#AFD755;" d="M191.872,300.435v27.712c21.237,2.022,42.62,3.134,64.152,3.134c21.516,0,42.884-1.11,64.107-3.13
			v-27.727c-20.848,2.225-42.274,3.442-64.186,3.442C234.072,303.865,212.684,302.652,191.872,300.435z"/>
	</g>
	<g>
		<path d="M15.108,248.714c1.833-61.604,26.857-119.543,70.459-163.146c43.603-43.603,101.543-68.626,163.146-70.459
			c61.338-1.833,120.401,19.43,166.328,59.852c3.109,2.737,7.848,2.436,10.585-0.675c2.737-3.109,2.435-7.848-0.675-10.585
			c-48.79-42.943-111.535-65.52-176.684-63.585c-65.44,1.948-126.989,28.529-173.306,74.847
			C28.644,121.279,2.063,182.827,0.115,248.268C-1.824,313.415,20.757,376.162,63.7,424.952c1.482,1.685,3.552,2.545,5.633,2.545
			c1.76,0,3.527-0.616,4.952-1.87c3.109-2.737,3.412-7.476,0.675-10.585C34.538,369.116,13.283,310.046,15.108,248.714z"/>
		<path d="M448.302,87.05c-2.736-3.109-7.476-3.411-10.585-0.675c-3.109,2.737-3.412,7.476-0.675,10.585
			c40.421,45.926,61.677,104.995,59.852,166.328c-1.833,61.603-26.856,119.543-70.459,163.146
			c-43.603,43.603-101.542,68.626-163.146,70.459c-61.336,1.833-120.402-19.43-166.328-59.851
			c-3.108-2.736-7.848-2.435-10.585,0.675c-2.737,3.109-2.435,7.848,0.675,10.585c46.854,41.239,106.58,63.7,168.942,63.7
			c2.576,0,5.158-0.039,7.742-0.116c65.441-1.948,126.989-28.529,173.306-74.846c46.318-46.317,72.899-107.866,74.847-173.306
			C513.826,198.588,491.245,135.84,448.302,87.05z"/>
		<path d="M190.1,96.365c-48.69,11.987-81.906,40.499-83.296,41.707c-3.127,2.717-3.459,7.454-0.743,10.581
			c1.483,1.707,3.568,2.581,5.665,2.581c1.744,0,3.496-0.605,4.916-1.838c0.313-0.272,31.834-27.334,77.044-38.464
			c4.022-0.99,6.48-5.054,5.49-9.076S194.123,95.376,190.1,96.365z"/>
		<path d="M405.198,138.072c-1.39-1.208-34.606-29.719-83.296-41.707c-4.021-0.987-8.085,1.468-9.076,5.49
			c-0.99,4.022,1.468,8.085,5.49,9.076c44.885,11.05,76.518,38.011,77.045,38.465c1.42,1.233,3.171,1.837,4.915,1.837
			c2.097,0,4.182-0.874,5.665-2.581C408.658,145.526,408.325,140.789,405.198,138.072z"/>
		<path d="M192.353,185.322c0,4.142,3.358,7.5,7.5,7.5s7.5-3.358,7.5-7.5c0-12.641-13.347-22.523-32.068-24.619v-8.952
			c0-4.142-3.358-7.5-7.5-7.5s-7.5,3.358-7.5,7.5v8.952c-18.721,2.096-32.068,11.978-32.068,24.619
			c0,17.624,17.616,24.3,32.068,28.311v26.257c-10.737-1.648-17.068-6.559-17.068-9.472c0-4.142-3.358-7.5-7.5-7.5
			s-7.5,3.358-7.5,7.5c0,12.641,13.347,22.523,32.068,24.619v8.952c0,4.142,3.358,7.5,7.5,7.5s7.5-3.358,7.5-7.5v-8.952
			c18.721-2.096,32.068-11.978,32.068-24.619c0-17.625-17.616-24.3-32.068-28.311V175.85
			C186.022,177.498,192.353,182.409,192.353,185.322z M143.216,185.322c0-2.913,6.332-7.823,17.068-9.472v22.1
			C147.724,194.002,143.216,190.478,143.216,185.322z M192.353,230.418c0,2.913-6.332,7.823-17.068,9.472v-22.1
			C187.845,221.737,192.353,225.261,192.353,230.418z"/>
		<path d="M319.592,230.418c0-4.142-3.358-7.5-7.5-7.5s-7.5,3.358-7.5,7.5c0,12.641,13.347,22.523,32.068,24.619v8.952
			c0,4.142,3.358,7.5,7.5,7.5s7.5-3.358,7.5-7.5v-8.952c18.721-2.097,32.068-11.978,32.068-24.619
			c0-17.625-17.615-24.3-32.068-28.31V175.85c10.737,1.648,17.068,6.559,17.068,9.472c0,4.142,3.358,7.5,7.5,7.5s7.5-3.358,7.5-7.5
			c0-12.641-13.347-22.522-32.068-24.619v-8.952c0-4.142-3.358-7.5-7.5-7.5s-7.5,3.358-7.5,7.5v8.952
			c-18.721,2.096-32.068,11.978-32.068,24.619c0,17.625,17.616,24.3,32.068,28.311v26.257
			C325.923,238.241,319.592,233.331,319.592,230.418z M368.728,230.418c0,2.913-6.331,7.823-17.068,9.472v-22.1
			C364.221,221.737,368.728,225.261,368.728,230.418z M319.592,185.322c0-2.913,6.332-7.823,17.068-9.472v22.1
			C324.1,194.003,319.592,190.478,319.592,185.322z"/>
		<path d="M239.421,400.559c0-4.142-3.358-7.5-7.5-7.5s-7.5,3.358-7.5,7.5c0,11.142,10.096,20.218,24.051,22.641v1.159
			c0,4.142,3.358,7.5,7.5,7.5c4.142,0,7.5-3.358,7.5-7.5V423.2c13.955-2.423,24.051-11.499,24.051-22.641
			c0-15.696-12.989-21.98-24.051-25.753v-22.11c5.675,1.61,9.051,4.838,9.051,7.277c0,4.142,3.358,7.5,7.5,7.5s7.5-3.358,7.5-7.5
			c0-11.142-10.096-20.218-24.051-22.642v-1.159c0-4.142-3.358-7.5-7.5-7.5c-4.142,0-7.5,3.358-7.5,7.5v1.159
			c-13.955,2.424-24.051,11.5-24.051,22.642c0,15.697,12.989,21.98,24.051,25.753v22.11
			C242.797,406.226,239.421,402.998,239.421,400.559z M272.523,400.559c0,2.439-3.376,5.667-9.051,7.277v-16.918
			C270.949,394.148,272.523,396.878,272.523,400.559z M239.421,359.972c0-2.439,3.376-5.667,9.051-7.277v16.918
			C240.996,366.382,239.421,363.653,239.421,359.972z"/>
		<path d="M104.795,300.559c12.891,45.51,42.253,83.558,80.765,104.842c6.179,33.259,35.391,58.527,70.413,58.527
			c35.022,0,64.235-25.269,70.414-58.529c38.507-21.281,67.878-59.347,80.764-104.839c1.568-5.535,0.128-11.489-3.759-15.539
			c-3.595-3.744-8.693-5.273-13.642-4.085c-42.646,10.221-87.654,15.403-133.776,15.403s-91.131-5.182-133.776-15.403
			c-4.949-1.186-10.047,0.341-13.641,4.085C104.668,289.069,103.227,295.023,104.795,300.559z M119.237,295.65
			c43.629,10.41,89.63,15.688,136.735,15.688s93.105-5.278,136.735-15.688c0.068,0.179,0.114,0.453,0.01,0.82
			c-10.829,38.232-34.257,70.677-65.108,90.719v-51.018c0-4.142-3.358-7.5-7.5-7.5s-7.5,3.358-7.5,7.5v56.12
			c0,31.229-25.407,56.636-56.637,56.636s-56.636-25.407-56.636-56.636v-56.12c0-4.142-3.358-7.5-7.5-7.5s-7.5,3.358-7.5,7.5v51.016
			c-30.854-20.04-54.276-52.47-65.109-90.716C119.123,296.104,119.169,295.829,119.237,295.65z"/>
	</g>
</g>
<g>
</g>
<g>
</g>
<g>
</g>
<g>
</g>
<g>
</g>
<g>
</g>
<g>
</g>
<g>
</g>
<g>
</g>
<g>
</g>
<g>
</g>
<g>
</g>
<g>
</g>
<g>
</g>
<g>
</g>
</svg>
