<?xml version="1.0" encoding="iso-8859-1"?>
<!-- Generator: Adobe Illustrator 19.0.0, SVG Export Plug-In . SVG Version: 6.00 Build 0)  -->
<svg version="1.1" id="Capa_1" xmlns="http://www.w3.org/2000/svg" xmlns:xlink="http://www.w3.org/1999/xlink" x="0px" y="0px"
	 viewBox="0 0 512 512" style="enable-background:new 0 0 512 512;" xml:space="preserve">
<g>
	<g>
		<path style="fill:#C9C6CA;" d="M480.452,231.952C480.452,355.913,353.398,504.5,256,504.5S31.548,355.913,31.548,231.952
			S132.039,7.5,256,7.5S480.452,107.99,480.452,231.952z"/>
		<path style="fill:#B7B2B8;" d="M304.097,488.468c-97.398,0-224.452-156.604-224.452-280.565
			c0-78.304,40.123-147.207,100.906-187.367C93.713,51.531,31.548,134.466,31.548,231.952C31.548,355.912,158.602,504.5,256,504.5
			c19.859,0,40.95-6.261,61.947-17.147C313.282,488.018,308.648,488.468,304.097,488.468z"/>
		<path style="fill:#6E5A64;" d="M174.911,335.316L174.911,335.316c-30.663,4.49-59.161-16.728-63.65-47.392l-6.968-47.589
			c-4.49-30.663,16.728-59.16,47.392-63.65l0,0c30.663-4.49,59.16,16.728,63.65,47.392l6.968,47.589
			C226.792,302.329,205.575,330.826,174.911,335.316z"/>
		<path style="fill:#5A4650;" d="M196.383,315.968c-30.664,4.49-59.161-16.728-63.65-47.392l-11.311-77.253
			c-12.902,12.139-19.89,30.153-17.129,49.011l6.968,47.589c4.49,30.663,32.987,51.881,63.65,47.392
			c16.581-2.428,30.351-11.908,38.837-24.921C208.432,313.108,202.617,315.056,196.383,315.968z"/>
		<path style="fill:#6E5A64;" d="M337.089,335.316L337.089,335.316c-30.663-4.49-51.881-32.987-47.392-63.65l6.968-47.589
			c4.49-30.663,32.987-51.881,63.65-47.392l0,0c30.663,4.49,51.881,32.987,47.392,63.65l-6.968,47.589
			C396.249,318.587,367.752,339.805,337.089,335.316z"/>
		<path style="fill:#5A4650;" d="M363.206,322.936c-30.664-4.49-51.881-32.987-47.392-63.65l11.311-77.253
			c-15.841,7.93-27.7,23.185-30.461,42.043l-6.968,47.589c-4.49,30.663,16.728,59.161,47.392,63.65
			c16.581,2.428,32.491-2.706,44.351-12.741C375.569,323.65,369.44,323.849,363.206,322.936z"/>
	</g>
	<g>
		<path d="M448.471,102.463c-2.315-3.435-6.976-4.342-10.411-2.027c-3.435,2.315-4.342,6.977-2.027,10.411
			c24.153,35.833,36.919,77.71,36.919,121.104c0,55.944-27.648,122.469-73.959,177.954c-21.723,26.026-46.199,47.833-70.782,63.066
			C302.839,488.691,277.87,497,256,497c-37.121,0-81.933-23.71-122.946-65.05c-2.917-2.94-7.667-2.959-10.606-0.042
			c-2.94,2.917-2.959,7.666-0.042,10.606C166.215,486.673,214.909,512,256,512c48.413,0,106.173-34.573,154.508-92.483
			c48.493-58.099,77.444-128.217,77.444-187.565C487.952,185.559,474.299,140.782,448.471,102.463z"/>
		<path d="M39.048,231.952c0-57.95,22.567-112.431,63.543-153.408C143.569,37.567,198.05,15,256,15
			c30.797,0,60.551,6.318,88.433,18.78c26.941,12.041,50.802,29.182,70.92,50.946c2.812,3.042,7.557,3.229,10.598,0.417
			c3.042-2.812,3.229-7.557,0.417-10.598c-21.503-23.263-47.011-41.585-75.814-54.459C320.733,6.758,288.92,0,256,0
			C194.043,0,135.795,24.127,91.985,67.937c-43.81,43.81-67.937,102.058-67.937,164.015c0,30.042,7.022,62.078,20.872,95.215
			c12.725,30.448,31.033,60.856,52.945,87.938c1.482,1.832,3.649,2.782,5.835,2.782c1.657,0,3.325-0.546,4.713-1.669
			c3.22-2.605,3.718-7.328,1.113-10.548C65.395,351.127,39.048,286.186,39.048,231.952z"/>
		<path d="M152.772,184.351c7.08-1.036,14.114-0.534,20.909,1.493c3.97,1.185,8.147-1.074,9.331-5.043
			c1.184-3.969-1.074-8.147-5.043-9.331c-8.905-2.657-18.113-3.316-27.37-1.961c-34.707,5.081-58.809,37.45-53.728,72.156
			l6.967,47.59c4.626,31.596,31.869,54.404,62.901,54.404c3.054,0,6.146-0.221,9.255-0.676c34.706-5.081,58.808-37.45,53.728-72.156
			l-6.967-47.589c-1.46-9.977-5.31-19.561-11.132-27.716c-2.406-3.372-7.09-4.154-10.461-1.747
			c-3.372,2.406-4.153,7.09-1.747,10.461c4.506,6.313,7.366,13.437,8.499,21.174L214.881,273
			c3.883,26.522-14.537,51.259-41.059,55.142c-2.378,0.348-4.737,0.517-7.073,0.517c-23.713-0.002-44.534-17.431-48.069-41.575
			l-6.967-47.59C107.831,212.971,126.25,188.234,152.772,184.351z"/>
		<path d="M345.261,343.659c31.03-0.003,58.275-22.81,62.901-54.404l6.967-47.59c1.861-12.716-0.12-25.524-5.731-37.038
			c-1.814-3.723-6.303-5.268-10.028-3.457c-3.723,1.814-5.271,6.304-3.457,10.028c4.284,8.791,5.796,18.574,4.374,28.293
			l-6.967,47.59c-3.883,26.522-28.619,44.938-55.142,41.059c-26.522-3.883-44.941-28.619-41.059-55.142l6.967-47.589
			c3.882-26.523,28.62-44.945,55.141-41.059c4.82,0.706,9.47,2.111,13.822,4.175c3.743,1.777,8.216,0.181,9.991-3.561
			c1.776-3.742,0.181-8.215-3.561-9.991c-5.7-2.705-11.782-4.543-18.079-5.465c-34.708-5.083-67.076,19.021-72.156,53.728
			l-6.967,47.589c-5.081,34.707,19.021,67.076,53.728,72.156C339.117,343.438,342.205,343.659,345.261,343.659z"/>
		<path d="M256,415.807c17.922,0,34.968-6.899,45.6-18.454c2.804-3.048,2.607-7.793-0.441-10.598
			c-3.05-2.805-7.793-2.606-10.598,0.441c-7.841,8.522-20.761,13.61-34.561,13.61s-26.72-5.088-34.561-13.61
			c-2.805-3.048-7.549-3.246-10.598-0.441s-3.246,7.549-0.441,10.598C221.032,408.908,238.078,415.807,256,415.807z"/>
	</g>
</g>
<g>
</g>
<g>
</g>
<g>
</g>
<g>
</g>
<g>
</g>
<g>
</g>
<g>
</g>
<g>
</g>
<g>
</g>
<g>
</g>
<g>
</g>
<g>
</g>
<g>
</g>
<g>
</g>
<g>
</g>
</svg>
