<?xml version="1.0" encoding="iso-8859-1"?>
<!-- Generator: Adobe Illustrator 19.0.0, SVG Export Plug-In . SVG Version: 6.00 Build 0)  -->
<svg version="1.1" id="Capa_1" xmlns="http://www.w3.org/2000/svg" xmlns:xlink="http://www.w3.org/1999/xlink" x="0px" y="0px"
	 viewBox="0 0 512.002 512.002" style="enable-background:new 0 0 512.002 512.002;" xml:space="preserve">
<g>
	<g>
		<path style="fill:#FFD164;" d="M345.061,91.61l118.201-81.174c11.775-8.191,27.556,2.018,24.913,16.115l-34.789,186.618
			C435.197,159.484,395.769,115.616,345.061,91.61z"/>
		<path style="fill:#FFC350;" d="M382.274,66.054c6.438,3.807,12.664,7.926,18.694,12.301c5.527,4.009,13.045,3.899,18.673,0.034
			l17.631-12.108c5.192-3.612,12.152,0.89,10.987,7.107l-6.156,33.018c-0.894,4.794,0.508,9.677,3.661,13.397
			c7.244,8.549,13.94,17.576,19.982,27.069l-12.359,66.297c-18.19-53.685-57.618-97.553-108.325-121.56L382.274,66.054z"/>
		<path style="fill:#FFD164;" d="M166.941,91.61L48.74,10.436c-11.775-8.191-27.556,2.018-24.913,16.115l34.789,186.618
			C76.806,159.484,116.233,115.616,166.941,91.61z"/>
		<path style="fill:#FFC350;" d="M129.729,66.054c-6.438,3.807-12.664,7.926-18.694,12.301c-5.527,4.009-13.045,3.899-18.673,0.034
			L74.73,66.281c-5.192-3.612-12.152,0.89-10.987,7.107l6.156,33.018c0.894,4.794-0.508,9.677-3.661,13.397
			c-7.244,8.549-13.94,17.576-19.982,27.069l12.359,66.297c18.19-53.685,57.618-97.553,108.325-121.56L129.729,66.054z"/>
		<circle style="fill:#FFE17D;" cx="256.001" cy="280.064" r="224.452"/>
		<path style="fill:#FFD164;" d="M288.583,471.933c-123.961,0-224.452-100.491-224.452-224.452
			c0-53.681,18.869-102.942,50.305-141.565C63.87,147.072,31.55,209.784,31.55,280.064c0,123.961,100.49,224.452,224.452,224.452
			c70.28,0,132.992-32.321,174.148-82.888C391.525,453.064,342.265,471.933,288.583,471.933z"/>
		<path style="fill:#9C6846;" d="M278.967,272.047h-45.932c-6.796,0-10.509,7.927-6.158,13.148l22.966,27.559
			c3.205,3.846,9.111,3.846,12.316,0l22.966-27.559C289.476,279.974,285.763,272.047,278.967,272.047z"/>
		<path style="fill:#7D5046;" d="M256.001,292.088c-12.042,0-22.946-4.839-30.903-12.665c-0.171,1.963,0.316,4.017,1.778,5.773
			l22.966,27.559c3.205,3.846,9.112,3.846,12.317,0l22.966-27.559c1.463-1.755,1.949-3.81,1.778-5.773
			C278.947,287.248,268.043,292.088,256.001,292.088z"/>
		<path style="fill:#9C6846;" d="M256.001,352.209c-34.223,0-63.147,23.246-72.946,55.291c-0.849,2.776,1.523,5.439,4.275,4.828
			c21.248-4.717,44.408-7.327,68.671-7.327h-0.057c24.263,0,47.423,2.609,68.671,7.327c2.752,0.611,5.124-2.052,4.275-4.828
			c-9.799-32.044-38.723-55.291-72.946-55.291"/>
		<path style="fill:#7D5046;" d="M255.944,352.209c0.01,0,0.019,0.001,0.029,0.001c0.01,0,0.019-0.001,0.028-0.001H255.944z"/>
		<path style="fill:#7D5046;" d="M194.215,384.755c18.482-7.175,39.474-11.246,61.758-11.252c-0.017,0-0.033-0.001-0.05-0.001h0.101
			c-0.017,0-0.033,0.001-0.05,0.001c22.284,0.006,43.277,4.078,61.759,11.253c-13.902-19.709-36.361-32.537-61.759-32.546
			C230.575,352.219,208.118,365.046,194.215,384.755z"/>
		<path style="fill:#A5CDFF;" d="M175.84,448.402c26.563,0,48.097-21.534,48.097-48.097c0-39.647-32.681-90.187-44.165-106.722
			c-1.905-2.743-5.959-2.743-7.864,0c-11.483,16.535-44.165,67.076-44.165,106.722C127.743,426.868,149.277,448.402,175.84,448.402z
			"/>
		<path style="fill:#8CB4EB;" d="M150.417,409.042c0-29.127,17.631-78.122,31.546-112.26c-0.788-1.163-1.532-2.251-2.19-3.198
			c-1.906-2.744-5.959-2.744-7.864,0c-11.484,16.535-44.165,67.075-44.165,106.722c0,24.67,18.645,44.768,42.571,47.54
			C158.306,439.101,150.417,425.034,150.417,409.042z"/>
		<path style="fill:#7D5046;" d="M340.17,260.023L340.17,260.023c-11.068,0-20.04-8.972-20.04-20.04v-16.032
			c0-11.068,8.972-20.04,20.04-20.04h0c11.068,0,20.04,8.972,20.04,20.04v16.032C360.211,251.051,351.238,260.023,340.17,260.023z"
			/>
		<path style="fill:#9C6846;" d="M360.211,223.951c0-12.379-11.222-22.135-24.048-19.651v15.643
			c0,13.282,10.767,24.048,24.048,24.048l0,0V223.951z"/>
		<path style="fill:#7D5046;" d="M171.832,260.023L171.832,260.023c-11.068,0-20.04-8.972-20.04-20.04v-16.032
			c0-11.068,8.972-20.04,20.04-20.04h0c11.068,0,20.04,8.972,20.04,20.04v16.032C191.872,251.051,182.9,260.023,171.832,260.023z"/>
		<path style="fill:#9C6846;" d="M191.872,223.951c0-12.379-11.222-22.135-24.048-19.651v15.643
			c0,13.282,10.767,24.048,24.048,24.048h0V223.951z"/>
	</g>
	<g>
		<path d="M278.967,264.564h-45.932c-6.086,0-11.47,3.424-14.051,8.935c-2.582,5.511-1.765,11.839,2.131,16.514l22.966,27.559
			c2.957,3.548,7.301,5.583,11.92,5.583s8.963-2.035,11.92-5.583l22.966-27.559c3.896-4.675,4.713-11.003,2.131-16.514
			C290.437,267.988,285.053,264.564,278.967,264.564z M279.363,280.411l-22.966,27.559c-0.042,0.051-0.155,0.186-0.396,0.186
			s-0.354-0.135-0.396-0.186l-22.966-27.559c-0.099-0.118-0.21-0.252-0.071-0.549c0.139-0.297,0.313-0.297,0.467-0.297h45.932
			c0.154,0,0.328,0,0.467,0.297C279.573,280.158,279.462,280.292,279.363,280.411z"/>
		<path d="M505.671,344.817l-25.768-4.069c3.265-12.103,5.558-24.515,6.83-37.136h17.768c4.142,0,7.5-3.358,7.5-7.5
			s-3.358-7.5-7.5-7.5h-16.742c0.009-0.256,0.026-0.511,0.034-0.767c1.203-36.515-6.115-72.248-21.055-104.688L495.84,27.949
			c1.795-9.572-2.17-18.805-10.348-24.095c-8.177-5.289-18.224-5.121-26.22,0.441l-98.775,68.713
			c-34.412-17.4-72.877-26.025-112.262-24.72c-34.023,1.121-66.874,9.616-96.604,24.604L53.023,4.295
			c-7.997-5.563-18.042-5.73-26.22-0.441C18.625,9.144,14.66,18.377,16.455,27.95l29.001,154.674
			c-12.906,27.876-20.212,58.286-21.247,89.691c-0.18,5.453-0.168,10.888,0.029,16.298H7.501c-4.142,0-7.5,3.358-7.5,7.5
			s3.358,7.5,7.5,7.5H25.28c1.275,12.6,3.57,25.012,6.847,37.132l-25.795,4.073c-4.091,0.646-6.884,4.486-6.238,8.578
			c0.583,3.695,3.772,6.331,7.399,6.331c0.389,0,0.783-0.03,1.179-0.093l27.89-4.404c9.552,27.911,24.435,53.952,44.175,76.694
			c1.483,1.708,3.569,2.584,5.667,2.583c1.742,0,3.494-0.604,4.913-1.836c3.128-2.715,3.462-7.452,0.748-10.581
			C74.191,401.5,60.567,378.018,51.61,352.853l85.029-13.426c-9.045,19.411-16.396,41.232-16.396,60.894
			c0,30.656,24.941,55.597,55.597,55.597c26.085,0,48.021-18.062,53.986-42.334c8.613-0.694,17.373-1.067,26.118-1.067
			c23.123,0,45.68,2.405,67.044,7.147c0.818,0.182,1.638,0.271,2.449,0.271c3.052,0,5.971-1.262,8.12-3.586
			c2.725-2.946,3.685-7.172,2.505-11.028c-11.083-36.245-43.281-60.597-80.118-60.597c-12.19,0-24.212,2.741-35.186,7.964
			c-3.39-8.539-7.569-17.508-12.556-26.898c-1.943-3.658-6.483-5.046-10.142-3.105c-3.658,1.943-5.048,6.484-3.105,10.142
			c14.054,26.457,21.483,49.795,21.483,67.493c0,22.385-18.211,40.597-40.597,40.597s-40.597-18.211-40.597-40.597
			c0-35.079,28.02-80.534,40.605-99.18c0.789,1.167,1.638,2.438,2.535,3.803c2.275,3.461,6.926,4.423,10.387,2.148
			c3.461-2.275,4.423-6.926,2.148-10.387c-5.287-8.043-8.926-12.907-9.079-13.11c-1.417-1.889-3.64-3-6-3c-2.361,0-4.583,1.111-6,3
			c-0.301,0.401-1.61,2.161-3.613,5.016H39.252c-0.205-5.245-0.226-10.515-0.051-15.804c1.819-55.177,24.332-107.076,63.392-146.136
			c39.061-39.061,90.96-61.574,146.137-63.393c54.899-1.808,107.923,16.964,149.282,52.864c3.128,2.714,7.864,2.38,10.581-0.748
			c2.715-3.128,2.38-7.865-0.748-10.581c-10.27-8.915-21.22-16.829-32.703-23.723l92.697-64.484c4.36-3.033,8.378-0.889,9.506-0.16
			c1.128,0.729,4.731,3.515,3.752,8.736l-25.611,136.59c-7.009-11.788-15.09-23.02-24.221-33.539
			c-2.715-3.127-7.452-3.464-10.581-0.748c-3.128,2.715-3.462,7.452-0.748,10.581c35.9,41.358,54.674,94.375,52.864,149.283
			c-0.014,0.421-0.04,0.84-0.056,1.261H328.146c-4.142,0-7.5,3.358-7.5,7.5s3.358,7.5,7.5,7.5h143.505
			c-1.275,11.826-3.506,23.453-6.654,34.782l-111.633-17.626c-4.091-0.643-7.932,2.147-8.578,6.238
			c-0.646,4.092,2.147,7.932,6.238,8.578l109.401,17.274c-10.672,30.038-27.958,57.572-51.016,80.629
			c-39.061,39.061-90.959,61.574-146.136,63.393c-54.921,1.804-107.925-16.964-149.283-52.864
			c-3.129-2.715-7.865-2.381-10.581,0.748c-2.715,3.128-2.38,7.865,0.748,10.581C146.433,492.04,200.086,512,256.01,512
			c2.578,0,5.17-0.042,7.756-0.128c58.996-1.944,114.486-26.015,156.249-67.778c25.329-25.329,44.135-55.712,55.459-88.859
			l27.856,4.398c0.396,0.063,0.79,0.093,1.179,0.093c3.626,0,6.815-2.636,7.399-6.331
			C512.555,349.303,509.762,345.463,505.671,344.817z M255.943,359.725c28.1,0,52.938,17.391,63.621,43.895
			c-20.429-4.051-41.797-6.102-63.621-6.102c-8.208,0-16.435,0.304-24.552,0.89c-0.222-9.54-2.088-20.054-5.602-31.488
			C235.131,362.202,245.463,359.725,255.943,359.725z M156.289,303.612c-3.517,5.604-7.414,12.146-11.308,19.312l-97.953,15.466
			c-3.159-11.345-5.397-22.972-6.676-34.779H156.289z M91.986,116.065c-13.721,13.721-25.519,28.932-35.263,45.254L31.198,25.185
			c-0.979-5.221,2.624-8.007,3.751-8.736c1.128-0.729,5.146-2.873,9.507,0.16l92.512,64.356
			C120.749,90.678,105.631,102.42,91.986,116.065z"/>
		<path d="M171.832,211.427c4.142,0,7.5-3.358,7.5-7.5s-3.358-7.5-7.5-7.5c-15.186,0-27.54,12.354-27.54,27.54v16.033
			c0,15.186,12.354,27.54,27.54,27.54c15.186,0,27.541-12.355,27.541-27.54v-12.024c0-4.142-3.358-7.5-7.5-7.5s-7.5,3.358-7.5,7.5
			v12.024c0,6.915-5.625,12.54-12.541,12.54c-6.915,0-12.54-5.625-12.54-12.54v-16.033
			C159.292,217.052,164.917,211.427,171.832,211.427z"/>
		<path d="M340.171,267.54c15.186,0,27.54-12.355,27.54-27.54v-12.024c0-4.142-3.358-7.5-7.5-7.5s-7.5,3.358-7.5,7.5v12.024
			c0,6.915-5.625,12.54-12.54,12.54c-6.915,0-12.541-5.625-12.541-12.54v-16.033c0-6.915,5.625-12.54,12.541-12.54
			c4.142,0,7.5-3.358,7.5-7.5s-3.358-7.5-7.5-7.5c-15.186,0-27.541,12.354-27.541,27.54v16.033
			C312.63,255.185,324.984,267.54,340.171,267.54z"/>
		<path d="M199.184,150.029c-0.991-4.022-5.053-6.48-9.076-5.49c-48.685,11.986-81.898,40.494-83.288,41.702
			c-3.127,2.717-3.459,7.454-0.743,10.581c1.483,1.707,3.568,2.581,5.665,2.581c1.744,0,3.496-0.605,4.916-1.838
			c0.313-0.272,31.831-27.331,77.036-38.459C197.716,158.114,200.174,154.051,199.184,150.029z"/>
		<path d="M318.309,159.104c45.034,11.086,76.726,38.192,77.041,38.464c1.419,1.23,3.168,1.833,4.91,1.833
			c2.097,0,4.182-0.874,5.665-2.581c2.717-3.126,2.384-7.864-0.743-10.581c-1.39-1.208-34.602-29.716-83.287-41.702
			c-4.02-0.989-8.084,1.468-9.076,5.49C311.829,154.051,314.287,158.114,318.309,159.104z"/>
	</g>
</g>
<g>
</g>
<g>
</g>
<g>
</g>
<g>
</g>
<g>
</g>
<g>
</g>
<g>
</g>
<g>
</g>
<g>
</g>
<g>
</g>
<g>
</g>
<g>
</g>
<g>
</g>
<g>
</g>
<g>
</g>
</svg>
