<?xml version="1.0" encoding="iso-8859-1"?>
<!-- Generator: Adobe Illustrator 19.0.0, SVG Export Plug-In . SVG Version: 6.00 Build 0)  -->
<svg version="1.1" id="Capa_1" xmlns="http://www.w3.org/2000/svg" xmlns:xlink="http://www.w3.org/1999/xlink" x="0px" y="0px"
	 viewBox="0 0 511.971 511.971" style="enable-background:new 0 0 511.971 511.971;" xml:space="preserve">
<g>
	<g>
		<circle style="fill:#E6646E;" cx="255.971" cy="256.028" r="248.5"/>
		<path style="fill:#DC4655;" d="M292.043,468.456c-137.243,0-248.5-111.258-248.5-248.5c0-59.433,20.891-113.971,55.695-156.733
			C43.254,108.788,7.471,178.218,7.471,256.028c0,137.242,111.257,248.5,248.5,248.5c77.81,0,147.242-35.784,192.806-91.769
			C406.015,447.564,351.477,468.456,292.043,468.456z"/>
		<path style="fill:#6E5A64;" d="M424.31,304.125H87.632c-8.854,0-16.032,7.178-16.032,16.032v112.226
			c0,8.854,7.178,16.032,16.032,16.032H424.31c8.854,0,16.032-7.178,16.032-16.032V320.157
			C440.342,311.303,433.164,304.125,424.31,304.125z"/>
		<path style="fill:#5A4650;" d="M171.802,264.044L171.802,264.044c-11.068,0-20.04-8.972-20.04-20.04v-16.032
			c0-11.068,8.972-20.04,20.04-20.04h0c11.068,0,20.04,8.972,20.04,20.04v16.032C191.842,255.072,182.869,264.044,171.802,264.044z"
			/>
		<path style="fill:#6E5A64;" d="M191.842,227.972c0-12.379-11.222-22.135-24.048-19.651l0,15.643
			c0,13.282,10.767,24.048,24.048,24.048h0V227.972z"/>
		<path style="fill:#5A4650;" d="M340.14,264.044L340.14,264.044c-11.068,0-20.04-8.972-20.04-20.04v-16.032
			c0-11.068,8.972-20.04,20.04-20.04h0c11.068,0,20.04,8.972,20.04,20.04v16.032C360.181,255.072,351.208,264.044,340.14,264.044z"
			/>
		<path style="fill:#6E5A64;" d="M360.181,227.972c0-12.379-11.222-22.135-24.048-19.651v15.643
			c0,13.282,10.767,24.048,24.048,24.048h0V227.972z"/>
	</g>
	<g>
		<path d="M171.782,215.443c4.142,0,7.5-3.358,7.5-7.5s-3.358-7.5-7.5-7.5c-15.187,0-27.542,12.355-27.542,27.541v16.033
			c0,15.187,12.355,27.541,27.542,27.541s27.542-12.355,27.542-27.541v-12.025c0-4.142-3.358-7.5-7.5-7.5s-7.5,3.358-7.5,7.5v12.025
			c0,6.916-5.626,12.541-12.542,12.541s-12.542-5.626-12.542-12.541v-16.033C159.241,221.069,164.867,215.443,171.782,215.443z"/>
		<path d="M340.131,215.443c4.142,0,7.5-3.358,7.5-7.5s-3.358-7.5-7.5-7.5c-15.187,0-27.542,12.355-27.542,27.541v16.033
			c0,15.187,12.355,27.541,27.542,27.541s27.542-12.355,27.542-27.541v-12.025c0-4.142-3.358-7.5-7.5-7.5s-7.5,3.358-7.5,7.5v12.025
			c0,6.916-5.626,12.541-12.542,12.541s-12.542-5.626-12.542-12.541v-16.033C327.589,221.069,333.215,215.443,340.131,215.443z"/>
		<path d="M207.829,191.396c3.14,0,6.066-1.988,7.114-5.13c1.31-3.93-0.814-8.177-4.744-9.487l-72.149-24.05
			c-3.929-1.311-8.177,0.814-9.487,4.744c-1.31,3.93,0.814,8.177,4.744,9.487l72.149,24.05
			C206.243,191.271,207.043,191.396,207.829,191.396z"/>
		<path d="M383.292,157.472c-1.31-3.93-5.558-6.055-9.487-4.744l-72.149,24.05c-3.93,1.31-6.053,5.558-4.744,9.487
			c1.048,3.143,3.974,5.13,7.114,5.13c0.786,0,1.586-0.125,2.373-0.387l72.149-24.05
			C382.478,165.649,384.601,161.401,383.292,157.472z"/>
		<path d="M180.32,338.225c-3.313-2.484-8.015-1.813-10.5,1.5l-48.1,64.133c-2.485,3.313-1.814,8.015,1.5,10.5
			c1.349,1.012,2.928,1.5,4.494,1.5c2.28,0,4.533-1.036,6.006-3l48.1-64.133C184.305,345.412,183.633,340.71,180.32,338.225z"/>
		<path d="M215.902,391.808c4.142,0,7.5-3.358,7.5-7.5v-40.083c0-4.142-3.358-7.5-7.5-7.5s-7.5,3.358-7.5,7.5v40.083
			C208.402,388.45,211.76,391.808,215.902,391.808z"/>
		<path d="M215.902,400.858c-4.142,0-7.5,3.358-7.5,7.5c0,4.142,3.358,7.5,7.5,7.5h0.081c4.142,0,7.46-3.358,7.46-7.5
			C223.443,404.216,220.044,400.858,215.902,400.858z"/>
		<path d="M312.101,352.758h-2.419l1.679-6.714c1.005-4.018-1.438-8.09-5.457-9.095c-4.012-1.003-8.09,1.438-9.095,5.457
			l-2.588,10.352h-16.605l1.679-6.714c1.005-4.018-1.438-8.09-5.457-9.095c-4.012-1.003-8.09,1.438-9.095,5.457l-2.588,10.352
			h-6.169c-4.142,0-7.5,3.358-7.5,7.5s3.358,7.5,7.5,7.5h2.419l-4.267,17.066h-6.169c-4.142,0-7.5,3.358-7.5,7.5s3.358,7.5,7.5,7.5
			h2.419l-1.679,6.714c-1.005,4.018,1.438,8.09,5.457,9.095c0.61,0.153,1.222,0.226,1.825,0.226c3.36,0,6.418-2.275,7.27-5.683
			l2.588-10.352h16.605l-1.679,6.714c-1.005,4.018,1.438,8.09,5.457,9.095c0.61,0.153,1.222,0.226,1.825,0.226
			c3.36,0,6.418-2.275,7.27-5.683l2.588-10.352h6.169c4.142,0,7.5-3.358,7.5-7.5s-3.358-7.5-7.5-7.5h-2.419l4.267-17.066h6.169
			c4.142,0,7.5-3.358,7.5-7.5S316.243,352.758,312.101,352.758z M286.204,384.825h-16.605l4.267-17.066h16.605L286.204,384.825z"/>
		<path d="M397.57,379.005c-2.929-2.93-7.678-2.929-10.606,0l-6.722,6.722l-6.348-6.348c5.952-4.275,9.839-11.25,9.839-19.12
			c0-12.976-10.557-23.533-23.533-23.533s-23.533,10.557-23.533,23.533c0,2.612,0.434,5.122,1.223,7.472
			c-6.457,5.7-9.89,14.082-9.138,22.962c1.192,14.112,13.775,25.166,28.645,25.166c8.541,0,16.592-3.169,22.823-8.941l6.744,6.744
			c1.464,1.464,3.384,2.197,5.303,2.197s3.839-0.732,5.303-2.197c2.929-2.929,2.929-7.678,0-10.606l-6.722-6.722l6.722-6.722
			C400.5,386.682,400.5,381.934,397.57,379.005z M360.201,351.725c4.705,0,8.533,3.828,8.533,8.533s-3.828,8.533-8.533,8.533
			s-8.533-3.828-8.533-8.533S355.496,351.725,360.201,351.725z M357.397,400.858c-7.021,0-13.166-5.127-13.698-11.43
			c-0.309-3.656,0.929-7.126,3.328-9.68c2.885,1.956,6.226,3.286,9.826,3.801l12.739,12.739
			C366.204,399.234,361.929,400.858,357.397,400.858z"/>
		<path d="M143.236,352.242c0-8.556-6.961-15.517-15.517-15.517s-15.517,6.961-15.517,15.517s6.961,15.517,15.517,15.517
			S143.236,360.797,143.236,352.242z"/>
		<path d="M175.82,384.825c-8.556,0-15.517,6.961-15.517,15.517s6.961,15.517,15.517,15.517s15.517-6.961,15.517-15.517
			S184.375,384.825,175.82,384.825z"/>
		<path d="M511.966,257.722c0.4-62.926-22.219-123.531-63.69-170.649c-2.736-3.109-7.476-3.411-10.585-0.675
			c-3.109,2.737-3.412,7.476-0.675,10.585c39.036,44.352,60.327,101.402,59.95,160.644c-0.333,52.439-17.644,102.927-49.099,144.243
			v-81.694c0-12.976-10.557-23.533-23.533-23.533H87.637c-12.976,0-23.533,10.557-23.533,23.533v112.232
			c0,12.976,10.557,23.533,23.533,23.533h8.424c46.557,37.328,103.232,56.003,159.924,56.003
			c56.685,0,113.372-18.679,159.924-56.003h8.425c12.976,0,23.533-10.557,23.533-23.533v-6.924
			C488.822,379.187,511.572,319.737,511.966,257.722z M121.326,455.941h269.318C309.599,510.617,202.372,510.618,121.326,455.941z
			 M432.867,432.408c0,4.705-3.828,8.533-8.533,8.533H87.637c-4.705,0-8.533-3.828-8.533-8.533V320.175
			c0-4.705,3.828-8.533,8.533-8.533h336.697c4.705,0,8.533,3.828,8.533,8.533V432.408z"/>
		<path d="M16.969,224.949c6.87-53.165,30.589-101.354,68.593-139.358c43.601-43.6,101.537-68.622,163.136-70.455
			c61.345-1.829,120.396,19.429,166.318,59.848c3.109,2.737,7.848,2.436,10.585-0.675c2.737-3.109,2.435-7.848-0.675-10.585
			C376.139,20.783,313.402-1.797,248.252,0.142C182.815,2.09,121.271,28.669,74.956,74.984
			C34.587,115.353,9.391,166.545,2.092,223.026c-7.068,54.702,3.904,111.126,30.897,158.879c1.379,2.44,3.92,3.811,6.536,3.811
			c1.25,0,2.518-0.313,3.684-0.972c3.606-2.039,4.877-6.614,2.839-10.22C20.64,329.576,10.313,276.455,16.969,224.949z"/>
	</g>
</g>
<g>
</g>
<g>
</g>
<g>
</g>
<g>
</g>
<g>
</g>
<g>
</g>
<g>
</g>
<g>
</g>
<g>
</g>
<g>
</g>
<g>
</g>
<g>
</g>
<g>
</g>
<g>
</g>
<g>
</g>
</svg>
