<?xml version="1.0" encoding="iso-8859-1"?>
<!-- Generator: Adobe Illustrator 19.0.0, SVG Export Plug-In . SVG Version: 6.00 Build 0)  -->
<svg version="1.1" id="Capa_1" xmlns="http://www.w3.org/2000/svg" xmlns:xlink="http://www.w3.org/1999/xlink" x="0px" y="0px"
	 viewBox="0 0 512.003 512.003" style="enable-background:new 0 0 512.003 512.003;" xml:space="preserve">
<g>
	<g>
		<circle style="fill:#FFE17D;" cx="256.001" cy="255.343" r="247.841"/>
		<circle style="fill:#FFFFFF;" cx="168.057" cy="215.368" r="63.959"/>
		<path style="fill:#FFD164;" d="M291.978,467.207c-136.879,0-247.841-110.963-247.841-247.841
			c0-59.276,20.835-113.669,55.547-156.317C43.848,108.492,8.16,177.739,8.16,255.343c0,136.879,110.962,247.841,247.841,247.841
			c77.604,0,146.851-35.69,192.295-91.525C405.648,446.371,351.254,467.207,291.978,467.207z"/>
		<circle style="fill:#5A4650;" cx="188.045" cy="179.391" r="19.987"/>
		<circle style="fill:#FFFFFF;" cx="343.945" cy="215.368" r="63.959"/>
		<circle style="fill:#5A4650;" cx="363.932" cy="179.391" r="19.987"/>
	</g>
	<g>
		<path d="M15.109,248.714c1.833-61.604,26.857-119.543,70.459-163.146c43.603-43.603,101.543-68.626,163.146-70.459
			c61.332-1.836,120.402,19.43,166.328,59.852c3.109,2.737,7.849,2.436,10.585-0.675c2.737-3.109,2.435-7.848-0.675-10.585
			C376.162,20.758,313.409-1.823,248.268,0.115c-65.44,1.948-126.989,28.529-173.306,74.847
			C28.644,121.279,2.063,182.827,0.115,248.268C-1.824,313.415,20.758,376.163,63.7,424.952c1.482,1.685,3.552,2.545,5.633,2.545
			c1.76,0,3.527-0.616,4.952-1.87c3.109-2.737,3.412-7.476,0.675-10.585C34.538,369.117,13.283,310.047,15.109,248.714z"/>
		<path d="M448.302,87.051c-2.736-3.109-7.476-3.411-10.585-0.675c-3.109,2.737-3.412,7.476-0.675,10.585
			c40.421,45.926,61.677,104.995,59.852,166.328c-1.833,61.603-26.856,119.543-70.459,163.146
			c-43.603,43.603-101.542,68.626-163.146,70.459c-61.334,1.828-120.402-19.43-166.328-59.851
			c-3.108-2.736-7.848-2.435-10.585,0.675c-2.737,3.109-2.435,7.848,0.675,10.585c46.854,41.239,106.58,63.7,168.942,63.7
			c2.576,0,5.158-0.039,7.742-0.116c65.441-1.948,126.989-28.529,173.306-74.846c46.318-46.317,72.899-107.866,74.847-173.306
			C513.826,198.588,491.245,135.841,448.302,87.051z"/>
		<path d="M231.921,366.373h72.154c4.142,0,7.5-3.358,7.5-7.5s-3.358-7.5-7.5-7.5h-72.154c-4.142,0-7.5,3.358-7.5,7.5
			S227.779,366.373,231.921,366.373z"/>
		<path d="M207.833,254.615c-18.287,18.287-46.586,21.886-68.82,8.753c-3.567-2.108-8.165-0.923-10.272,2.643
			c-2.107,3.567-0.923,8.166,2.643,10.272c11.321,6.687,23.88,9.946,36.36,9.945c18.528-0.001,36.876-7.187,50.696-21.007
			c13.53-13.53,20.982-31.52,20.982-50.655c0-19.134-7.452-37.124-20.982-50.654s-31.52-20.982-50.655-20.982
			c-19.134,0-37.124,7.452-50.654,20.982c-23.12,23.12-27.674,58.91-11.074,87.035c2.105,3.568,6.705,4.751,10.271,2.647
			c3.567-2.105,4.752-6.704,2.647-10.271c-13.121-22.231-9.517-50.524,8.763-68.804c11.464-11.464,26.66-16.961,41.713-16.522
			c-5.621,5.046-9.165,12.362-9.165,20.493c0,15.187,12.355,27.542,27.542,27.542c13.574,0,24.879-9.873,27.128-22.814
			C229.579,205.207,227.207,235.24,207.833,254.615z M187.827,191.032c-6.916,0-12.542-5.626-12.542-12.542
			s5.626-12.542,12.542-12.542s12.543,5.626,12.543,12.542S194.743,191.032,187.827,191.032z"/>
		<path d="M394.815,265.221c13.53-13.53,20.982-31.52,20.982-50.655c0-19.134-7.452-37.124-20.982-50.654
			s-31.52-20.982-50.655-20.982c-19.134,0-37.124,7.452-50.654,20.982c-23.12,23.12-27.674,58.91-11.075,87.035
			c2.105,3.568,6.705,4.751,10.271,2.647c3.567-2.105,4.752-6.704,2.647-10.271c-13.121-22.231-9.517-50.524,8.763-68.804
			c11.464-11.464,26.66-16.961,41.713-16.522c-5.621,5.046-9.165,12.362-9.165,20.493c0,15.187,12.356,27.542,27.543,27.542
			c13.574,0,24.879-9.874,27.128-22.815c14.623,21.989,12.252,52.022-7.123,71.397c-18.287,18.287-46.586,21.886-68.821,8.753
			c-3.566-2.106-8.165-0.923-10.272,2.643c-2.106,3.567-0.923,8.166,2.643,10.272c11.321,6.687,23.88,9.946,36.36,9.945
			C362.647,286.227,380.995,279.041,394.815,265.221z M364.203,191.032c-6.916,0-12.543-5.626-12.543-12.542
			s5.627-12.542,12.543-12.542s12.542,5.626,12.542,12.542S371.119,191.032,364.203,191.032z"/>
	</g>
</g>
<g>
</g>
<g>
</g>
<g>
</g>
<g>
</g>
<g>
</g>
<g>
</g>
<g>
</g>
<g>
</g>
<g>
</g>
<g>
</g>
<g>
</g>
<g>
</g>
<g>
</g>
<g>
</g>
<g>
</g>
</svg>
