<?xml version="1.0" encoding="iso-8859-1"?>
<!-- Generator: Adobe Illustrator 19.0.0, SVG Export Plug-In . SVG Version: 6.00 Build 0)  -->
<svg version="1.1" id="Capa_1" xmlns="http://www.w3.org/2000/svg" xmlns:xlink="http://www.w3.org/1999/xlink" x="0px" y="0px"
	 viewBox="0 0 512.094 512.094" style="enable-background:new 0 0 512.094 512.094;" xml:space="preserve">
<g>
	<g>
		<circle style="fill:#FFE17D;" cx="256.047" cy="239.968" r="232.468"/>
		<path style="fill:#FFD164;" d="M289.792,438.69c-128.389,0-232.468-104.08-232.468-232.468
			c0-55.599,19.543-106.618,52.101-146.621c-52.372,42.625-85.847,107.576-85.847,180.366
			c0,128.388,104.079,232.468,232.468,232.468c72.79,0,137.742-33.476,180.367-85.848
			C396.411,419.146,345.391,438.69,289.792,438.69z"/>
		<path style="fill:#FFD164;" d="M351.616,430.132l-80.471,57.479c-36.063,25.759-85.463,21.671-116.8-9.667l0,0
			c-27.092-27.092-34.228-68.29-17.826-102.916l31.298-66.074c3.028-6.392,10.351-9.517,17.06-7.28h0
			c5.71,1.903,9.562,7.247,9.562,13.267v32.556l67.283-91.749c5.722-7.803,17.052-8.669,23.894-1.827l0,0
			c4.93,4.93,6.042,12.509,2.737,18.648l-44.172,82.034l67.022-67.022c6.154-6.154,16.131-6.154,22.285,0l0,0
			c5.763,5.763,6.18,14.969,0.963,21.23l-61.847,74.216l74.531-49.688c6.245-4.163,14.559-3.34,19.866,1.967l0,0
			c6.547,6.547,6.059,17.301-1.054,23.228l-72.026,60.022l44.284-14.761c9.677-3.225,19.669,3.977,19.669,14.177v0
			C357.874,422.798,355.544,427.327,351.616,430.132z"/>
		<path style="fill:#FFC350;" d="M183.069,476.632c-27.092-27.092-34.228-68.29-17.826-102.916l28.855-60.917
			c-0.806-5.094-4.215-9.455-9.222-11.124c-6.709-2.236-14.033,0.889-17.06,7.28l-31.298,66.074
			c-16.402,34.626-9.265,75.824,17.826,102.916h0c22.192,22.192,53.43,30.643,82.587,24.582
			C217.14,500.277,198.039,491.602,183.069,476.632z"/>
	</g>
	<g>
		<path d="M340.207,192.31c-15.843,0-31.035,6.743-41.678,18.5c-2.78,3.071-2.544,7.813,0.526,10.594s7.814,2.543,10.594-0.526
			c7.806-8.622,18.943-13.567,30.558-13.567c11.614,0,22.752,4.945,30.558,13.567c1.48,1.635,3.518,2.466,5.563,2.466
			c1.795,0,3.596-0.641,5.031-1.94c3.07-2.78,3.306-7.523,0.526-10.594C371.241,199.053,356.05,192.31,340.207,192.31z"/>
		<path d="M171.843,192.31c-15.819,0-30.985,6.745-41.611,18.505c-2.777,3.073-2.537,7.816,0.537,10.593
			c3.073,2.777,7.816,2.535,10.593-0.537c7.787-8.619,18.897-13.562,30.481-13.562c11.584,0,22.694,4.943,30.481,13.562
			c1.48,1.639,3.52,2.472,5.567,2.472c1.792,0,3.591-0.639,5.026-1.935c3.073-2.777,3.313-7.52,0.537-10.593
			C202.828,199.054,187.662,192.31,171.843,192.31z"/>
		<path d="M436.993,82.4c-2.723-3.123-7.461-3.444-10.582-0.722c-3.122,2.723-3.444,7.46-0.722,10.582
			c37.407,42.882,57.009,97.918,55.193,154.968c-1.823,57.32-25.174,111.233-65.749,151.809
			c-22.448,22.447-48.985,39.662-78.104,50.866l19.305-13.789c5.892-4.208,9.41-11.043,9.41-18.284
			c0-7.31-3.401-13.953-9.331-18.228c-5.93-4.274-13.308-5.399-20.242-3.088l-6.648,2.216l41.609-34.674
			c5.011-4.175,8.054-10.307,8.349-16.822c0.296-6.516-2.18-12.897-6.792-17.509c-7.816-7.817-20.167-9.04-29.363-2.907
			l-31.627,21.084l28.843-34.612c7.76-9.313,7.148-22.799-1.422-31.369c-4.398-4.398-10.245-6.82-16.464-6.82
			c-6.22,0-12.067,2.422-16.464,6.82l-30.999,30.999l20.018-37.176c4.919-9.135,3.294-20.202-4.042-27.538
			c-4.815-4.816-11.474-7.279-18.262-6.76c-6.791,0.519-12.995,3.967-17.022,9.459L202.04,324.33v-9.7
			c0-9.272-5.91-17.472-14.706-20.403c-10.308-3.437-21.588,1.377-26.239,11.196l-31.35,66.183
			c-7.22,15.242-10.213,31.709-9.25,47.855c-4.16-3.15-8.217-6.446-12.14-9.868c-3.122-2.723-7.858-2.4-10.582,0.722
			c-2.723,3.122-2.4,7.859,0.722,10.582c8.054,7.025,16.637,13.551,25.52,19.42c4.458,15.88,12.897,30.725,25.06,42.888
			c19.1,19.1,44.194,28.89,69.478,28.889c19.885-0.001,39.89-6.059,57.177-18.407l25.198-17.998
			c0.106-0.016,0.212-0.025,0.319-0.045c47.276-9.01,90.324-31.833,124.491-65.999c43.282-43.282,68.19-100.793,70.135-161.938
			C497.811,186.855,476.9,128.148,436.993,82.4z M267.014,481.481c-33.275,23.766-78.414,20.032-107.33-8.883
			c-24.831-24.831-31.414-62.836-16.381-94.571l31.35-66.183c1.101-2.324,3.429-3.722,5.885-3.722c0.683,0,1.375,0.108,2.054,0.334
			c2.661,0.887,4.449,3.368,4.449,6.173v32.61c0,3.243,2.084,6.119,5.167,7.128c3.082,1.01,6.464-0.077,8.381-2.693l67.394-91.9
			c1.458-1.988,3.613-3.186,6.07-3.374c2.456-0.185,4.769,0.668,6.512,2.411c2.616,2.616,3.195,6.563,1.441,9.82l-44.245,82.169
			c-1.764,3.276-0.859,7.352,2.126,9.573c2.986,2.221,7.149,1.917,9.78-0.714l67.133-67.133c1.564-1.564,3.645-2.426,5.857-2.426
			s4.292,0.862,5.857,2.427c3.049,3.049,3.267,7.847,0.506,11.16l-61.948,74.338c-2.385,2.863-2.308,7.042,0.183,9.814
			c2.491,2.772,6.639,3.295,9.739,1.228l74.654-49.769c3.269-2.179,7.658-1.744,10.436,1.033c1.663,1.663,2.52,3.873,2.414,6.223
			s-1.161,4.473-2.967,5.979l-72.145,60.12c-2.77,2.309-3.505,6.261-1.751,9.412c1.755,3.149,5.502,4.606,8.924,3.465l44.357-14.785
			c2.305-0.769,4.757-0.395,6.729,1.026c1.971,1.421,3.102,3.629,3.102,6.059c0,2.407-1.169,4.678-3.128,6.077L267.014,481.481z"/>
		<path d="M31.21,232.673c1.824-57.32,25.174-111.233,65.75-151.809c40.576-40.575,94.489-63.926,151.809-65.749
			c57.041-1.827,112.085,17.786,154.968,55.193c3.121,2.723,7.859,2.399,10.582-0.722c2.723-3.122,2.4-7.859-0.722-10.582
			C367.849,19.097,309.136-1.801,248.292,0.122C187.146,2.067,129.635,26.975,86.353,70.257
			c-43.282,43.282-68.19,100.793-70.135,161.938C14.282,293.046,35.194,351.753,75.1,397.501c1.483,1.7,3.563,2.57,5.655,2.57
			c1.749,0,3.506-0.608,4.927-1.848c3.122-2.723,3.444-7.46,0.722-10.582C48.997,344.758,29.395,289.722,31.21,232.673z"/>
	</g>
</g>
<g>
</g>
<g>
</g>
<g>
</g>
<g>
</g>
<g>
</g>
<g>
</g>
<g>
</g>
<g>
</g>
<g>
</g>
<g>
</g>
<g>
</g>
<g>
</g>
<g>
</g>
<g>
</g>
<g>
</g>
</svg>
