<?xml version="1.0" encoding="iso-8859-1"?>
<!-- Generator: Adobe Illustrator 19.0.0, SVG Export Plug-In . SVG Version: 6.00 Build 0)  -->
<svg version="1.1" id="Capa_1" xmlns="http://www.w3.org/2000/svg" xmlns:xlink="http://www.w3.org/1999/xlink" x="0px" y="0px"
	 viewBox="0 0 512.003 512.003" style="enable-background:new 0 0 512.003 512.003;" xml:space="preserve">
<g>
	<g>
		<circle style="fill:#FFE17D;" cx="256.001" cy="256.002" r="248.5"/>
		<path style="fill:#FFD164;" d="M292.074,468.429c-137.243,0-248.5-111.258-248.5-248.5c0-59.433,20.891-113.971,55.695-156.733
			C43.284,108.761,7.501,178.192,7.501,256.002c0,137.242,111.257,248.5,248.5,248.5c77.81,0,147.242-35.784,192.806-91.769
			C406.046,447.537,351.507,468.429,292.074,468.429z"/>
		<path style="fill:#7D5046;" d="M179.848,280.05L179.848,280.05c-11.068,0-20.04-8.972-20.04-20.04v-20.04h40.081v20.04
			C199.888,271.078,190.916,280.05,179.848,280.05z"/>
		<path style="fill:#9C6846;" d="M191.872,264.018h7.612c0.263-1.296,0.404-2.635,0.404-4.008v-20.04H175.84v8.016
			C175.84,256.84,183.018,264.018,191.872,264.018z"/>
		<path style="fill:#7D5046;" d="M364.219,280.05L364.219,280.05c-11.068,0-20.04-8.972-20.04-20.04v-20.04h40.081v20.04
			C384.259,271.078,375.287,280.05,364.219,280.05z"/>
		<path style="fill:#9C6846;" d="M376.243,264.018h7.612c0.263-1.296,0.404-2.635,0.404-4.008v-20.04h-24.048v8.016
			C360.211,256.84,367.389,264.018,376.243,264.018z"/>
	</g>
	<g>
		<path d="M15.108,248.714c1.833-61.604,26.857-119.543,70.459-163.146c43.603-43.603,101.543-68.626,163.146-70.459
			c61.335-1.825,120.402,19.43,166.328,59.852c3.109,2.738,7.848,2.436,10.585-0.675c2.737-3.109,2.435-7.848-0.675-10.585
			C376.162,20.758,313.413-1.825,248.268,0.115c-65.44,1.948-126.989,28.529-173.306,74.847
			C28.644,121.279,2.063,182.827,0.115,248.268C-1.824,313.415,20.757,376.163,63.7,424.952c1.482,1.685,3.552,2.545,5.633,2.545
			c1.76,0,3.527-0.616,4.952-1.87c3.109-2.737,3.412-7.476,0.675-10.585C34.538,369.117,13.283,310.047,15.108,248.714z"/>
		<path d="M448.302,87.051c-2.736-3.109-7.476-3.412-10.585-0.675s-3.412,7.476-0.675,10.585
			c40.421,45.926,61.677,104.995,59.852,166.328c-1.833,61.603-26.856,119.543-70.459,163.146s-101.542,68.626-163.146,70.459
			c-61.329,1.844-120.402-19.43-166.328-59.851c-3.108-2.736-7.848-2.435-10.585,0.675c-2.737,3.109-2.435,7.848,0.675,10.585
			c46.854,41.239,106.581,63.7,168.942,63.7c2.576,0,5.157-0.038,7.742-0.115c65.441-1.947,126.989-28.528,173.306-74.846
			c46.318-46.317,72.899-107.866,74.847-173.306C513.826,198.589,491.245,135.841,448.302,87.051z"/>
		<path d="M190.96,381.112c1.127,0.132,22.668,2.622,49.207,2.622c6.836,0,14.009-0.166,21.245-0.579
			c50.519-2.887,78.151-16.455,82.129-40.328c0.681-4.086-2.079-7.95-6.165-8.631c-4.085-0.68-7.95,2.08-8.631,6.165
			c-3.497,20.982-44.119,26.429-68.022,27.808c-34.027,1.964-67.675-1.916-68.011-1.956c-4.116-0.481-7.841,2.46-8.324,6.574
			C183.904,376.901,186.846,380.628,190.96,381.112z"/>
		<path d="M179.81,287.524c8.615,0,16.851-4.116,22.03-11.009c2.488-3.312,1.821-8.013-1.491-10.501
			c-3.313-2.489-8.013-1.821-10.501,1.491c-2.397,3.19-6.056,5.02-10.038,5.02c-6.916,0-12.542-5.626-12.542-12.542v-10.828
			c9.748-0.997,20.829-1.715,32.585-1.715c4.142,0,7.5-3.358,7.5-7.5s-3.358-7.5-7.5-7.5c-40.542,0-72.627,7.904-73.973,8.241
			c-4.018,1.004-6.459,5.074-5.457,9.091c0.851,3.409,3.91,5.686,7.272,5.686c0.6,0,1.21-0.073,1.819-0.224
			c0.164-0.041,8.907-2.186,22.752-4.215v8.964C152.268,275.169,164.623,287.524,179.81,287.524z"/>
		<path d="M189.794,199.053c3.978,1.122,8.117-1.18,9.254-5.156c1.138-3.983-1.168-8.134-5.151-9.272
			c-0.631-0.18-15.664-4.384-35.916-2.251c-18.754,1.974-45.793,9.948-68.111,36.729c-2.652,3.182-2.222,7.911,0.96,10.563
			c1.402,1.168,3.104,1.739,4.797,1.738c2.149,0,4.282-0.919,5.766-2.699c15.199-18.238,34.573-28.787,57.586-31.353
			C176.438,195.405,189.613,199.003,189.794,199.053z"/>
		<path d="M382.42,255.23c0.61,0.152,1.221,0.225,1.822,0.225c3.36,0,6.418-2.275,7.27-5.683c1.005-4.019-1.438-8.091-5.457-9.095
			c-1.346-0.336-33.426-8.241-73.963-8.241c-4.142,0-7.5,3.358-7.5,7.5s3.358,7.5,7.5,7.5c8.641,0,16.916,0.388,24.568,0.989v11.555
			c0,15.187,12.355,27.542,27.542,27.542c8.615,0,16.851-4.116,22.03-11.009c2.488-3.312,1.821-8.013-1.491-10.501
			c-3.313-2.489-8.013-1.821-10.501,1.491c-2.397,3.19-6.056,5.02-10.038,5.02c-6.916,0-12.542-5.626-12.542-12.542v-10.044
			C370.068,252.197,382.226,255.182,382.42,255.23z"/>
		<path d="M410.557,228.706c1.483,1.78,3.617,2.699,5.766,2.699c1.693,0,3.396-0.57,4.797-1.738
			c3.182-2.652,3.612-7.381,0.96-10.563c-22.318-26.781-49.357-34.756-68.111-36.729c-20.254-2.132-35.286,2.072-35.916,2.251
			c-3.982,1.138-6.289,5.289-5.151,9.272c1.138,3.983,5.289,6.288,9.272,5.151C322.689,198.901,374.021,184.862,410.557,228.706z"/>
	</g>
</g>
<g>
</g>
<g>
</g>
<g>
</g>
<g>
</g>
<g>
</g>
<g>
</g>
<g>
</g>
<g>
</g>
<g>
</g>
<g>
</g>
<g>
</g>
<g>
</g>
<g>
</g>
<g>
</g>
<g>
</g>
</svg>
