<?xml version="1.0" encoding="iso-8859-1"?>
<!-- Generator: Adobe Illustrator 19.0.0, SVG Export Plug-In . SVG Version: 6.00 Build 0)  -->
<svg version="1.1" id="Capa_1" xmlns="http://www.w3.org/2000/svg" xmlns:xlink="http://www.w3.org/1999/xlink" x="0px" y="0px"
	 viewBox="0 0 512.003 512.003" style="enable-background:new 0 0 512.003 512.003;" xml:space="preserve">
<g>
	<g>
		<circle style="fill:#FFE17D;" cx="256.001" cy="256.001" r="248.5"/>
		<path style="fill:#FFD164;" d="M292.074,468.428c-137.243,0-248.5-111.258-248.5-248.5c0-59.433,20.891-113.971,55.695-156.733
			C43.284,108.76,7.501,178.191,7.501,256.001c0,137.242,111.257,248.5,248.5,248.5c77.81,0,147.242-35.784,192.806-91.769
			C406.046,447.537,351.507,468.428,292.074,468.428z"/>
		<path style="fill:#9C6846;" d="M255.944,369.332c20.213,0,39.604,1.943,57.636,5.495c5.698,1.123,10.098-4.704,7.865-10.066
			c-10.927-26.245-36.118-44.632-65.501-44.632c-29.383,0-54.575,18.386-65.501,44.632c-2.232,5.362,2.167,11.189,7.865,10.066
			C216.339,371.275,235.731,369.332,255.944,369.332z"/>
		<path style="fill:#7D5046;" d="M255.943,344.178c24.24,0,46.414,6.313,63.78,16.762c-11.702-24.19-35.845-40.809-63.779-40.809
			s-52.078,16.619-63.78,40.809C209.529,350.491,231.703,344.178,255.943,344.178z"/>
		<path style="fill:#7D5046;" d="M340.17,280.049L340.17,280.049c-11.068,0-20.04-8.972-20.04-20.04v-16.032
			c0-11.068,8.972-20.04,20.04-20.04h0c11.068,0,20.04,8.972,20.04,20.04v16.032C360.211,271.077,351.238,280.049,340.17,280.049z"
			/>
		<path style="fill:#9C6846;" d="M360.211,243.977c0-12.379-11.222-22.135-24.048-19.651v15.643
			c0,13.282,10.767,24.048,24.048,24.048h0V243.977z"/>
		<path style="fill:#7D5046;" d="M171.832,280.049L171.832,280.049c-11.068,0-20.04-8.972-20.04-20.04v-16.032
			c0-11.068,8.972-20.04,20.04-20.04h0c11.068,0,20.04,8.972,20.04,20.04v16.032C191.872,271.077,182.9,280.049,171.832,280.049z"/>
		<path style="fill:#9C6846;" d="M191.872,243.977c0-12.379-11.222-22.135-24.048-19.651v15.643
			c0,13.282,10.767,24.048,24.048,24.048h0V243.977z"/>
	</g>
	<g>
		<path d="M171.822,287.524c15.187,0,27.542-12.355,27.542-27.543v-12.025c0-4.142-3.358-7.5-7.5-7.5s-7.5,3.358-7.5,7.5v12.025
			c0,6.916-5.626,12.543-12.542,12.543s-12.542-5.627-12.542-12.543v-16.034c0-6.916,5.626-12.542,12.542-12.542
			c4.142,0,7.5-3.358,7.5-7.5c0-4.143-3.358-7.5-7.5-7.5c-15.187,0-27.542,12.355-27.542,27.542v16.034
			C144.279,275.168,156.635,287.524,171.822,287.524z"/>
		<path d="M367.723,259.981v-12.025c0-4.142-3.358-7.5-7.5-7.5s-7.5,3.358-7.5,7.5v12.025c0,6.916-5.626,12.543-12.542,12.543
			s-12.543-5.627-12.543-12.543v-16.034c0-6.916,5.627-12.542,12.543-12.542c4.142,0,7.5-3.358,7.5-7.5c0-4.143-3.358-7.5-7.5-7.5
			c-15.187,0-27.543,12.355-27.543,27.542v16.034c0,15.188,12.356,27.543,27.543,27.543S367.723,275.168,367.723,259.981z"/>
		<path d="M15.108,248.714c1.833-61.604,26.857-119.543,70.459-163.146c43.603-43.603,101.543-68.626,163.146-70.459
			c61.335-1.826,120.402,19.43,166.328,59.852c3.109,2.736,7.848,2.435,10.585-0.675s2.435-7.849-0.675-10.585
			C376.162,20.758,313.418-1.822,248.268,0.115c-65.44,1.947-126.989,28.528-173.306,74.846
			C28.644,121.279,2.063,182.827,0.115,248.268C-1.824,313.414,20.757,376.162,63.7,424.952c1.482,1.685,3.552,2.545,5.633,2.545
			c1.76,0,3.527-0.616,4.952-1.87c3.109-2.737,3.412-7.476,0.675-10.585C34.538,369.116,13.283,310.046,15.108,248.714z"/>
		<path d="M448.302,87.051c-2.736-3.109-7.476-3.412-10.585-0.675c-3.109,2.736-3.412,7.476-0.675,10.585
			c40.421,45.925,61.677,104.995,59.852,166.327c-1.833,61.604-26.856,119.543-70.459,163.146
			c-43.603,43.603-101.542,68.626-163.146,70.459c-61.329,1.822-120.402-19.43-166.328-59.852
			c-3.108-2.736-7.848-2.435-10.585,0.675c-2.737,3.109-2.435,7.849,0.675,10.585c46.854,41.239,106.58,63.7,168.942,63.7
			c2.577,0,5.158-0.038,7.742-0.115c65.441-1.948,126.989-28.529,173.306-74.846c46.318-46.317,72.899-107.866,74.847-173.306
			C513.826,198.588,491.245,135.84,448.302,87.051z"/>
		<path d="M207.871,207.355c3.14,0,6.066-1.987,7.114-5.13c1.31-3.93-0.814-8.177-4.744-9.487l-72.154-24.051
			c-3.928-1.31-8.176,0.814-9.487,4.744c-1.31,3.929,0.814,8.177,4.744,9.487l72.154,24.051
			C206.285,207.231,207.085,207.355,207.871,207.355z"/>
		<path d="M383.343,173.43c-1.311-3.93-5.557-6.053-9.487-4.744l-72.153,24.051c-3.93,1.311-6.053,5.558-4.744,9.487
			c1.048,3.143,3.974,5.13,7.114,5.13c0.786,0,1.586-0.124,2.373-0.387l72.153-24.051
			C382.529,181.607,384.653,177.359,383.343,173.43z"/>
		<path d="M193.532,383.468c19.877-4.413,40.866-6.651,62.383-6.651c21.516,0,42.505,2.238,62.382,6.651
			c0.8,0.177,1.602,0.264,2.394,0.264c2.986,0,5.839-1.234,7.941-3.507c2.662-2.879,3.6-7.007,2.448-10.772
			c-10.397-34-40.603-56.844-75.165-56.844s-64.769,22.844-75.165,56.843c-1.152,3.766-0.214,7.894,2.447,10.773
			C185.857,383.102,189.721,384.314,193.532,383.468z M255.915,327.608c25.672,0,48.4,15.702,58.47,39.723
			c-18.792-3.662-38.424-5.515-58.47-5.515c-20.046,0-39.679,1.854-58.47,5.515C207.514,343.312,230.243,327.608,255.915,327.608z"
			/>
	</g>
</g>
<g>
</g>
<g>
</g>
<g>
</g>
<g>
</g>
<g>
</g>
<g>
</g>
<g>
</g>
<g>
</g>
<g>
</g>
<g>
</g>
<g>
</g>
<g>
</g>
<g>
</g>
<g>
</g>
<g>
</g>
</svg>
